<svg xmlns="http://www.w3.org/2000/svg" viewBox="0 0 300 300"><title>icone-loppure-75</title><g id="Generali"><path d="M246.06,39.73,109,39.45A23.83,23.83,0,0,0,85.19,63.26V83.83l-32.4.07A23.83,23.83,0,0,0,29,107.71v84.87a23.83,23.83,0,0,0,23.8,23.81H77.16v40.15a4,4,0,0,0,2.57,3.75,4,4,0,0,0,4.42-1l39-42.86,66.75-.27a23.83,23.83,0,0,0,23.81-23.81v-.45l21.12,23.23a4,4,0,0,0,3,1.31,3.94,3.94,0,0,0,1.45-.27,4,4,0,0,0,2.57-3.75V172.22h4.3a23.83,23.83,0,0,0,23.81-23.81V63.54A23.83,23.83,0,0,0,246.06,39.73ZM205.63,192.29a15.8,15.8,0,0,1-15.79,15.78l-68.53.28a4,4,0,0,0-3,1.31L85.19,246.14V212.36a4,4,0,0,0-4-4H52.79A15.79,15.79,0,0,1,37,192.57V107.7A15.8,15.8,0,0,1,52.8,91.92l36.4-.08h0l99.84-.2h.79a15.8,15.8,0,0,1,15.78,15.78v84.87Zm56.2-43.88a15.8,15.8,0,0,1-15.78,15.78h-8.31a4,4,0,0,0-4,4V202L213.66,179.9V107.42h0a23.83,23.83,0,0,0-23.81-23.8h-.42l-96.21.2V63.26A15.79,15.79,0,0,1,109,47.48l137.06.28h0a15.8,15.8,0,0,1,15.78,15.78v84.87Z"/><path d="M77.16,135.74A16.06,16.06,0,1,0,93.22,151.8,16.07,16.07,0,0,0,77.16,135.74Zm0,24.09a8,8,0,1,1,8-8A8,8,0,0,1,77.16,159.83Z"/><path d="M121.32,135.74a16.06,16.06,0,1,0,16.06,16.06A16.07,16.07,0,0,0,121.32,135.74Zm0,24.09a8,8,0,1,1,8-8A8,8,0,0,1,121.32,159.83Z"/><path d="M165.48,135.74a16.06,16.06,0,1,0,16.06,16.06A16.07,16.07,0,0,0,165.48,135.74Zm0,24.09a8,8,0,1,1,8-8A8,8,0,0,1,165.48,159.83Z"/></g></svg>