<svg xmlns="http://www.w3.org/2000/svg" viewBox="0 0 300 300"><defs><style>.cls-1{fill:#40484c;}</style></defs><title>icone-loppure-75</title><g id="Generali"><path class="cls-1" d="M224.45,196.65a3.85,3.85,0,0,1-2.66-1.06l-44.7-41.93a3.88,3.88,0,1,1,5.32-5.66l44.7,41.93a3.88,3.88,0,0,1-2.66,6.71Z"/><path class="cls-1" d="M75.24,196.65a3.88,3.88,0,0,1-2.66-6.71L117.29,148a3.88,3.88,0,1,1,5.32,5.66L77.89,195.59A3.85,3.85,0,0,1,75.24,196.65Z"/><path class="cls-1" d="M250.88,235.64H48.81a19.44,19.44,0,0,1-19.42-19.42V83.78A19.44,19.44,0,0,1,48.81,64.36H250.88A19.44,19.44,0,0,1,270.3,83.78V216.22A19.44,19.44,0,0,1,250.88,235.64ZM48.81,72.13A11.67,11.67,0,0,0,37.16,83.78V216.22a11.67,11.67,0,0,0,11.65,11.65H250.88a11.67,11.67,0,0,0,11.65-11.65V83.78a11.67,11.67,0,0,0-11.65-11.65Z"/><path class="cls-1" d="M149.85,169.52a21.72,21.72,0,0,1-14.26-5.14l-99.75-87a3.88,3.88,0,1,1,5.1-5.86l99.75,87a14.54,14.54,0,0,0,18.31,0l99.62-86.87a3.89,3.89,0,1,1,5.11,5.86l-99.62,86.87A21.71,21.71,0,0,1,149.85,169.52Z"/></g></svg>