<svg xmlns="http://www.w3.org/2000/svg" viewBox="0 0 300 300"><defs><style>.cls-1{fill:#fff;}</style></defs><title>icone-loppure-75</title><g id="Generali"><path class="cls-1" d="M210.14,130.1H109.9a4,4,0,1,0,0,8H210.14a4,4,0,0,0,0-8Z"/><path class="cls-1" d="M109.9,106H150a4,4,0,1,0,0-8H109.9a4,4,0,1,0,0,8Z"/><path class="cls-1" d="M210.14,162.18H109.9a4,4,0,1,0,0,8H210.14a4,4,0,0,0,0-8Z"/><path class="cls-1" d="M210.14,194.26H109.9a4,4,0,1,0,0,8H210.14a4,4,0,0,0,0-8Z"/><path class="cls-1" d="M210.14,226.34H109.9a4,4,0,1,0,0,8H210.14a4,4,0,0,0,0-8Z"/><path class="cls-1" d="M226.18,88.35V29.86H53.77V250.39h20v20H246.23v-162ZM190.1,63.6l36.09,36.09,6.36,6.36H190.1ZM61.79,242.37V37.88H218.16V80.33L187.75,49.91H73.82V242.37Zm20,20V57.93H182.08v56.13h56.13V262.42Z"/></g></svg>