<svg xmlns="http://www.w3.org/2000/svg" viewBox="0 0 300.96 240.77"><defs><style>.cls-1{fill:#fff;}</style></defs><title>Risorsa 40loppure</title><g id="Livello_2" data-name="Livello 2"><g id="Livello_1-2" data-name="Livello 1"><path class="cls-1" d="M150.48,90.29a45.14,45.14,0,1,0,45.14,45.14A45.15,45.15,0,0,0,150.48,90.29ZM270.87,45.14H234.75a13.4,13.4,0,0,1-11.89-8.57l-9.34-28A13.41,13.41,0,0,0,201.65,0H99.32A13.4,13.4,0,0,0,87.43,8.57l-9.34,28a13.41,13.41,0,0,1-11.89,8.56H30.1A30.18,30.18,0,0,0,0,75.24V210.68a30.18,30.18,0,0,0,30.1,30.1H270.87a30.18,30.18,0,0,0,30.1-30.1V75.24A30.18,30.18,0,0,0,270.87,45.14ZM150.48,210.68a75.24,75.24,0,1,1,75.24-75.24A75.24,75.24,0,0,1,150.48,210.68ZM260.33,96.29a10.53,10.53,0,1,1,10.53-10.53A10.53,10.53,0,0,1,260.33,96.29Z"/></g></g></svg>