<svg xmlns="http://www.w3.org/2000/svg" viewBox="0 0 300 300"><title>icone-loppure-75</title><g id="Generali"><path d="M150,29.3a79,79,0,0,0-79,78.92C71,150,142.8,263.2,145.85,268a4.92,4.92,0,0,0,8.3,0C157.2,263.2,229,150,229,108.21A79,79,0,0,0,150,29.3Zm0,226.77c-6.49-10.51-19.68-32.25-32.73-56.35-23.82-44-36.4-75.61-36.4-91.5a69.13,69.13,0,0,1,138.26,0c0,15.89-12.59,47.53-36.4,91.5C169.68,223.81,156.49,245.56,150,256.07Z"/><path d="M150,66.71c-20.6,0-37.35,16.3-37.35,36.34S129.4,139.38,150,139.38s37.35-16.3,37.35-36.34S170.6,66.71,150,66.71Zm0,62.84c-15.17,0-27.52-11.89-27.52-26.5s12.35-26.5,27.52-26.5,27.52,11.89,27.52,26.5S165.17,129.55,150,129.55Z"/></g></svg>