<svg xmlns="http://www.w3.org/2000/svg" viewBox="0 0 300 300"><defs><style>.cls-1{fill:#fff;}</style></defs><title>icone-loppure-75</title><g id="Generali"><path class="cls-1" d="M150,30.26a79,79,0,0,0-79,78.92C71,151,142.8,264.16,145.85,269a4.92,4.92,0,0,0,8.3,0C157.2,264.16,229,151,229,109.18A79,79,0,0,0,150,30.26ZM150,257c-6.49-10.51-19.68-32.25-32.73-56.35-23.82-44-36.4-75.61-36.4-91.5a69.13,69.13,0,0,1,138.26,0c0,15.89-12.59,47.53-36.4,91.5C169.68,224.78,156.49,246.53,150,257Z"/><path class="cls-1" d="M150,67.67c-20.6,0-37.35,16.3-37.35,36.34S129.4,140.35,150,140.35,187.35,124,187.35,104,170.6,67.67,150,67.67Zm0,62.84c-15.17,0-27.52-11.89-27.52-26.5s12.35-26.5,27.52-26.5S177.52,89.4,177.52,104,165.17,130.51,150,130.51Z"/></g></svg>