<svg xmlns="http://www.w3.org/2000/svg" viewBox="0 0 300 300"><defs><style>.cls-1{fill:#40484c;}</style></defs><title>icone-loppure-75</title><g id="Generali"><path class="cls-1" d="M150,29.67a79,79,0,0,0-79,78.92c0,41.82,71.77,155,74.82,159.78a4.92,4.92,0,0,0,8.3,0c3.05-4.8,74.82-118,74.82-159.78A79,79,0,0,0,150,29.67Zm0,226.77c-6.49-10.51-19.68-32.25-32.73-56.35-23.82-44-36.4-75.61-36.4-91.5a69.13,69.13,0,0,1,138.26,0c0,15.89-12.59,47.53-36.4,91.5C169.68,224.18,156.49,245.93,150,256.44Z"/><path class="cls-1" d="M150,67.08c-20.6,0-37.35,16.3-37.35,36.34S129.4,139.75,150,139.75s37.35-16.3,37.35-36.34S170.6,67.08,150,67.08Zm0,62.84c-15.17,0-27.52-11.89-27.52-26.5s12.35-26.5,27.52-26.5,27.52,11.89,27.52,26.5S165.17,129.92,150,129.92Z"/></g></svg>