<svg xmlns="http://www.w3.org/2000/svg" viewBox="0 0 300 300"><defs><style>.cls-1{fill:#40484c;}</style></defs><title>icone-loppure-75</title><g id="Generali"><path class="cls-1" d="M61.46,117.87A32.13,32.13,0,1,0,93.59,150,32.16,32.16,0,0,0,61.46,117.87Zm0,56.55A24.42,24.42,0,1,1,85.88,150,24.44,24.44,0,0,1,61.46,174.42Z"/><path class="cls-1" d="M149.82,117.87A32.13,32.13,0,1,0,181.95,150,32.16,32.16,0,0,0,149.82,117.87Zm0,56.71A24.58,24.58,0,1,1,174.4,150,24.61,24.61,0,0,1,149.82,174.58Z"/><path class="cls-1" d="M238.18,117.87A32.13,32.13,0,1,0,270.3,150,32.16,32.16,0,0,0,238.18,117.87Zm0,56.71A24.58,24.58,0,1,1,262.76,150,24.61,24.61,0,0,1,238.18,174.58Z"/></g></svg>