<svg xmlns="http://www.w3.org/2000/svg" viewBox="0 0 300 300"><defs><style>.cls-1{fill:#40484c;}</style></defs><title>icone-loppure-75</title><g id="Generali"><path class="cls-1" d="M109.3,137.76a4,4,0,1,1,8,0v8a4,4,0,0,1-8,0Zm4,84.15a4,4,0,0,1-4-4v-8a4,4,0,0,1,8,0v8A4,4,0,0,1,113.31,221.91Z"/><path class="cls-1" d="M193.45,85.67a4,4,0,0,0-4,4v8a4,4,0,0,0,8,0v-8A4,4,0,0,0,193.45,85.67Z"/><path class="cls-1" d="M113.31,77.66a4,4,0,0,0,4-4v-8a4,4,0,1,0-8,0v8A4,4,0,0,0,113.31,77.66Z"/><path class="cls-1" d="M269.78,266.38a4,4,0,0,0-4-4h-8V237.72a16.05,16.05,0,1,0-8,0v24.65H187a102.49,102.49,0,0,0,18.66-11.16,4,4,0,0,0,7.93-.89v-5.72q1.62-1.49,3.19-3.05,2.52-2.52,4.84-5.18v13.95a4,4,0,1,0,8,0V234.27a4,4,0,0,0-3.15-3.92A102.17,102.17,0,0,0,242.78,198a4,4,0,0,0,2.92-3.86v-8a4,4,0,0,0-.05-.63A104.57,104.57,0,0,0,247,168.54v-.08a104.48,104.48,0,0,0-1.73-18.85l8.43,3.16v41.37a4,4,0,0,0,8,0V150a4,4,0,0,0-2.6-3.76l-16-6a101.93,101.93,0,0,0-13.47-29.07V57.67a4,4,0,1,0-8,0v4.89L176.49,73.84a4,4,0,0,0-3,3.89V93.3a80.44,80.44,0,0,0-24.08-5.44V53.66a4,4,0,0,0-2.22-3.59L125.29,39.13V33.59a4,4,0,0,0-8,0v5.55L95.4,50.06a4,4,0,0,0-2.22,3.59V87.3L79.34,94.21a4,4,0,0,0-2.22,3.59v24.82A80.91,80.91,0,0,0,67.24,142H49a4,4,0,0,0-4,4v19.19H43.78a3.28,3.28,0,0,0-3.29,3.27s0,.08,0,.1a104.78,104.78,0,0,0,1.08,15A20.06,20.06,0,0,0,45,221.82v40.54H33a4,4,0,0,0-.83,7.94H266.6A4,4,0,0,0,269.78,266.38ZM181.48,80.87l40.14-10v29.85q-2.55-2.91-5.33-5.66a3.28,3.28,0,0,0-2.7-.92V89.78a4,4,0,0,0-8,0v8a4,4,0,0,0,.86,2.47l-6.59,6.59a3.29,3.29,0,0,0-1,2.34s0,.1,0,.15A81.51,81.51,0,0,0,181.48,97ZM85.15,100.29,99,93.37a4,4,0,0,0,2.22-3.59V56.14l20.07-10,20.07,10V87.7a81.17,81.17,0,0,0-8.29.67,4,4,0,0,0-7.77,1.41h0a80.27,80.27,0,0,0-8,2.33V89.78a4,4,0,0,0-8,0v5.62a81.5,81.5,0,0,0-24.08,17.39Zm-11,49.7a71.6,71.6,0,0,1,6.52-16.09A72.43,72.43,0,0,1,125.46,99a71.57,71.57,0,0,1,7.86-1.6,72.11,72.11,0,0,1,82.56,71c0,.09,0,.18,0,.27s0,.2,0,.31v0a46.24,46.24,0,0,1-10.32,29.15,46.74,46.74,0,0,1-16.05,12.73,46.15,46.15,0,0,1-16.06,4.39c-1.32.11-2.66.18-4,.18A46.44,46.44,0,1,1,180.78,124a4.47,4.47,0,0,0,3.65-8,64,64,0,0,0-36.88-11.63q-3,0-6,.28a63.89,63.89,0,0,0-24.67,7.51A64.8,64.8,0,0,0,89,142a64,64,0,0,0-5.12,17.15q-.38,2.5-.56,5.06H71.77A71.71,71.71,0,0,1,74.11,150ZM221,189.08a79.46,79.46,0,0,1-7.46,18.38v-5.08A55.37,55.37,0,0,0,221,189.08Zm-43.58,41.18a4,4,0,0,0-4,4v8.51a79.38,79.38,0,0,1-24.08,5.52v-2.4a20.1,20.1,0,0,0,16.05-19.66q0-1-.1-2,2,.15,4.12.15a55.08,55.08,0,0,0,20.7-4,4,4,0,0,0,7.4-2.15v-1.51a55.67,55.67,0,0,0,8-5.76v8.29a80.67,80.67,0,0,1-11.14,11.14,4,4,0,0,0-4.9,3.72,80.13,80.13,0,0,1-8,5v-4.76A4,4,0,0,0,177.47,230.26Zm-64.22,0a4,4,0,0,0-4,4v6.39a79.93,79.93,0,0,1-8-4.45V146a4,4,0,0,0-4-4H93.94a60.14,60.14,0,0,1,15.36-19.35,4,4,0,0,0,7.93-.28,4.12,4.12,0,0,0,0-.44V117a59.62,59.62,0,0,1,8.11-4,4,4,0,0,0-.08.81v8a4,4,0,0,0,8,0v-8a4,4,0,0,0-1.35-3,59.66,59.66,0,0,1,9.38-1.73V121.3a55.53,55.53,0,0,0-26.27,37.15,4,4,0,0,0-5.84,3.57v8a4,4,0,0,0,5.05,3.87,55.11,55.11,0,0,0,1.59,9.16,4,4,0,0,0-6.65,3v8a4,4,0,0,0,8,0v-6.59a55.56,55.56,0,0,0,15.61,23,20.06,20.06,0,0,0,8.47,35.36v2.56A79.53,79.53,0,0,1,117.26,244v-9.72A4,4,0,0,0,113.25,230.26Zm20.07-4a12.05,12.05,0,0,1,6.31-10.59,55.08,55.08,0,0,0,17.31,7.3,12,12,0,1,1-23.62,3.29ZM149.37,117.4v-4.08a55.47,55.47,0,0,1,10,1.23A54.89,54.89,0,0,0,149.37,117.4ZM67.68,173.11a4,4,0,0,0,1.42-3.06v-1.41h8v1.41a4,4,0,0,0,8,0v-1.41h2.49a59.84,59.84,0,0,1,3-18.66h2.55v80.45a80.68,80.68,0,0,1-9.47-9.14,4,4,0,0,0,1.44-3.08v-8h0a4,4,0,0,0-8,0v2.53A79.41,79.41,0,0,1,64,173.91a4,4,0,0,0,3.71-.8ZM53,150H64.89a80.56,80.56,0,0,0-1.54,8.43A4,4,0,0,0,61.07,162v3.19a3.29,3.29,0,0,0-.58-.05H53ZM49,214.2a12,12,0,0,1-5.95-22.5A102,102,0,0,0,51,214,12,12,0,0,1,49,214.2Zm4,48.16V221.82c.65-.13,1.29-.3,1.91-.49A103,103,0,0,0,62,231.68a4,4,0,0,0-1,2.59v16.05a4,4,0,1,0,8,0V239.89q.81.84,1.63,1.67,3.09,3.09,6.39,5.88v2.89a4,4,0,0,0,7.07,2.6,102.37,102.37,0,0,0,16.31,9.44Zm90.71,2.86a96.18,96.18,0,0,1-45.08-11.17q-2.78-1.47-5.44-3.12A97.54,97.54,0,0,1,60.9,218.33q-2.1-3.48-3.9-7.15a95.94,95.94,0,0,1-7.49-21q-.9-3.95-1.48-8t-.82-8.49c0-.62-.06-1.25-.08-1.87H57.26a86.8,86.8,0,0,0,52,76.16q3.89,1.7,8,3a86.13,86.13,0,0,0,24.13,4.13c.8,0,1.6,0,2.41,0,1.89,0,3.76-.07,5.62-.19A85.89,85.89,0,0,0,189.51,242a87,87,0,0,0,35.6-43.87A85.79,85.79,0,0,0,229,183.86a86.69,86.69,0,0,0,1.36-15.32v-.08a86.81,86.81,0,0,0-4-26,85.38,85.38,0,0,0-4.73-11.87,86.46,86.46,0,0,0-14.83-21.4l7.17-7.17a97.86,97.86,0,0,1,7.66,9.13,95.82,95.82,0,0,1,18.3,47.24,98.59,98.59,0,0,1,.52,10v.08q0,2.66-.15,5.28-.25,4.56-.91,9t-1.71,8.7A96.16,96.16,0,0,1,224.28,222a97.5,97.5,0,0,1-26.74,26.85q-3.36,2.26-6.92,4.24a96.2,96.2,0,0,1-46.86,12.14Zm101.94-43a8,8,0,1,1,8,8A8,8,0,0,1,245.7,222.23Z"/><path class="cls-1" d="M81.25,197.87a4,4,0,0,0,4-4v-8a4,4,0,0,0-8,0v8A4,4,0,0,0,81.25,197.87Z"/><path class="cls-1" d="M117.31,209.89a4,4,0,0,0-8,0v8a4,4,0,1,0,8,0Z"/><path class="cls-1" d="M129.34,77.66a4,4,0,0,0,4-4v-8a4,4,0,0,0-8,0v8A4,4,0,0,0,129.34,77.66Z"/><path class="cls-1" d="M113.31,149.78a4,4,0,0,0,4-4v-8a4,4,0,1,0-8,0v8A4,4,0,0,0,113.31,149.78Z"/></g></svg>