<svg xmlns="http://www.w3.org/2000/svg" viewBox="0 0 300 300"><title>icone-loppure-75</title><g id="Generali"><path d="M220.36,184.59a43.06,43.06,0,0,0-34.08,16.79l-66.11-36.93a43.17,43.17,0,0,0,2.4-14.19A42.22,42.22,0,0,0,120.12,136l66.06-36.88A43,43,0,1,0,177.28,73a42,42,0,0,0,2.45,14.24l-66,36.88a43,43,0,1,0,.1,52.22l66.06,36.93a43,43,0,1,0,40.48-28.68Zm0-141.07a29.53,29.53,0,1,1-29.53,29.53A29.56,29.56,0,0,1,220.36,43.52ZM79.64,179.79a29.53,29.53,0,1,1,29.53-29.53A29.56,29.56,0,0,1,79.64,179.79Zm140.72,77.3a29.53,29.53,0,1,1,29.53-29.53A29.56,29.56,0,0,1,220.36,257.1Z"/></g></svg>