<svg xmlns="http://www.w3.org/2000/svg" viewBox="0 0 148.09 241.48"><defs><style>.cls-1{fill:#fff;}</style></defs><title>Risorsa 6</title><g id="Livello_2" data-name="Livello 2"><g id="Livello_1-2" data-name="Livello 1"><path class="cls-1" d="M35.9,110.12C24.17,99.27,18.5,77,19.15,55.54h109.8c.66,21.45-5,43.73-16.74,54.57-19.48,18-56.81,18-76.3,0"/><path class="cls-1" d="M119.09,233.39l-37.5-7V150.2a73.49,73.49,0,0,0,44-20.09C154,102.62,155.92,32.25,129,2.49L126.78,0H21.29L19,2.49C-7.83,32.25-5.9,102.63,22.55,130.12a73.42,73.42,0,0,0,44,20.09v76.18l-39,6.88c-4.17,0-7.67.08-7.67,4.25s4.73,4,8.89,4h90.56c4.17,0,7.79.2,7.79-4s-3.85-4.13-8-4.13M28.19,4H119.9c25.56,33.66,17.17,94-4.84,115.21s-59.92,21.38-82,0S1.73,35,28.19,4"/></g></g></svg>