<svg xmlns="http://www.w3.org/2000/svg" viewBox="0 0 251.95 251.95"><defs><style>.cls-1{fill:#fff;}</style></defs><title>Risorsa 4</title><g id="Livello_2" data-name="Livello 2"><g id="Livello_1-2" data-name="Livello 1"><path class="cls-1" d="M126,9.63A116.34,116.34,0,1,1,9.63,126,116.47,116.47,0,0,1,126,9.63M126,0a126,126,0,1,0,126,126A126,126,0,0,0,126,0"/><path class="cls-1" d="M126,32.9A93.07,93.07,0,1,1,32.9,126,93.18,93.18,0,0,1,126,32.9m0-7.71A100.78,100.78,0,1,0,226.75,126,100.78,100.78,0,0,0,126,25.19"/><path class="cls-1" d="M126,51.52A74.46,74.46,0,1,1,51.52,126,74.54,74.54,0,0,1,126,51.52m0-6.17A80.62,80.62,0,1,0,206.6,126,80.62,80.62,0,0,0,126,45.35"/><path class="cls-1" d="M126,66.41A59.57,59.57,0,1,1,66.41,126,59.63,59.63,0,0,1,126,66.41m0-4.93a64.5,64.5,0,1,0,64.5,64.5A64.5,64.5,0,0,0,126,61.48"/><path class="cls-1" d="M126,78.32A47.65,47.65,0,1,1,78.32,126,47.71,47.71,0,0,1,126,78.32m0-3.95a51.6,51.6,0,1,0,51.6,51.6A51.6,51.6,0,0,0,126,74.37"/><path class="cls-1" d="M126,87.85A38.12,38.12,0,1,1,87.85,126,38.16,38.16,0,0,1,126,87.85m0-3.16A41.28,41.28,0,1,0,167.25,126,41.28,41.28,0,0,0,126,84.7"/><path class="cls-1" d="M126,95.48A30.5,30.5,0,1,1,95.48,126,30.53,30.53,0,0,1,126,95.48M126,93a33,33,0,1,0,33,33,33,33,0,0,0-33-33"/><path class="cls-1" d="M126,101.58a24.4,24.4,0,1,1-24.4,24.4,24.43,24.43,0,0,1,24.4-24.4m0-2A26.42,26.42,0,1,0,152.39,126,26.42,26.42,0,0,0,126,99.56"/><path class="cls-1" d="M126,106.46A19.52,19.52,0,1,1,106.46,126,19.54,19.54,0,0,1,126,106.46m0-1.62A21.13,21.13,0,1,0,147.11,126,21.13,21.13,0,0,0,126,104.84"/><path class="cls-1" d="M126,110.36A15.61,15.61,0,1,1,110.36,126,15.63,15.63,0,0,1,126,110.36m0-1.29A16.91,16.91,0,1,0,142.88,126,16.91,16.91,0,0,0,126,109.07"/><path class="cls-1" d="M126,113.48A12.49,12.49,0,1,1,113.48,126,12.51,12.51,0,0,1,126,113.48m0-1A13.53,13.53,0,1,0,139.5,126,13.53,13.53,0,0,0,126,112.45"/><path class="cls-1" d="M126,116a10,10,0,1,1-10,10,10,10,0,0,1,10-10m0-.83A10.82,10.82,0,1,0,136.8,126,10.82,10.82,0,0,0,126,115.15"/><path class="cls-1" d="M126,118a8,8,0,1,1-8,8,8,8,0,0,1,8-8m0-.66a8.66,8.66,0,1,0,8.66,8.66,8.66,8.66,0,0,0-8.66-8.66"/><path class="cls-1" d="M126,119.58a6.4,6.4,0,1,1-6.4,6.4,6.4,6.4,0,0,1,6.4-6.4m0-.53A6.93,6.93,0,1,0,132.9,126,6.93,6.93,0,0,0,126,119"/><path class="cls-1" d="M126,120.86a5.12,5.12,0,1,1-5.12,5.11,5.12,5.12,0,0,1,5.12-5.11m0-.42a5.54,5.54,0,1,0,5.54,5.54,5.54,5.54,0,0,0-5.54-5.54"/></g></g></svg>