<svg xmlns="http://www.w3.org/2000/svg" viewBox="0 0 211.91 284.66"><defs><style>.cls-1{fill:#fff;}</style></defs><title>Risorsa 3</title><g id="Livello_2" data-name="Livello 2"><g id="Livello_1-2" data-name="Livello 1"><path class="cls-1" d="M175.18,162.36c-2.09,0-3.7.18-3.7.52V131.74c0-16.91-39.43-30.49-85.09-30.49S1.63,115,1.63,132c0,1.1-1.63,2.19-1.63,3.26V250.8c0,1,.42,2.05.42,3.09,0,17,39.88,30.77,85.53,30.77s85.53-13.63,85.53-30.53V235.31c0,.33,1.61.52,3.7.52a36.74,36.74,0,0,0,0-73.48m-9.16,88c-3.95-11.89-26.39-21.66-56.3-25.3L84,250.84,58.41,225.11h.07l-7.9-7.79a21.36,21.36,0,1,1,33.41-26,21.39,21.39,0,1,1,33.51,26h0l-7.78,7.79c29.91,3.63,52.35,13.4,56.3,25.3a12.19,12.19,0,0,1,.55,2.49,12.19,12.19,0,0,0-.55-2.49m.6-118.41c-.11,6.27-5.29,12.09-14.1,16.92C161.33,144.06,166.51,138.24,166.62,132ZM84,113.44c35.51,0,64.29,6.94,64.29,15.4A5,5,0,0,1,147,132c-6,7-31.9,12.25-63,12.25S26.92,139,21,132a5.05,5.05,0,0,1-1.29-3.19c0-8.45,28.78-15.37,64.29-15.37m91.21,104c-2.15,0-3.7-.39-3.7-1.07v-34.6c0-.68,1.55-1.07,3.7-1.07a18.37,18.37,0,0,1,0,36.74"/><path class="cls-1" d="M56.62,80.13a24.56,24.56,0,0,1-1.23,8.75c7.05-4.56,11.86-12.47,11.53-21A22.62,22.62,0,0,0,61.29,54a22.4,22.4,0,0,1-5.8-9.74c-1.41-5.2-1-9.44-.1-14.68-7.49,3.94-11.13,11.9-11.19,20,.07,9.67,6.78,14.74,11,24.29a21.65,21.65,0,0,1,1.45,6.18"/><path class="cls-1" d="M85,50.5a24.57,24.57,0,0,1-1.23,8.75c7.06-4.56,11.86-12.47,11.53-21A22.58,22.58,0,0,0,89.7,24.42a22.41,22.41,0,0,1-5.8-9.74c-1.41-5.2-1-9.44-.11-14.68C76.31,3.93,72.66,11.9,72.6,20c.07,9.67,6.78,14.74,11,24.29A21.67,21.67,0,0,1,85,50.5"/><path class="cls-1" d="M113.35,75.94a17.92,17.92,0,0,1-.9,6.39c5.15-3.34,8.66-9.11,8.42-15.34a16.49,16.49,0,0,0-4.11-10.1,16.35,16.35,0,0,1-4.24-7.11c-1-3.8-.74-6.9-.08-10.72-5.47,2.88-8.13,8.69-8.17,14.63.05,7.06,5,10.77,8,17.74a15.79,15.79,0,0,1,1.06,4.52"/></g></g></svg>