<svg xmlns="http://www.w3.org/2000/svg" viewBox="0 0 282.68 232.79"><defs><style>.cls-1{fill:#fff;}</style></defs><title>Risorsa 7</title><g id="Livello_2" data-name="Livello 2"><g id="Livello_1-2" data-name="Livello 1"><path class="cls-1" d="M48.73,177c32,.62,59.75,5.41,80.22,13.84a2.83,2.83,0,0,0,1.08.22,2.85,2.85,0,0,0,2.85-2.85v-153a2.85,2.85,0,0,0-1.8-2.65L49.84.2a2.85,2.85,0,0,0-3.9,2.65V174.14A2.85,2.85,0,0,0,48.73,177"/><path class="cls-1" d="M281.53,27.38a2.86,2.86,0,0,0-2.52-.45l-28.74,8.59a2.85,2.85,0,0,0-2,2.73V186.07a2.18,2.18,0,0,1-2.33,2.33h-4.66c-23.18,0-66.27,2.41-94.34,18.52l-5.57,3.19-5.57-3.19C107.7,190.81,64.61,188.4,41.43,188.4H35.48c-1.11,0-1-1.33-1-1.33V38.26a2.85,2.85,0,0,0-2-2.73L3.67,26.93A2.85,2.85,0,0,0,0,29.66V208.5a2.85,2.85,0,0,0,3.13,2.84c8.54-.84,21.9-1.83,37-1.83,33.18,0,59.85,4.84,77.13,14,2.54,1.33,17.26,9.26,24.07,9.26s21.53-7.93,24.07-9.26c17.28-9.17,43.95-14,77.13-14,15.11,0,28.46,1,37,1.83a2.85,2.85,0,0,0,3.13-2.84V29.66a2.86,2.86,0,0,0-1.15-2.29"/><path class="cls-1" d="M151.06,190.57a2.85,2.85,0,0,0,2.67.27c20.47-8.43,48.21-13.22,80.22-13.84a2.85,2.85,0,0,0,2.79-2.85V2.85A2.85,2.85,0,0,0,232.84.2L151.58,32.54a2.85,2.85,0,0,0-1.8,2.65v153a2.85,2.85,0,0,0,1.26,2.37"/></g></g></svg>