<svg xmlns="http://www.w3.org/2000/svg" viewBox="0 0 218.69 227.02"><defs><style>.cls-1{fill:#fff;}</style></defs><title>Risorsa 9</title><g id="Livello_2" data-name="Livello 2"><g id="Livello_1-2" data-name="Livello 1"><path class="cls-1" d="M152.53,6.56A7,7,0,0,0,145.58,0h-.42L66.38,4.66A7,7,0,0,0,59.83,12l1,17.52L61.24,36l7.51,127.4a7,7,0,0,0,7.37,6.55l12.15-.72a13.2,13.2,0,0,1,.17-2.61l20-121.07,2.39-14.41L113.21,17a13.22,13.22,0,0,1,13.08-11.1,13.39,13.39,0,0,1,2.18.18l24.27,4Z"/><path class="cls-1" d="M124.91,200.91l-34-5.63a13.25,13.25,0,0,1-9.31-6.44l-13.57.8-.79,0A13.28,13.28,0,0,1,54,177.18l-7.43-126-.38-6.44L9.58,55.34A13.28,13.28,0,0,0,.52,71.77L42.63,217.44a13.25,13.25,0,0,0,16.43,9.06l75.81-21.91a13.31,13.31,0,0,0,3.32-1.48Z"/><path class="cls-1" d="M212.85,34.33,167,26.74l-6.37-1.05L135,21.44a7,7,0,0,0-8,5.74L122.49,54.3,120.1,68.71,102.21,176.77a7,7,0,0,0,3.62,7.3,6.88,6.88,0,0,0,2.12.72l44.48,7.36,6.74,1.12,26.64,4.41a7,7,0,0,0,8-5.74l24.76-149.6a7,7,0,0,0-5.74-8"/></g></g></svg>