<svg xmlns="http://www.w3.org/2000/svg" viewBox="0 0 195.53 239.68"><defs><style>.cls-1{fill:#fff;}</style></defs><title>Risorsa 5</title><g id="Livello_2" data-name="Livello 2"><g id="Livello_1-2" data-name="Livello 1"><path class="cls-1" d="M129.17,104.36l20.54-17.22c13.76-12.24,22-26.9,22.87-46.73H22.26c.9,19.84,9.1,34.5,22.87,46.73l20.54,17.74a20.93,20.93,0,0,1,7.21,15.8,21.22,21.22,0,0,1-7.21,15.93L45.58,154.8a67.85,67.85,0,0,0-22.5,51.06v1.74h17v-1.74c0-13.66,7.16-26.71,17.38-35.79l21.19-18.26a29.73,29.73,0,0,1,35.58-.71l1.14.72,21.26,18.25c10.21,9.08,16.8,22.13,16.8,35.79v1.74h19.84v-1.74A68.71,68.71,0,0,0,150,154.73l-20.69-18.26a21.48,21.48,0,0,1-.15-32.12M115.54,89l-13,9.85a8.43,8.43,0,0,1-10.16,0L79.3,89,58.76,70.76l6.55,1.16a184.36,184.36,0,0,0,64.2,0l6.55-1.16Z"/><path class="cls-1" d="M183.51,0H16.12C8.42,0,0,3.25,0,9.06v5.26c0,5.81,8.42,16.85,16.12,16.85H183.51c7.7,0,12-11,12-16.85V9.06c0-5.81-4.32-9.06-12-9.06"/><path class="cls-1" d="M183.51,214.17H16.12C8.42,214.17,0,216,0,222.05v5.45c0,6,8.42,12.18,16.12,12.18H183.51c7.7,0,12-6.16,12-12.18v-5.45c0-6-4.32-7.88-12-7.88"/></g></g></svg>