<svg xmlns="http://www.w3.org/2000/svg" xmlns:xlink="http://www.w3.org/1999/xlink" viewBox="0 0 219.39 249.69"><defs><style>.cls-1{fill:none;}.cls-2{fill:#fff;}.cls-3{clip-path:url(#clip-path);}</style><clipPath id="clip-path"><rect class="cls-1" x="68.04" y="123.56" width="57.57" height="57.57"/></clipPath></defs><title>Risorsa 8</title><g id="Livello_2" data-name="Livello 2"><g id="Livello_1-2" data-name="Livello 1"><path class="cls-2" d="M118.62,29.57v7.07H95.07V30.19C42.73,37.84,0,83.81,0,139.38A110.09,110.09,0,0,0,110,249.69c60.92,0,109.34-49.39,109.34-110.31,0-57.37-45.82-104.52-100.77-109.81m-8.83,204.36a94.55,94.55,0,1,1,94.55-94.55,94.55,94.55,0,0,1-94.55,94.55"/><path class="cls-2" d="M118.71,148.3a12.62,12.62,0,1,1-17.84-17.84L94,123.56a4.5,4.5,0,0,0-.89,1.26L68.24,178a2.23,2.23,0,0,0,3,3l53.14-24.85a4.47,4.47,0,0,0,1.26-.89l-6.89-6.9Z"/><g class="cls-3"><path class="cls-2" d="M118.71,148.3a12.62,12.62,0,1,1-17.84-17.84L94,123.56a4.5,4.5,0,0,0-.89,1.26L68.24,178a2.23,2.23,0,0,0,3,3l53.14-24.85a4.47,4.47,0,0,0,1.26-.89l-6.89-6.9Z"/></g><path class="cls-2" d="M125.61,155.19a4.57,4.57,0,0,0,.88-1.27,4.47,4.47,0,0,1-.89,1.26Z"/><path class="cls-2" d="M95.24,122.67a4.43,4.43,0,0,0-1.27.88,4.4,4.4,0,0,1,1.27-.88"/><path class="cls-2" d="M148.38,97.82,95.24,122.67a4.39,4.39,0,0,0-1.27.88l6.89,6.89a12.62,12.62,0,0,1,17.84,17.84l6.9,6.9a4.39,4.39,0,0,0,.88-1.27l24.85-53.14a2.23,2.23,0,0,0-3-3"/><polygon class="cls-2" points="105.54 72.44 114.78 88.97 121.24 88.97 121.24 60.19 113.39 60.19 113.39 74.47 103.15 60.19 97.69 60.19 97.69 88.97 105.54 88.97 105.54 72.44"/><path class="cls-2" d="M110.76,201.82c-3.64-.82-5.23-1.35-5.23-2.55v-.08c0-.94,2.2-1.69,4-1.69a15.22,15.22,0,0,1,8,2.59l4-5.13a13.35,13.35,0,0,0-9.61-3.49c-6.3,0-9,3.53-9,8.4v.08c0,5.4,3.69,7,9.28,8.25,3.56.82,3.8,1.43,3.8,2.51v.07c0,1.13-1.46,1.8-3.41,1.8a14.08,14.08,0,0,1-8.72-3.15l-4.15,4.84a16.54,16.54,0,0,0,11.6,4.35c6.37,0,9.91-3.19,9.91-8.55V210c0-4.91-4.44-6.86-10.48-8.18"/><polygon class="cls-2" points="178.81 151.78 178.81 143.93 191.89 143.93 191.89 141.31 178.81 141.31 178.81 133.46 191.89 133.46 191.89 130.84 168.34 130.84 168.34 157.01 191.89 157.01 191.89 151.78 178.81 151.78"/><polygon class="cls-2" points="54.96 146.07 49.9 130.84 43.64 130.84 38.57 146.07 33.99 130.84 26.3 130.84 35.09 157.01 41.42 157.01 46.67 141.89 51.96 157.01 58.3 157.01 67.08 130.84 59.54 130.84 54.96 146.07"/><polygon class="cls-2" points="118.62 15.7 118.62 20.93 131.71 20.93 131.71 0 81.98 0 81.98 20.93 95.07 20.93 95.07 15.7 118.62 15.7"/><path class="cls-2" d="M118.62,29.57V20.93H95.07v9.26c2.62-.74,9.05-1.13,14.4-1.13a73.86,73.86,0,0,1,9.15.5"/><path class="cls-2" d="M118.62,36.64V29.57a73.81,73.81,0,0,0-9.15-.5c-5.35,0-11.79.39-14.4,1.13v6.44Z"/><rect class="cls-2" x="95.07" y="15.7" width="23.55" height="5.23"/></g></g></svg>