<?xml version="1.0" encoding="utf-8"?>
<!-- Generator: Adobe Illustrator 18.0.0, SVG Export Plug-In . SVG Version: 6.00 Build 0)  -->
<!DOCTYPE svg PUBLIC "-//W3C//DTD SVG 1.1//EN" "http://www.w3.org/Graphics/SVG/1.1/DTD/svg11.dtd">
<svg version="1.1" id="Livello_1" xmlns="http://www.w3.org/2000/svg" xmlns:xlink="http://www.w3.org/1999/xlink" x="0px" y="0px"
	 viewBox="119 112 376 589" enable-background="new 119 112 376 589" xml:space="preserve">
<path fill="#40484C" d="M431.1,304c-2.1-2.4-4.3-4.6-6.5-6.7L398,341c8,11.7,11.9,26.1,11.9,43.2c0,19-5.6,34.8-16.8,47.4
	c-10.9,12.6-24.8,19-41.6,19c-7.9,0-15-1.3-21.5-3.8v41.4c9.7,3.8,19.9,5.7,30.6,5.7c28.5,0,52-10.4,70.8-31.3
	c18.9-21,28.3-47.2,28.3-78.7C459.5,351.7,450,325.1,431.1,304z"/>
<ellipse fill="#40484C" cx="382.1" cy="343.8" rx="64.1" ry="62.3"/>
<g>
	<g>
		<path fill="#40484C" d="M195.2,238.9c0-70.5-1.3-100.5-43.7-103.8l-16.7-1.3v-16.4c37.5,1.3,53.2,2.4,80.1,2.4
			c26.2,0,63.5-0.7,97.1-2l-0.4,15.9l-16.1,1.3c-39.6,3.4-40.9,33.4-40.9,103.8v218.5c0,42.2,2,59.7,14.1,72.4
			c7.3,7.3,20.1,15.4,73.1,15.4c57,0,71.1-2.7,81.9-8.8c13.5-8.1,30.9-32.2,44.3-66.4l18.9,4c0,7.3-17.4,88.7-26.8,106.9
			c-34.3-1.3-101.4-0.7-170.5-0.7h-70.3c-28.2,0-44.1,0.7-81.6,2l-4.4-30.7l21.8-2.2c39-4,40.3-13.5,40.3-83.8L195.2,238.9
			L195.2,238.9z"/>
	</g>
	<g>
		<path fill="#40484C" d="M195.2,238.9c0-70.5-1.3-100.5-43.7-103.8l-16.7-1.3v-16.4c37.5,1.3,53.2,2.4,80.1,2.4
			c26.2,0,63.5-0.7,97.1-2l-0.4,15.9l-16.1,1.3c-39.6,3.4-40.9,33.4-40.9,103.8v218.5c0,42.2,2,59.7,14.1,72.4
			c7.3,7.3,20.1,15.4,73.1,15.4c57,0,71.1-2.7,81.9-8.8c13.5-8.1,30.9-32.2,44.3-66.4l18.9,4c0,7.3-17.4,88.7-26.8,106.9
			c-34.3-1.3-101.4-0.7-170.5-0.7h-70.3c-28.2,0-44.1,0.7-81.6,2l-4.4-30.7l21.8-2.2c39-4,40.3-13.5,40.3-83.8L195.2,238.9
			L195.2,238.9z"/>
	</g>
</g>
<g enable-background="new    ">
	<path fill="#40484C" d="M130.4,635.7c0-7.7,2.8-14.1,8.2-19.5c5.4-5.3,12.1-8.1,19.9-8.1c7.9,0,14.6,2.7,20,8.1s8.2,11.9,8.2,19.8
		c0,8-2.8,14.5-8.2,19.9c-5.5,5.3-12.2,8-20.2,8c-7.9,0-14.5-2.8-19.9-8.2C133,650.5,130.4,643.8,130.4,635.7z M142.8,635.9
		c0,5.3,1.4,9.5,4.2,12.5c2.9,3.1,6.7,4.7,11.4,4.7c4.8,0,8.6-1.5,11.4-4.6s4.3-7.1,4.3-12.2c0-5.1-1.4-9.2-4.3-12.2
		s-6.7-4.7-11.4-4.7s-8.5,1.5-11.3,4.7C144.2,626.9,142.8,631,142.8,635.9z"/>
	<path fill="#40484C" d="M211.6,691.1h-12.1v-81.4h12.1v5.7c4.8-4.8,10.2-7.2,16.3-7.2c7.2,0,13.3,2.7,18,8.1
		c4.8,5.3,7.1,12,7.1,20.1c0,8-2.3,14.5-7.1,19.8c-4.7,5.2-10.6,7.9-17.7,7.9c-6.2,0-11.7-2.4-16.5-7.4L211.6,691.1L211.6,691.1z
		 M240.6,636.3c0-5.1-1.3-9.2-4.1-12.3c-2.8-3.2-6.3-4.8-10.5-4.8c-4.5,0-8.1,1.5-10.9,4.7c-2.8,3.1-4.2,7.1-4.2,12.2
		c0,4.9,1.4,9,4.2,12.2s6.3,4.7,10.8,4.7c4.2,0,7.8-1.6,10.4-4.8C239.3,645.1,240.6,641.1,240.6,636.3z"/>
	<path fill="#40484C" d="M278.2,691.1H266v-81.4h12.1v5.7c4.8-4.8,10.2-7.2,16.3-7.2c7.2,0,13.3,2.7,18,8.1c4.8,5.3,7.1,12,7.1,20.1
		c0,8-2.3,14.5-7.1,19.8c-4.7,5.2-10.6,7.9-17.7,7.9c-6.2,0-11.7-2.4-16.5-7.4L278.2,691.1L278.2,691.1z M307.1,636.3
		c0-5.1-1.3-9.2-4.1-12.3c-2.8-3.2-6.3-4.8-10.5-4.8c-4.5,0-8.1,1.5-10.9,4.7c-2.8,3.1-4.2,7.1-4.2,12.2c0,4.9,1.4,9,4.2,12.2
		c2.8,3.2,6.3,4.7,10.8,4.7c4.2,0,7.8-1.6,10.4-4.8C305.7,645.1,307.1,641.1,307.1,636.3z"/>
	<path fill="#40484C" d="M344.7,609.7V640c0,8.8,3.5,13.1,10.3,13.1c6.9,0,10.3-4.4,10.3-13.1v-30.3h12.1v30.5
		c0,4.2-0.5,7.9-1.5,10.9c-1,2.8-2.8,5.2-5.2,7.4c-4.1,3.6-9.4,5.4-15.7,5.4c-6.3,0-11.5-1.8-15.6-5.4c-2.5-2.2-4.3-4.7-5.4-7.4
		c-1-2.4-1.5-6.1-1.5-10.9v-30.5H344.7L344.7,609.7z"/>
	<path fill="#40484C" d="M392.9,609.7H405v4.7c2.2-2.3,4.2-4,5.9-4.8c1.7-0.9,3.9-1.3,6.3-1.3c3.2,0,6.5,1,10.1,3.2l-5.6,11.1
		c-2.3-1.6-4.6-2.4-6.7-2.4c-6.6,0-10,5-10,15.1v27.3h-12.1L392.9,609.7L392.9,609.7z"/>
	<path fill="#40484C" d="M481.6,638.9h-37.8c0.3,4.3,1.7,7.8,4.2,10.3s5.7,3.8,9.6,3.8c3.1,0,5.5-0.7,7.5-2.1
		c1.9-1.4,4.2-4.1,6.6-8.1l10.3,5.7c-1.6,2.8-3.3,5-5,6.9s-3.7,3.6-5.7,4.8s-4.2,2.1-6.5,2.8c-2.3,0.6-4.9,0.8-7.6,0.8
		c-7.9,0-14.2-2.5-19-7.5c-4.8-5.1-7.1-11.8-7.1-20.3c0-8.4,2.3-15.1,6.9-20.3c4.7-5.1,10.8-7.6,18.6-7.6s13.9,2.4,18.4,7.4
		c4.5,4.9,6.7,11.7,6.7,20.4v3H481.6z M469.1,629c-1.7-6.5-5.8-9.8-12.2-9.8c-1.5,0-2.9,0.2-4.2,0.7c-1.3,0.4-2.4,1.1-3.6,1.9
		s-1.9,1.8-2.8,3.1c-0.7,1.2-1.3,2.5-1.7,4.1H469.1L469.1,629z"/>
</g>
</svg>
