<svg xmlns="http://www.w3.org/2000/svg" viewBox="0 0 965.33 843.49"><defs><style>.cls-1{fill:#fff;}</style></defs><title>Risorsa 2</title><g id="Livello_2" data-name="Livello 2"><g id="Livello_1-2" data-name="Livello 1"><path class="cls-1" d="M764.61,74.37a400.71,400.71,0,0,1,120,286.09c0,.13,0,.25,0,.37,0,222-180,402-402,402s-402-180-402-402c0-.12,0-.25,0-.37H0c0,.13,0,.25,0,.37C0,627.4,216.09,843.49,482.66,843.49S965.33,627.4,965.33,360.83c0-.12,0-.25,0-.37A481.15,481.15,0,0,0,821.67,17.3Z"/><path class="cls-1" d="M842.77,359.75h0c0,.57,0,1.14,0,1.71,0,132.19-107.16,239.36-239.35,239.36S364.07,493.66,364.07,361.47,471.24,122.11,603.43,122.11a239.78,239.78,0,0,1,58.42,7.21A280.27,280.27,0,0,0,500.47,78.45C345,78.45,219,204.36,218.81,359.75H122.54C122.74,161,283.89,0,482.66,0S842.57,161,842.77,359.75Z"/></g></g></svg>