<svg xmlns="http://www.w3.org/2000/svg" viewBox="0 0 300 300"><title>icone-loppure-75</title><g id="Rubriche"><path d="M251.93,205.84H34.07a5.38,5.38,0,1,0,0,10.76H49.5L62.65,229H226.72l12-12.44h13.25a5.38,5.38,0,0,0,0-10.76Z"/><path d="M270.09,111c-2.47-26.79-36.59-23.22-36.6-23.22.76-10.06.62-16.45.62-16.45H53.23c-4.37,99.86,51.1,128.77,51.1,128.77H182c8.39-5.42,21.35-19.94,21.35-19.94C259,177.36,272.23,134.21,270.09,111Zm-94.81,28.46L148.71,166l-26.48-26.57a16.94,16.94,0,1,1,26.48-20.65,16.94,16.94,0,0,1,31.54,8.63C180.35,134.36,175.28,139.45,175.28,139.45Zm37.48,25a156.76,156.76,0,0,0,19.44-64.67s22.52-2.61,24.35,9.53C259.47,128.7,251.26,155.88,212.77,164.45Z"/></g></svg>