<svg xmlns="http://www.w3.org/2000/svg" viewBox="0 0 300 300"><title>icone-loppure-75</title><g id="Rubriche"><path d="M111.71,142.31C99.94,131,94.24,107.78,94.89,85.42H205.11c.66,22.36-5,45.58-16.81,56.88-19.55,18.79-57,18.79-76.59,0"/><path d="M195.22,264l-37.64-7V180.45a73.77,73.77,0,0,0,44.13-20.16c28.56-27.6,30.48-98.24,3.49-128.12l-2.27-2.5H97l-2.25,2.5c-27,29.87-25,100.52,3.51,128.12a73.7,73.7,0,0,0,44.12,20.16v76.48l-39.11,6.91c-4.19,0-7.7.08-7.7,4.26s4.74,4,8.93,4h90.91c4.19,0,7.82.2,7.82-4s-3.86-4.14-8-4.14M104,33.73H196c25.65,33.79,17.23,94.32-4.86,115.66s-60.15,21.46-82.34,0S77.4,64.82,104,33.73"/></g></svg>