<svg xmlns="http://www.w3.org/2000/svg" viewBox="0 0 300 300"><title>icone-loppure-75</title><g id="Rubriche"><path d="M182.73,130.65l21.52-18c14.42-12.82,23-28.19,24-49H70.69c.94,20.79,9.54,36.15,24,49l21.53,18.59a21.94,21.94,0,0,1,7.56,16.56,22.24,22.24,0,0,1-7.56,16.7L95.13,183.52A71.11,71.11,0,0,0,71.55,237v1.83H89.37V237c0-14.32,7.5-28,18.21-37.51l22.21-19.13a31.15,31.15,0,0,1,37.29-.74l1.2.75,22.28,19.13c10.7,9.52,17.61,23.19,17.61,37.51v1.83H229V237a72,72,0,0,0-24.38-53.58l-21.68-19.13a22.51,22.51,0,0,1-.16-33.66m-14.29-16.08L154.78,124.9a8.83,8.83,0,0,1-10.64,0l-13.66-10.32L108.94,95.44l6.87,1.22a193.22,193.22,0,0,0,67.29,0L190,95.44Z"/><rect x="49.81" y="29.67" width="200.02" height="26.93" rx="6.87" ry="6.87"/><rect x="49.81" y="243.81" width="200.02" height="26.93" rx="6.87" ry="6.87"/></g></svg>