<svg xmlns="http://www.w3.org/2000/svg" viewBox="0 0 319.98 429.82"><defs><style>.cls-1{fill:#fff;}</style></defs><title>Risorsa 27</title><g id="Livello_2" data-name="Livello 2"><g id="Livello_1-2" data-name="Livello 1"><path class="cls-1" d="M264.51,245.15c-3.15,0-5.58.28-5.58.78v-47c0-25.53-59.54-46-128.48-46S0,173.25,0,198.9v179.8c0,1.54.64,3.1.64,4.67,0,25.65,60.21,46.46,129.14,46.46s129.15-20.57,129.15-46.1v-28.4c0,.5,2.43.78,5.58.78a55.47,55.47,0,0,0,0-110.94m-137.7,133.6L76.37,328.14a32.26,32.26,0,1,1,50.45-39.33,32.26,32.26,0,0,1,60.08,16.43c.2,13.19-9.46,22.89-9.46,22.89Zm0-207.47c53.62,0,97.08,10.48,97.08,23.25a7.52,7.52,0,0,1-1.94,4.76c-9,10.56-48.16,18.49-95.14,18.49s-86.13-7.93-95.13-18.49a7.63,7.63,0,0,1-1.94-4.81c0-12.76,43.46-23.2,97.07-23.2M264.51,328.36c-3.25,0-5.58-.59-5.58-1.61V274.5c0-1,2.33-1.61,5.58-1.61a27.73,27.73,0,0,1,0,55.47"/><path class="cls-1" d="M85.49,121c.37,4.45-.62,9-1.86,13.22,10.65-6.89,17.9-18.83,17.41-31.72A34.15,34.15,0,0,0,92.55,81.6c-4.22-4.51-7.1-8.76-8.76-14.7-2.12-7.85-1.53-14.26-.15-22.17-11.31,5.94-16.81,18-16.9,30.25.1,14.6,10.24,22.26,16.57,36.67A32.69,32.69,0,0,1,85.49,121"/><path class="cls-1" d="M128.38,76.25c.36,4.45-.62,9-1.86,13.22,10.66-6.89,17.91-18.83,17.41-31.72a34.1,34.1,0,0,0-8.49-20.88c-4.22-4.52-7.1-8.76-8.76-14.71-2.12-7.84-1.53-14.25-.16-22.16-11.3,5.94-16.8,18-16.89,30.24.1,14.6,10.24,22.26,16.57,36.67a32.72,32.72,0,0,1,2.19,9.33"/><path class="cls-1" d="M171.15,114.67a27.05,27.05,0,0,1-1.36,9.65c7.78-5,13.08-13.75,12.71-23.17a24.9,24.9,0,0,0-6.2-15.25,24.69,24.69,0,0,1-6.4-10.74c-1.55-5.73-1.12-10.42-.12-16.19-8.26,4.34-12.28,13.13-12.34,22.1.08,10.66,7.49,16.26,12.1,26.78a23.84,23.84,0,0,1,1.6,6.82"/></g></g></svg>