<svg xmlns="http://www.w3.org/2000/svg" viewBox="0 0 300 300"><defs><style>.cls-1{fill:#a9c476;}</style></defs><title>icone-loppure-75</title><g id="Rubriche"><path class="cls-1" d="M158.62,58.22V49.88h12.63V29.67h-48V49.88h12.63v8.94h0C85.35,66.2,44.09,110.58,44.09,164.23a106.29,106.29,0,0,0,106.25,106.5c58.82,0,105.57-47.68,105.57-106.5C255.91,108.84,211.68,63.32,158.62,58.22Zm-8.53,197.31a91.29,91.29,0,1,1,91.29-91.29A91.29,91.29,0,0,1,150.09,255.52Z"/><path class="cls-1" d="M134.82,149a4.27,4.27,0,0,1,1.22-.85A4.25,4.25,0,0,0,134.82,149Z"/><path class="cls-1" d="M187.35,124.11l-51.3,24a4.24,4.24,0,0,0-1.22.85h0a4.34,4.34,0,0,0-.86,1.22l-24,51.31a2.15,2.15,0,0,0,2.86,2.87l51.3-24a4.32,4.32,0,0,0,1.22-.86h0l.25-.27a4.23,4.23,0,0,0,.45-.64c.06-.1.11-.21.16-.31,0,.1-.1.2-.16.3.06-.1.11-.2.16-.3l24-51.3a2.15,2.15,0,0,0-2.86-2.86Zm-28.64,48.73h0a12.18,12.18,0,1,1-17.23-17.23h0a12.18,12.18,0,0,1,17.23,17.23Z"/><path class="cls-1" d="M154.08,90.1H161v23.15h-6.41l-9.11-11.82v11.82h-7V90.1h6.41L154.08,102Z"/><path class="cls-1" d="M208.05,157.05h19.58v5.81H215.71v2.84h10.83v5.81H215.71v2.87h12.22v5.81H208.05Z"/><path class="cls-1" d="M154.66,223.43a11.81,11.81,0,0,0-3.76-.83q-1.42,0-1.42,1a1.34,1.34,0,0,0,.91,1.22,18.42,18.42,0,0,0,2.89,1,34.65,34.65,0,0,1,4.11,1.39,7.38,7.38,0,0,1,2.86,2.2,6.06,6.06,0,0,1,1.22,3.95,6.71,6.71,0,0,1-1.3,4.21,7.71,7.71,0,0,1-3.52,2.53,14,14,0,0,1-4.92.83,20.07,20.07,0,0,1-6.19-1,17.69,17.69,0,0,1-5.4-2.76l2.84-5.78a15.57,15.57,0,0,0,4.39,2.59,12.25,12.25,0,0,0,4.42,1.07,2.51,2.51,0,0,0,1.35-.31,1.07,1.07,0,0,0,.5-1,1.37,1.37,0,0,0-.94-1.24,16.8,16.8,0,0,0-3-.94,30.88,30.88,0,0,1-4.08-1.3,7.27,7.27,0,0,1-2.82-2.1,5.73,5.73,0,0,1-1.19-3.8,6.84,6.84,0,0,1,1.22-4,7.69,7.69,0,0,1,3.47-2.66,13.64,13.64,0,0,1,5.22-.92,19.82,19.82,0,0,1,5.4.76,17.68,17.68,0,0,1,4.67,2l-2.77,5.84A25.45,25.45,0,0,0,154.66,223.43Z"/><path class="cls-1" d="M100.51,157.49h7.83l-7.83,23.15H92.65L89.19,166.8l-3.57,13.84H77.76L70,157.49h8.19l3.73,15.19,3.7-15.19h7.46l3.76,15.19Z"/></g></svg>