<svg xmlns="http://www.w3.org/2000/svg" viewBox="0 0 483.4 483.41"><defs><style>.cls-1{fill:#fff;}</style></defs><title>Risorsa 24</title><g id="Livello_2" data-name="Livello 2"><g id="Livello_1-2" data-name="Livello 1"><path class="cls-1" d="M241.7,18.49c123.08,0,223.21,100.14,223.21,223.21S364.78,464.91,241.7,464.91,18.49,364.78,18.49,241.7,118.62,18.49,241.7,18.49M241.7,0C108.21,0,0,108.22,0,241.7S108.21,483.41,241.7,483.41,483.4,375.19,483.4,241.7,375.19,0,241.7,0"/><path class="cls-1" d="M241.7,63.13c98.46,0,178.57,80.11,178.57,178.57S340.16,420.27,241.7,420.27,63.13,340.17,63.13,241.7,143.23,63.13,241.7,63.13m0-14.79c-106.79,0-193.36,86.57-193.36,193.36S134.91,435.06,241.7,435.06,435.06,348.49,435.06,241.7,348.49,48.34,241.7,48.34"/><path class="cls-1" d="M241.7,98.85c78.77,0,142.86,64.09,142.86,142.85S320.47,384.56,241.7,384.56,98.84,320.47,98.84,241.7,162.93,98.85,241.7,98.85m0-11.83A154.69,154.69,0,1,0,396.39,241.7,154.69,154.69,0,0,0,241.7,87"/><path class="cls-1" d="M241.7,127.42A114.29,114.29,0,1,1,127.41,241.7,114.41,114.41,0,0,1,241.7,127.42m0-9.46A123.75,123.75,0,1,0,365.45,241.7,123.75,123.75,0,0,0,241.7,118"/><path class="cls-1" d="M241.7,150.27a91.43,91.43,0,1,1-91.43,91.43,91.53,91.53,0,0,1,91.43-91.43m0-7.57a99,99,0,1,0,99,99,99,99,0,0,0-99-99"/><path class="cls-1" d="M241.7,168.56a73.14,73.14,0,1,1-73.14,73.14,73.22,73.22,0,0,1,73.14-73.14m0-6.06a79.2,79.2,0,1,0,79.2,79.2,79.2,79.2,0,0,0-79.2-79.2"/><path class="cls-1" d="M241.7,183.19a58.51,58.51,0,1,1-58.51,58.51,58.58,58.58,0,0,1,58.51-58.51m0-4.85a63.36,63.36,0,1,0,63.36,63.36,63.36,63.36,0,0,0-63.36-63.36"/><path class="cls-1" d="M241.7,194.89a46.81,46.81,0,1,1-46.81,46.81,46.86,46.86,0,0,1,46.81-46.81m0-3.88a50.69,50.69,0,1,0,50.69,50.69A50.69,50.69,0,0,0,241.7,191"/><path class="cls-1" d="M241.7,204.25a37.45,37.45,0,1,1-37.45,37.45,37.49,37.49,0,0,1,37.45-37.45m0-3.1a40.55,40.55,0,1,0,40.55,40.55,40.55,40.55,0,0,0-40.55-40.55"/><path class="cls-1" d="M241.7,211.74a30,30,0,1,1-30,30,30,30,0,0,1,30-30m0-2.48a32.44,32.44,0,1,0,32.44,32.44,32.44,32.44,0,0,0-32.44-32.44"/><path class="cls-1" d="M241.7,217.73a24,24,0,1,1-24,24,24,24,0,0,1,24-24m0-2a26,26,0,1,0,26,26,26,26,0,0,0-26-26"/><path class="cls-1" d="M241.7,222.53a19.18,19.18,0,1,1-19.17,19.18,19.19,19.19,0,0,1,19.17-19.18m0-1.59a20.76,20.76,0,1,0,20.76,20.76,20.76,20.76,0,0,0-20.76-20.76"/><path class="cls-1" d="M241.7,226.36a15.34,15.34,0,1,1-15.34,15.34,15.36,15.36,0,0,1,15.34-15.34m0-1.27a16.61,16.61,0,1,0,16.61,16.61,16.61,16.61,0,0,0-16.61-16.61"/><path class="cls-1" d="M241.7,229.43a12.27,12.27,0,1,1-12.27,12.27,12.29,12.29,0,0,1,12.27-12.27m0-1A13.29,13.29,0,1,0,255,241.7a13.29,13.29,0,0,0-13.29-13.29"/><path class="cls-1" d="M241.7,231.89a9.82,9.82,0,1,1-9.82,9.81,9.83,9.83,0,0,1,9.82-9.81m0-.81a10.63,10.63,0,1,0,10.63,10.63,10.63,10.63,0,0,0-10.63-10.63"/></g></g></svg>