<svg xmlns="http://www.w3.org/2000/svg" viewBox="0 0 300 300"><title>icone-loppure-75</title><g id="Social"><path d="M114.11,165.88h37.6a47.79,47.79,0,1,1-13-51.25,5.18,5.18,0,0,0,7,0l13.81-13a5.16,5.16,0,0,0,0-7.51A76.7,76.7,0,0,0,108.2,73C65.76,72.2,30,107,29.68,149.45a77,77,0,0,0,153.84,4.88c.06-.51.1-17.67.1-17.67H114.11a5.16,5.16,0,0,0-5.16,5.16v18.9A5.16,5.16,0,0,0,114.11,165.88Z"/><path d="M247.33,138.38V119.91a4.52,4.52,0,0,0-4.52-4.52H227.26a4.52,4.52,0,0,0-4.52,4.52v18.47H204.27a4.52,4.52,0,0,0-4.52,4.52v15.55a4.52,4.52,0,0,0,4.52,4.52h18.47v18.47a4.52,4.52,0,0,0,4.52,4.52h15.55a4.52,4.52,0,0,0,4.52-4.52V163H265.8a4.52,4.52,0,0,0,4.52-4.52V142.9a4.52,4.52,0,0,0-4.52-4.52Z"/></g></svg>