<svg xmlns="http://www.w3.org/2000/svg" viewBox="0 0 300 300"><defs><style>.cls-1{fill:#fff;}</style></defs><title>icone-loppure-75</title><g id="Social"><g id="_Gruppo_" data-name="&lt;Gruppo&gt;"><path id="_Tracciato_composto_" data-name="&lt;Tracciato composto&gt;" class="cls-1" d="M198.7,29.67H101.3a71.87,71.87,0,0,0-71.79,71.79v97.4a71.87,71.87,0,0,0,71.79,71.79h97.4a71.87,71.87,0,0,0,71.79-71.79v-97.4A71.87,71.87,0,0,0,198.7,29.67Zm47.54,169.18A47.55,47.55,0,0,1,198.7,246.4H101.3a47.55,47.55,0,0,1-47.54-47.54v-97.4A47.54,47.54,0,0,1,101.3,53.91h97.4a47.54,47.54,0,0,1,47.54,47.54v97.4Z"/><path id="_Tracciato_composto_2" data-name="&lt;Tracciato composto&gt;" class="cls-1" d="M150,87.83a62.32,62.32,0,1,0,62.32,62.32A62.39,62.39,0,0,0,150,87.83Zm0,100.41a38.08,38.08,0,1,1,38.08-38.08A38.08,38.08,0,0,1,150,188.23Z"/><circle id="_Tracciato_" data-name="&lt;Tracciato&gt;" class="cls-1" cx="212.44" cy="88.3" r="14.93"/></g></g></svg>