<svg xmlns="http://www.w3.org/2000/svg" viewBox="0 0 300 300"><defs><style>.cls-1{fill:#fff;}</style></defs><title>icone-loppure-75</title><g id="Social"><path class="cls-1" d="M270.3,176.5v90.19H218V182.55c0-21.13-7.55-35.56-26.48-35.56-14.45,0-23,9.71-26.82,19.12-1.38,3.36-1.73,8-1.73,12.74v87.83H110.69s.7-142.51,0-157.26H163v22.29c-.11.18-.25.35-.35.51H163v-.51c6.95-10.69,19.34-26,47.13-26,34.4,0,60.19,22.48,60.19,70.77ZM56,33.61C38.1,33.61,26.4,45.36,26.4,60.78,26.4,75.88,37.76,88,55.3,88h.34c18.24,0,29.58-12.08,29.58-27.18C84.87,45.36,73.88,33.61,56,33.61ZM29.5,266.69H81.78V109.42H29.5Z"/></g></svg>