<svg xmlns="http://www.w3.org/2000/svg" viewBox="0 0 300 300"><defs><style>.cls-1{fill:#40484c;}</style></defs><title>icone-loppure-75</title><g id="Social"><path class="cls-1" d="M248.08,244.64a20.41,20.41,0,0,0,14-5.27L194.4,171.7l-4.68,3.37q-7.6,5.6-12.33,8.73a76,76,0,0,1-12.59,6.4,38.38,38.38,0,0,1-14.66,3.26h-.27a38.37,38.37,0,0,1-14.66-3.26,75.72,75.72,0,0,1-12.59-6.4q-4.73-3.13-12.33-8.73c-1.41-1-3-2.17-4.67-3.39L37.94,239.37a20.42,20.42,0,0,0,14,5.27Z"/><path class="cls-1" d="M44.05,129.1a70.66,70.66,0,0,1-13.46-11.6V220.44l59.64-59.64Q72.33,148.31,44.05,129.1Z"/><path class="cls-1" d="M256.08,129.1q-27.23,18.43-46.29,31.74l59.61,59.61V117.5A73.55,73.55,0,0,1,256.08,129.1Z"/><path class="cls-1" d="M248.08,57H51.92q-10.27,0-15.79,6.93T30.59,81.25q0,8.39,7.33,18.19a66.12,66.12,0,0,0,15.59,15.39q4.53,3.2,27.32,19c8.2,5.68,15.34,10.64,21.46,14.91,5.22,3.64,9.73,6.79,13.45,9.41l2,1.42,3.68,2.65q4.33,3.13,7.2,5.07t6.93,4.33a40.43,40.43,0,0,0,7.66,3.6,21.21,21.21,0,0,0,6.66,1.2h.27a21.21,21.21,0,0,0,6.66-1.2,40.34,40.34,0,0,0,7.66-3.6q4.06-2.4,6.93-4.33t7.2-5.07l3.67-2.65,2-1.42,13.49-9.37,48.88-33.94a63.39,63.39,0,0,0,16.26-16.39,35.26,35.26,0,0,0,6.53-20.12A21.5,21.5,0,0,0,248.08,57Z"/></g></svg>