<svg xmlns="http://www.w3.org/2000/svg" viewBox="0 0 300 300"><defs><style>.cls-1{fill:#fff;}</style></defs><title>icone-loppure-75</title><g id="Social"><path class="cls-1" d="M254.84,56.71,34.45,142.6a8,8,0,0,0,.64,15.2l56,16.54L112,240.65a9.62,9.62,0,0,0,16,3.84l29-29.56,56.81,41.7a11.86,11.86,0,0,0,18.62-7.13L270.05,69.6A11.34,11.34,0,0,0,254.84,56.71ZM227.21,96.64,124.84,187.16a5.5,5.5,0,0,0-1.82,3.51l-3.94,35a1.06,1.06,0,0,1-2.07.2l-16.22-52.25a5.5,5.5,0,0,1,2.35-6.3L224,92.37A2.67,2.67,0,0,1,227.21,96.64Z"/></g></svg>