<svg xmlns="http://www.w3.org/2000/svg" viewBox="0 0 300 300"><title>icone-loppure-75</title><g id="Social"><path d="M270,75.36a98.73,98.73,0,0,1-28.36,7.77,49.53,49.53,0,0,0,21.71-27.32A98.85,98.85,0,0,1,232,67.8a49.42,49.42,0,0,0-84.14,45A140.18,140.18,0,0,1,46.09,61.24a49.43,49.43,0,0,0,15.28,65.92A49.17,49.17,0,0,1,39,121c0,.21,0,.41,0,.62A49.41,49.41,0,0,0,78.61,170a49.43,49.43,0,0,1-22.3.85,49.43,49.43,0,0,0,46.12,34.29,99.69,99.69,0,0,1-73.1,20.45A139.74,139.74,0,0,0,105,247.79c90.82,0,140.48-75.24,140.48-140.49q0-3.21-.14-6.39A100.31,100.31,0,0,0,270,75.36Z"/></g></svg>