<svg xmlns="http://www.w3.org/2000/svg" viewBox="0 0 300 300"><defs><style>.cls-1{fill:#fff;}</style></defs><title>icone-loppure-75</title><g id="Social"><path class="cls-1" d="M144.17,29.81c-63.51,3-113.63,55.92-113.44,119.5a118.75,118.75,0,0,0,13,53.8L31,264.57A4.64,4.64,0,0,0,36.66,270l60.23-14.27a118.71,118.71,0,0,0,51.25,12.44c64.92,1,119-50.55,121.07-115.45A119.28,119.28,0,0,0,144.17,29.81ZM216,215a93.45,93.45,0,0,1-107.6,17.61L100,228.41l-36.93,8.75,7.77-37.73-4.13-8.09A93.47,93.47,0,0,1,84,82.9,93.39,93.39,0,1,1,216,215Z"/><path class="cls-1" d="M207.89,174.81l-23.1-6.63a8.61,8.61,0,0,0-8.52,2.24l-5.65,5.76a8.42,8.42,0,0,1-9.15,1.93c-10.93-4.42-33.92-24.86-39.79-35.09a8.42,8.42,0,0,1,.67-9.33l4.93-6.38a8.61,8.61,0,0,0,1.06-8.75l-9.72-22a8.62,8.62,0,0,0-13.45-3.08c-6.45,5.45-14.1,13.74-15,22.92-1.64,16.19,5.3,36.59,31.55,61.09,30.33,28.31,54.61,32,70.43,28.22,9-2.17,16.14-10.88,20.66-18A8.62,8.62,0,0,0,207.89,174.81Z"/></g></svg>