<svg id="Livello_1" data-name="Livello 1" xmlns="http://www.w3.org/2000/svg" viewBox="0 0 851 286"><defs><style>.cls-1{fill:#bacfd8;}.cls-2,.cls-4{fill:#c6d7df;}.cls-3{fill:#5f9eb1;}.cls-11,.cls-4,.cls-9{stroke:#5f9eb1;stroke-miterlimit:10;}.cls-5{fill:#e3ebef;}.cls-6,.cls-9{fill:#a6c3cf;}.cls-7{fill:#1d1d1b;}.cls-8{fill:#cbdae2;}.cls-10{fill:#85b1c0;}.cls-11{fill:#f4f7f9;}.cls-12{fill:#3f484c;}</style></defs><title>loppure-raccontiamo-promozione</title><g id="_Gruppo_" data-name="&lt;Gruppo&gt;"><polygon id="_Tracciato_" data-name="&lt;Tracciato&gt;" class="cls-1" points="299.36 123.07 299.36 108.1 299.36 100.77 307.13 99.5 319.31 98.61 331.25 98.61 345.53 100.66 353.06 103 356.57 104.78 345.64 109.76 330.65 115.61 314.56 120.12 305.92 122.37 299.36 123.07"/><g id="_Gruppo_2" data-name="&lt;Gruppo&gt;"><path id="_Tracciato_2" data-name="&lt;Tracciato&gt;" class="cls-2" d="M204.83,104.79v19.64s-.67-8.77-6.91-11.6c0,0-.14,8.85,6.91,11.6v46h-4.2l-.38-.05a85.85,85.85,0,0,0-3.36-25.46c.56-.49,6.6-6,4.13-12.79,0,0-5.63,5.75-4.39,12-3.15-9.85-9-19.64-19.84-23.67a33.3,33.3,0,0,1,8.93-9.55A32.82,32.82,0,0,1,204.83,104.79Z"/><path id="_Tracciato_composto_" data-name="&lt;Tracciato composto&gt;" class="cls-3" d="M205.22,170.82l-4.83,0-.21,0-.34-.06v-.35A85.54,85.54,0,0,0,196.51,145l-.08-.25.19-.17c.26-.22,6-5.34,4.23-11.72C199.57,134.4,196,139.1,197,144l-.76.2c-3.89-12.15-10.48-20-19.6-23.42l-.45-.17.25-.41a33.5,33.5,0,0,1,9-9.66,33.15,33.15,0,0,1,19.33-6.17h.39Zm-4.57-.79h3.78V124.69c-7-2.93-6.92-11.78-6.91-11.87v-.6l.55.25c3.68,1.66,5.49,5.25,6.36,8.06V105.18a32.37,32.37,0,0,0-18.48,6,32.72,32.72,0,0,0-8.57,9c8.45,3.3,14.73,10.39,18.71,21.1.44-5.13,4.44-9.28,4.64-9.48l.44-.45.21.59c2.38,6.58-2.94,12-4.05,13A86.71,86.71,0,0,1,200.65,170Zm-2.32-56.55c.13,2,1,7.91,6,10.31C204.06,121.81,202.83,115.94,198.33,113.48Z"/></g><path id="_Tracciato_composto_2" data-name="&lt;Tracciato composto&gt;" class="cls-4" d="M196.89,144.91l0,0a8.42,8.42,0,0,1-.21-.86c-3.15-9.85-9-19.64-19.84-23.67a33,33,0,0,0,8.93,44.15h0a32.75,32.75,0,0,0,14.53,5.78A85.85,85.85,0,0,0,196.89,144.91Zm-18.54-17.26c6.68-1.5,12.48,5.12,12.48,5.12C183.53,134.81,178.34,127.65,178.34,127.65ZM189.58,149c6.73,1.27,9.45,9.64,9.45,9.64C191.52,157.59,189.58,149,189.58,149Z"/><path id="_Tracciato_3" data-name="&lt;Tracciato&gt;" class="cls-3" d="M196.65,145.69l-.18-.62a8.78,8.78,0,0,1-.22-.9l.76-.2c.1.28.19.56.26.84l.06.22Z"/><path id="_Tracciato_4" data-name="&lt;Tracciato&gt;" class="cls-3" d="M204.83,171.08a34.24,34.24,0,0,1-4.25-.27l0-.79h8.3l.05.79c-.87.11-1.76.19-2.72.24C205.79,171.07,205.31,171.08,204.83,171.08Z"/><rect id="_Tracciato_5" data-name="&lt;Tracciato&gt;" class="cls-3" x="204.43" y="170.42" width="0.79" height="0.26"/><path id="_Tracciato_composto_3" data-name="&lt;Tracciato composto&gt;" class="cls-4" d="M235,124.43a32.09,32.09,0,0,0-2.19-4.13h0C207.16,129.45,209,170.42,209,170.42a32.82,32.82,0,0,0,20.89-11.26,32.09,32.09,0,0,0,3.77-5.42A33,33,0,0,0,235,124.43Zm-25.29,34.17s2.72-8.37,9.45-9.64C219.14,149,217.2,157.59,209.69,158.59Zm8.2-25.83s5.8-6.62,12.48-5.12C230.38,127.65,225.19,134.81,217.89,132.77Z"/><g id="_Gruppo_3" data-name="&lt;Gruppo&gt;"><path id="_Tracciato_6" data-name="&lt;Tracciato&gt;" class="cls-5" d="M262.62,153.67v26.88H229.85V159.16a32.09,32.09,0,0,0,3.77-5.42Z"/><path id="_Tracciato_composto_4" data-name="&lt;Tracciato composto&gt;" class="cls-3" d="M263,180.95H229.45V159l.1-.11a31.68,31.68,0,0,0,3.73-5.36l.11-.2,29.63-.08Zm-32.77-.79h32V154.06l-28.37.07a32.47,32.47,0,0,1-3.61,5.17Z"/></g><g id="_Gruppo_4" data-name="&lt;Gruppo&gt;"><path id="_Tracciato_7" data-name="&lt;Tracciato&gt;" class="cls-5" d="M262.62,115.38v9H235a32.09,32.09,0,0,0-2.19-4.13h.05c1.06-.07,14.73-1,22-2.42a23.26,23.26,0,0,0,3-.75C259.62,116.52,261.19,115.94,262.62,115.38Z"/><path id="_Tracciato_composto_5" data-name="&lt;Tracciato composto&gt;" class="cls-3" d="M263,124.82h-28.3l-.1-.24a31.69,31.69,0,0,0-2.16-4.08l-.38-.61h.86c3.47-.24,15.3-1.12,21.83-2.41a22.8,22.8,0,0,0,3-.74c1.66-.57,3.26-1.16,4.74-1.74l.54-.21ZM235.23,124h27V116c-1.34.52-2.76,1-4.23,1.54a23.46,23.46,0,0,1-3.08.76c-6.3,1.24-17.46,2.1-21.45,2.38A32.82,32.82,0,0,1,235.23,124Z"/></g><path id="_Tracciato_8" data-name="&lt;Tracciato&gt;" class="cls-3" d="M356.79,105.14c-14.7-7.68-39.4-7.53-57.36-4l-.15-.77c16.77-3.32,42-4.25,57.87,4.05Z"/><path id="_Tracciato_9" data-name="&lt;Tracciato&gt;" class="cls-3" d="M176.63,120.79l-.32-.12.25-.75.4.15Z"/><g id="_Gruppo_5" data-name="&lt;Gruppo&gt;"><path id="_Tracciato_10" data-name="&lt;Tracciato&gt;" class="cls-3" d="M208.93,170.42v44.75h-8.68V170.42h.38a34.28,34.28,0,0,0,4.2.26c.48,0,1,0,1.42,0C207.15,170.61,208,170.54,208.93,170.42Z"/><path id="_Tracciato_composto_6" data-name="&lt;Tracciato composto&gt;" class="cls-3" d="M209.32,215.57h-9.47V170h.78a33.81,33.81,0,0,0,5.6.23c.94,0,1.81-.12,2.65-.23l.45-.06Zm-8.68-.79h7.89V170.87c-.73.08-1.47.14-2.27.18a33.66,33.66,0,0,1-5.62-.23Z"/></g><path id="_Tracciato_11" data-name="&lt;Tracciato&gt;" class="cls-3" d="M204.83,171.08a34.24,34.24,0,0,1-4.25-.27l0-.79h8.3l.05.79c-.87.11-1.76.19-2.72.24C205.79,171.07,205.31,171.08,204.83,171.08Z"/><g id="_Gruppo_6" data-name="&lt;Gruppo&gt;"><path id="_Tracciato_12" data-name="&lt;Tracciato&gt;" class="cls-3" d="M199,158.59c-7.52-1-9.45-9.64-9.45-9.64C196.32,150.22,199,158.59,199,158.59Z"/><path id="_Tracciato_composto_7" data-name="&lt;Tracciato composto&gt;" class="cls-3" d="M199.6,159.07,199,159c-7.7-1-9.76-9.86-9.78-9.95l-.13-.59.59.11c6.89,1.3,9.64,9.56,9.75,9.91Zm-9.46-9.58c.59,1.88,2.78,7.47,8.28,8.61C197.67,156.23,195.09,150.81,190.14,149.48Z"/></g><g id="_Gruppo_7" data-name="&lt;Gruppo&gt;"><path id="_Tracciato_13" data-name="&lt;Tracciato&gt;" class="cls-3" d="M190.83,132.77c-7.29,2-12.48-5.12-12.48-5.12C185,126.15,190.83,132.77,190.83,132.77Z"/><path id="_Tracciato_composto_8" data-name="&lt;Tracciato composto&gt;" class="cls-3" d="M188.23,133.53c-6,0-10.16-5.58-10.2-5.64l-.35-.49.59-.13c6.83-1.53,12.62,5,12.87,5.24l.41.47-.6.17A10,10,0,0,1,188.23,133.53Zm-9.16-5.61c1.28,1.49,5.49,5.76,11,4.63C188.65,131.14,184.13,127.18,179.07,127.92Z"/></g><g id="_Gruppo_8" data-name="&lt;Gruppo&gt;"><path id="_Tracciato_14" data-name="&lt;Tracciato&gt;" class="cls-3" d="M196.89,144.91c-.07-.27-.16-.54-.25-.81-1.25-6.23,4.39-12,4.39-12C203.48,138.92,197.45,144.43,196.89,144.91Z"/><path id="_Tracciato_composto_9" data-name="&lt;Tracciato composto&gt;" class="cls-3" d="M196.67,145.62l-.16-.61c-.07-.27-.15-.52-.25-.79-1.29-6.41,4.24-12.14,4.48-12.38l.44-.45.21.59c2.6,7.18-4,13-4.25,13.22Zm4.19-12.73C199.57,134.4,196,139.1,197,144l.06.17C198.46,142.82,202.4,138.31,200.86,132.9Z"/></g><path id="_Tracciato_15" data-name="&lt;Tracciato&gt;" class="cls-3" d="M196.65,145.69l-.18-.62a8.78,8.78,0,0,1-.22-.9l.76-.2c.1.28.19.56.26.84l.06.22Z"/><g id="_Gruppo_9" data-name="&lt;Gruppo&gt;"><path id="_Tracciato_16" data-name="&lt;Tracciato&gt;" class="cls-3" d="M219.14,149s-1.93,8.64-9.45,9.64C209.69,158.59,212.41,150.22,219.14,149Z"/><path id="_Tracciato_composto_10" data-name="&lt;Tracciato composto&gt;" class="cls-3" d="M209.12,159.07l.19-.6c.11-.35,2.87-8.61,9.75-9.91l.59-.11-.13.59c0,.09-2.08,8.92-9.78,9.95Zm9.46-9.58c-4.95,1.33-7.53,6.75-8.28,8.61C215.81,157,218,151.37,218.58,149.48Z"/></g><g id="_Gruppo_10" data-name="&lt;Gruppo&gt;"><path id="_Tracciato_17" data-name="&lt;Tracciato&gt;" class="cls-3" d="M230.38,127.65s-5.19,7.16-12.48,5.12C217.89,132.77,223.7,126.15,230.38,127.65Z"/><path id="_Tracciato_composto_11" data-name="&lt;Tracciato composto&gt;" class="cls-3" d="M220.49,133.53a10,10,0,0,1-2.71-.38l-.6-.17.41-.47c.24-.28,6-6.77,12.87-5.24l.59.13-.35.49C230.65,127.95,226.52,133.53,220.49,133.53Zm-1.84-1c5.51,1.13,9.72-3.13,11-4.63C224.58,127.18,220.07,131.14,218.65,132.55Z"/></g><g id="_Gruppo_11" data-name="&lt;Gruppo&gt;"><path id="_Tracciato_18" data-name="&lt;Tracciato&gt;" class="cls-3" d="M211.74,112.83s.15,8.85-6.91,11.6C204.83,124.43,205.5,115.65,211.74,112.83Z"/><path id="_Tracciato_composto_12" data-name="&lt;Tracciato composto&gt;" class="cls-3" d="M204.38,125l0-.63c0-.37.77-9,7.14-11.93l.55-.25v.6c0,.09.07,9.16-7.17,12Zm6.94-11.54c-4.5,2.46-5.73,8.33-6,10.31C210.39,121.39,211.19,115.45,211.32,113.48Z"/></g><g id="_Gruppo_12" data-name="&lt;Gruppo&gt;"><path id="_Tracciato_19" data-name="&lt;Tracciato&gt;" class="cls-3" d="M204.83,124.43c-7.05-2.75-6.91-11.6-6.91-11.6C204.16,115.65,204.83,124.43,204.83,124.43Z"/><path id="_Tracciato_composto_13" data-name="&lt;Tracciato composto&gt;" class="cls-3" d="M205.27,125l-.58-.23c-7.22-2.82-7.17-11.88-7.17-12v-.6l.55.25c6.39,2.89,7.12,11.56,7.14,11.93Zm-6.94-11.54c.13,2,1,7.91,6,10.31C204.06,121.81,202.83,115.94,198.33,113.48Z"/></g><path id="_Tracciato_20" data-name="&lt;Tracciato&gt;" class="cls-3" d="M640.31,122.25l-.32-.12.25-.75.4.15Z"/><path id="_Tracciato_composto_14" data-name="&lt;Tracciato composto&gt;" class="cls-4" d="M232.78,120.29a33,33,0,0,0-21-14.78h0a33.14,33.14,0,0,0-6.91-.73v19.64s.68-8.77,6.91-11.6c0,0,.15,8.85-6.91,11.6v46h4.1a0,0,0,0,0,0,0S207.16,129.45,232.78,120.29ZM211.88,145s-6.76-5.71-4.18-12.83C207.7,132.12,213.86,138.41,211.88,145Z"/><g id="_Gruppo_13" data-name="&lt;Gruppo&gt;"><path id="_Tracciato_21" data-name="&lt;Tracciato&gt;" class="cls-3" d="M211.88,145s-6.76-5.71-4.18-12.83C207.7,132.12,213.86,138.41,211.88,145Z"/><path id="_Tracciato_composto_15" data-name="&lt;Tracciato composto&gt;" class="cls-3" d="M212.08,145.64l-.46-.39c-.07-.06-6.93-6-4.29-13.27l.21-.59.44.45c.26.26,6.3,6.53,4.27,13.22Zm-4.22-12.75c-1.54,5.4,2.4,9.93,3.8,11.32C212.78,139.22,209.16,134.42,207.86,132.9Z"/></g><g id="_Gruppo_14" data-name="&lt;Gruppo&gt;"><polygon id="_Tracciato_22" data-name="&lt;Tracciato&gt;" class="cls-5" points="254.84 98.39 254.84 106.27 232.84 105.89 232.84 88.15 254.84 98.39"/><path id="_Tracciato_composto_16" data-name="&lt;Tracciato composto&gt;" class="cls-3" d="M255.23,106.67l-22.79-.39V87.53l22.79,10.61Zm-22-1.17,21.21.37V98.64l-21.21-9.88Z"/></g><g id="_Gruppo_15" data-name="&lt;Gruppo&gt;"><path id="_Tracciato_23" data-name="&lt;Tracciato&gt;" class="cls-5" d="M232.84,88.15l-21.1-.47V76.35C219.72,78,227.73,81.43,232.84,88.15Z"/><path id="_Tracciato_composto_17" data-name="&lt;Tracciato composto&gt;" class="cls-3" d="M233.65,88.56l-22.31-.49V75.86l.48.1c9.66,2,16.83,6,21.33,11.94Zm-21.52-1.26,19.88.44c-4.33-5.31-11-9-19.88-10.9Z"/></g><g id="_Gruppo_16" data-name="&lt;Gruppo&gt;"><path id="_Tracciato_24" data-name="&lt;Tracciato&gt;" class="cls-5" d="M211.74,76.35V87.68l-26-.58V75.63A82.74,82.74,0,0,1,211.74,76.35Z"/><path id="_Tracciato_composto_18" data-name="&lt;Tracciato composto&gt;" class="cls-3" d="M212.13,88.08l-26.81-.6V75.29l.33-.05a83.85,83.85,0,0,1,26.16.72l.31.07Zm-26-1.37,25.23.56V76.67a83.26,83.26,0,0,0-25.23-.7Z"/></g><g id="_Gruppo_17" data-name="&lt;Gruppo&gt;"><path id="_Tracciato_25" data-name="&lt;Tracciato&gt;" class="cls-5" d="M211.74,87.68v17.83a33,33,0,0,0-26,5.37V87.1Z"/><path id="_Tracciato_composto_19" data-name="&lt;Tracciato composto&gt;" class="cls-3" d="M185.33,111.65v-25l26.81.6V106l-.48-.1a32.78,32.78,0,0,0-6.83-.72,32.37,32.37,0,0,0-18.87,6Zm.79-24.15v22.63a33.14,33.14,0,0,1,18.71-5.74,33.61,33.61,0,0,1,6.52.64v-17Z"/></g><polygon id="_Tracciato_26" data-name="&lt;Tracciato&gt;" class="cls-3" points="185.33 110.91 185.33 110.89 186.12 110.89 185.33 110.91"/><rect id="_Tracciato_27" data-name="&lt;Tracciato&gt;" class="cls-3" x="274.25" y="105.14" width="0.79" height="4.96" transform="translate(61.12 311.14) rotate(-65.02)"/><g id="_Gruppo_18" data-name="&lt;Gruppo&gt;"><path id="_Tracciato_28" data-name="&lt;Tracciato&gt;" class="cls-5" d="M407.41,176v4.52h-23V118.07l-25.55.22V104.45c28.88-9.33,48.59.26,48.59.26V131h-1.24v4.89H407Z"/><path id="_Tracciato_composto_20" data-name="&lt;Tracciato composto&gt;" class="cls-3" d="M407.8,180.95H384V118.47l-25.55.22V104.16l.27-.09c28.7-9.28,48.68.18,48.88.28l.22.11v26.93h-1.24v4.1h.86L407.8,176Zm-23-.79H407V176l-.37-39.75h-.87V130.6H407V105c-2.24-1-21.18-8.73-47.8-.23V117.9l25.55-.22Z"/></g><g id="_Gruppo_19" data-name="&lt;Gruppo&gt;"><polygon id="_Tracciato_29" data-name="&lt;Tracciato&gt;" class="cls-5" points="358.82 164.77 358.82 180.55 333.63 180.55 333.63 164.87 358.82 164.77"/><path id="_Tracciato_composto_21" data-name="&lt;Tracciato composto&gt;" class="cls-3" d="M359.22,180.95h-26V164.48l26-.11ZM334,180.16h24.4v-15l-24.4.1Z"/></g><polygon id="_Tracciato_30" data-name="&lt;Tracciato&gt;" class="cls-3" points="407.45 180.95 407.41 180.95 407.41 180.16 407.45 180.95"/><g id="_Gruppo_20" data-name="&lt;Gruppo&gt;"><path id="_Tracciato_31" data-name="&lt;Tracciato&gt;" class="cls-5" d="M333.63,118.52v23H279V124.43a137.38,137.38,0,0,0,20.35-1.5,181.37,181.37,0,0,0,21.22-4.29Z"/><path id="_Tracciato_composto_22" data-name="&lt;Tracciato composto&gt;" class="cls-3" d="M334,141.9H278.61V124H279a138.35,138.35,0,0,0,20.29-1.5,181.13,181.13,0,0,0,21.17-4.28h.1l13.45-.12Zm-54.62-.79h53.83v-22.2l-12.61.11a181.91,181.91,0,0,1-21.21,4.29,145.48,145.48,0,0,1-20,1.51Z"/></g><g id="_Gruppo_21" data-name="&lt;Gruppo&gt;"><path id="_Tracciato_32" data-name="&lt;Tracciato&gt;" class="cls-5" d="M358.82,104.45V118.3l-25.19.22-13.06.12a163.58,163.58,0,0,0,26.88-9.7A99.25,99.25,0,0,1,358.82,104.45Z"/><path id="_Tracciato_composto_23" data-name="&lt;Tracciato composto&gt;" class="cls-3" d="M317.46,119.06l3-.8a163.22,163.22,0,0,0,26.82-9.68,99.91,99.91,0,0,1,11.41-4.5l.52-.17v14.78Zm41-14.07a99.83,99.83,0,0,0-10.8,4.3,163,163,0,0,1-24,8.93l34.84-.31Z"/></g><rect id="_Tracciato_33" data-name="&lt;Tracciato&gt;" class="cls-3" x="209.69" y="180.16" width="3.77" height="0.79"/><g id="_Gruppo_22" data-name="&lt;Gruppo&gt;"><polygon id="_Tracciato_34" data-name="&lt;Tracciato&gt;" class="cls-2" points="407.41 212.39 407.41 215.17 208.93 215.17 208.93 206.72 313.18 206.72 313.18 209.62 308.57 209.62 308.57 212.39 407.41 212.39"/><path id="_Tracciato_composto_24" data-name="&lt;Tracciato composto&gt;" class="cls-3" d="M407.8,215.57H208.53v-9.25h105V210H309v2H407.8Zm-198.48-.79H407v-2H308.18v-3.56h4.61v-2.12H209.32Z"/></g><g id="_Gruppo_23" data-name="&lt;Gruppo&gt;"><rect id="_Tracciato_35" data-name="&lt;Tracciato&gt;" class="cls-2" x="313.18" y="206.72" width="94.22" height="2.91"/><path id="_Tracciato_composto_25" data-name="&lt;Tracciato composto&gt;" class="cls-3" d="M407.8,210h-95v-3.7h95Zm-94.22-.79H407v-2.12H313.58Z"/></g><g id="_Gruppo_24" data-name="&lt;Gruppo&gt;"><rect id="_Tracciato_36" data-name="&lt;Tracciato&gt;" class="cls-2" x="308.57" y="209.62" width="98.83" height="2.77"/><path id="_Tracciato_composto_26" data-name="&lt;Tracciato composto&gt;" class="cls-3" d="M407.8,212.79H308.18v-3.56H407.8ZM309,212h98v-2H309Z"/></g><polygon id="_Tracciato_37" data-name="&lt;Tracciato&gt;" class="cls-3" points="407.84 215.57 407.06 215.57 407.01 215.17 407.01 206.32 407.8 206.32 407.84 206.72 407.84 215.57"/><g id="_Gruppo_25" data-name="&lt;Gruppo&gt;"><rect id="_Tracciato_38" data-name="&lt;Tracciato&gt;" class="cls-6" x="295.39" y="180.55" width="16.39" height="26.16"/><path id="_Tracciato_composto_27" data-name="&lt;Tracciato composto&gt;" class="cls-3" d="M312.17,207.11H295v-27h17.18Zm-16.39-.79h15.6V180.95h-15.6Z"/></g><g id="_Gruppo_26" data-name="&lt;Gruppo&gt;"><rect id="_Tracciato_39" data-name="&lt;Tracciato&gt;" class="cls-6" x="279.01" y="180.55" width="16.39" height="26.16"/><path id="_Tracciato_composto_28" data-name="&lt;Tracciato composto&gt;" class="cls-3" d="M295.79,207.11H278.61v-27h17.18Zm-16.39-.79H295V180.95H279.4Z"/></g><g id="_Gruppo_27" data-name="&lt;Gruppo&gt;"><rect id="_Tracciato_40" data-name="&lt;Tracciato&gt;" class="cls-6" x="262.62" y="180.55" width="16.39" height="26.16"/><path id="_Tracciato_composto_29" data-name="&lt;Tracciato composto&gt;" class="cls-3" d="M279.4,207.11H262.23v-27H279.4ZM263,206.32h15.6V180.95H263Z"/></g><g id="_Gruppo_28" data-name="&lt;Gruppo&gt;"><rect id="_Tracciato_41" data-name="&lt;Tracciato&gt;" class="cls-6" x="246.23" y="180.55" width="16.39" height="26.16"/><path id="_Tracciato_composto_30" data-name="&lt;Tracciato composto&gt;" class="cls-3" d="M263,207.11H245.84v-27H263Zm-16.39-.79h15.6V180.95h-15.6Z"/></g><g id="_Gruppo_29" data-name="&lt;Gruppo&gt;"><rect id="_Tracciato_42" data-name="&lt;Tracciato&gt;" class="cls-6" x="229.85" y="180.55" width="16.39" height="26.16"/><path id="_Tracciato_composto_31" data-name="&lt;Tracciato composto&gt;" class="cls-3" d="M246.63,207.11H229.45v-27h17.18Zm-16.39-.79h15.6V180.95h-15.6Z"/></g><g id="_Gruppo_30" data-name="&lt;Gruppo&gt;"><path id="_Tracciato_43" data-name="&lt;Tracciato&gt;" class="cls-5" d="M229.85,159.16v21.39H213.46v26.16h-4.54V170.42a0,0,0,0,0,0,0A32.82,32.82,0,0,0,229.85,159.16Z"/><path id="_Tracciato_composto_32" data-name="&lt;Tracciato composto&gt;" class="cls-3" d="M213.86,207.11h-5.32V169.45l.54.57a32.37,32.37,0,0,0,20.47-11.1l.69-.81v22.85H213.86Zm-4.54-.79h3.75V180.16h16.39V160.21a33.14,33.14,0,0,1-20.13,10.57Z"/></g><g id="_Gruppo_31" data-name="&lt;Gruppo&gt;"><rect id="_Tracciato_44" data-name="&lt;Tracciato&gt;" class="cls-6" x="213.46" y="180.55" width="16.39" height="26.16"/><path id="_Tracciato_composto_33" data-name="&lt;Tracciato composto&gt;" class="cls-3" d="M230.24,207.11H213.07v-27h17.18Zm-16.39-.79h15.6V180.95h-15.6Z"/></g><g id="_Gruppo_32" data-name="&lt;Gruppo&gt;"><polygon id="_Tracciato_45" data-name="&lt;Tracciato&gt;" class="cls-5" points="407.41 189.55 407.41 206.72 384.37 206.72 384.37 197.24 407.41 189.55"/><path id="_Tracciato_composto_34" data-name="&lt;Tracciato composto&gt;" class="cls-3" d="M407.8,207.11H384V197l23.82-8Zm-23-.79H407V190.1l-22.25,7.43Z"/></g><polygon id="_Tracciato_46" data-name="&lt;Tracciato&gt;" class="cls-3" points="407.5 189.93 407.32 189.16 407.54 189.92 407.5 189.93"/><rect id="_Tracciato_47" data-name="&lt;Tracciato&gt;" class="cls-7" x="407.06" y="203.75" width="0.79" height="1.87"/><g id="_Gruppo_33" data-name="&lt;Gruppo&gt;"><rect id="_Tracciato_48" data-name="&lt;Tracciato&gt;" class="cls-3" x="326.58" y="187.77" width="1.46" height="18.94"/><path id="_Tracciato_composto_35" data-name="&lt;Tracciato composto&gt;" class="cls-3" d="M328.43,207.11h-2.25V187.38h2.25Zm-1.46-.79h.67V188.17H327Z"/></g><g id="_Gruppo_34" data-name="&lt;Gruppo&gt;"><rect id="_Tracciato_49" data-name="&lt;Tracciato&gt;" class="cls-3" x="347.17" y="187.77" width="1.45" height="18.94"/><path id="_Tracciato_composto_36" data-name="&lt;Tracciato composto&gt;" class="cls-3" d="M349,207.11h-2.24V187.38H349Zm-1.45-.79h.66V188.17h-.66Z"/></g><g id="_Gruppo_35" data-name="&lt;Gruppo&gt;"><rect id="_Tracciato_50" data-name="&lt;Tracciato&gt;" class="cls-3" x="366.22" y="187.77" width="1.46" height="18.94"/><path id="_Tracciato_composto_37" data-name="&lt;Tracciato composto&gt;" class="cls-3" d="M368.07,207.11h-2.25V187.38h2.25Zm-1.46-.79h.67V188.17h-.67Z"/></g><polygon id="_Tracciato_51" data-name="&lt;Tracciato&gt;" class="cls-3" points="407.45 210.02 407.41 210.02 407.41 209.23 407.45 210.02"/><polygon id="_Tracciato_52" data-name="&lt;Tracciato&gt;" class="cls-3" points="407.45 212.79 407.41 212.79 407.41 212 407.45 212.79"/><polygon id="_Tracciato_53" data-name="&lt;Tracciato&gt;" class="cls-3" points="303.98 215.17 303.19 215.17 303.19 212 308.2 212 308.2 212.79 303.98 212.79 303.98 215.17"/><g id="_Gruppo_36" data-name="&lt;Gruppo&gt;"><path id="_Tracciato_54" data-name="&lt;Tracciato&gt;" class="cls-5" d="M299.36,100.77v22.16a137.38,137.38,0,0,1-20.35,1.5H262.62v-9c10.44-4.09,13.55-7.17,26.25-11.82A71.6,71.6,0,0,1,299.36,100.77Z"/><path id="_Tracciato_composto_38" data-name="&lt;Tracciato composto&gt;" class="cls-3" d="M279.86,124.83H262.23v-9.71l.25-.1a113.86,113.86,0,0,0,11.18-5.14,121.92,121.92,0,0,1,15.08-6.68,72.32,72.32,0,0,1,10.55-2.81l.47-.09v23l-.34,0A147.8,147.8,0,0,1,279.86,124.83ZM263,124h16a137.62,137.62,0,0,0,20-1.45V101.25a70.3,70.3,0,0,0-10,2.68,121.23,121.23,0,0,0-15,6.64,115.07,115.07,0,0,1-11,5.08Z"/></g><path id="_Tracciato_composto_39" data-name="&lt;Tracciato composto&gt;" class="cls-4" d="M496.75,88.95l.15,29.78h-7.25s-1.45-9.25-12.34-9.64V131H514V88.95Zm14,7.11v9.39H500.19V96.06s-.36-1.71,1.67-1.85a2.84,2.84,0,0,1,3-3.44h1.28a2.84,2.84,0,0,1,3,3.44C511.12,94.35,510.75,96.06,510.75,96.06Z"/><polygon id="_Tracciato_55" data-name="&lt;Tracciato&gt;" class="cls-3" points="514.36 88.95 513.57 88.95 513.57 88.82 497.14 88.82 497.14 88.95 496.36 88.95 496.36 88.03 514.36 88.03 514.36 88.95"/><rect id="_Tracciato_56" data-name="&lt;Tracciato&gt;" class="cls-3" x="513.57" y="203.77" width="0.79" height="2.55"/><rect id="_Tracciato_57" data-name="&lt;Tracciato&gt;" class="cls-3" x="494.29" y="85.3" width="21.61" height="3.65"/><g id="_Gruppo_37" data-name="&lt;Gruppo&gt;"><path id="_Tracciato_58" data-name="&lt;Tracciato&gt;" class="cls-6" d="M513.77,85.3h-17c0-.67,8.34-20.49,8.34-20.49Z"/><path id="_Tracciato_composto_40" data-name="&lt;Tracciato composto&gt;" class="cls-3" d="M514.37,85.7h-18V85.3c0-.67,5.86-14.66,8.37-20.64l.36-.86Zm-17.09-.79h15.9L505.1,65.83C502.13,72.89,498.07,82.67,497.28,84.91Z"/></g><rect id="_Tracciato_59" data-name="&lt;Tracciato&gt;" class="cls-3" x="513.47" y="85.28" width="0.79" height="0.47" transform="translate(7.89 209.45) rotate(-23.21)"/><path id="_Tracciato_composto_41" data-name="&lt;Tracciato composto&gt;" class="cls-3" d="M477.61,198.28H469v-6.21h8.59Zm-7.8-.79h7v-4.63h-7Zm-17.83.79H443.4v-6.21H452Zm-1.7-.79h.91v-4.63H451C450.71,194.42,450.48,196,450.29,197.49Zm-6.1,0h5.3c.19-1.52.42-3.08.69-4.63h-6Zm32.68-35.94H444.24v-.39c0-1.56,1.9-17.09,8.74-23.47a9.8,9.8,0,0,1,7.42-2.85h0a10.69,10.69,0,0,1,7.91,3.29c7.25,7.08,8.56,22.88,8.56,23ZM445,160.77h31c-.24-2.46-1.88-15.81-8.29-22.07a10,10,0,0,0-7.1-3.07h-.13a9.06,9.06,0,0,0-7,2.63C447.26,144.11,445.26,157.92,445,160.77Z"/><g id="_Gruppo_38" data-name="&lt;Gruppo&gt;"><path id="_Tracciato_composto_42" data-name="&lt;Tracciato composto&gt;" class="cls-8" d="M443.8,105.45v63.09h33.52V105.45Zm.83,55.71c0-1.23,2.74-26.84,15.92-25.91h-.14c13.43-.32,16.06,24.7,16.06,25.92Z"/><path id="_Tracciato_composto_43" data-name="&lt;Tracciato composto&gt;" class="cls-3" d="M477.71,168.94H443.4V105.06h34.3Zm-33.52-.79h32.73v-62.3H444.19Zm32.68-6.59H444.24v-.39c0-1.56,1.9-17.09,8.74-23.47a9.8,9.8,0,0,1,7.42-2.85h0a10.69,10.69,0,0,1,7.91,3.29c7.25,7.08,8.56,22.88,8.56,23ZM445,160.77h31c-.24-2.46-1.88-15.81-8.29-22.07a10,10,0,0,0-7.1-3.07h-.13a9.06,9.06,0,0,0-7,2.63C447.26,144.11,445.26,157.92,445,160.77Z"/></g><g id="_Gruppo_39" data-name="&lt;Gruppo&gt;"><path id="_Tracciato_60" data-name="&lt;Tracciato&gt;" class="cls-2" d="M449.84,197.89c-.34,2.67-.51,4.82-.58,5.88H443.8v-5.88Z"/><path id="_Tracciato_composto_44" data-name="&lt;Tracciato composto&gt;" class="cls-3" d="M449.63,204.16H443.4v-6.67h6.89l-.06.44c-.32,2.49-.49,4.56-.57,5.85Zm-5.44-.79h4.71c.09-1.23.24-3,.5-5.09h-5.2Z"/></g><g id="_Gruppo_40" data-name="&lt;Gruppo&gt;"><path id="_Tracciato_61" data-name="&lt;Tracciato&gt;" class="cls-2" d="M477.31,168.54v35.22H472.4c-.07-1.06-.24-3.2-.58-5.88h5.4v-5.42H471c-1.54-8.35-4.57-18-10.25-17.75-5.57-.51-8.55,9.27-10.08,17.75H443.8V168.54Z"/><path id="_Tracciato_composto_45" data-name="&lt;Tracciato composto&gt;" class="cls-3" d="M477.71,204.16H472l0-.37c-.09-1.3-.26-3.36-.57-5.85l-.06-.44h5.45v-4.63h-6.17l-.06-.32c-1.47-8-4.34-17.43-9.68-17.43h-.17c-5.32-.49-8.22,9.21-9.7,17.43l-.06.32H443.4V168.15h34.3Zm-4.94-.79h4.15v-5.09h-4.65C472.53,200.38,472.68,202.14,472.77,203.37Zm-1.45-11.3h5.6V168.94H444.19v23.13h6.13c1.56-8.47,4.62-18.28,10.44-17.75C466.64,174.14,469.75,183.77,471.31,192.07Z"/></g><g id="_Gruppo_41" data-name="&lt;Gruppo&gt;"><path id="_Tracciato_composto_46" data-name="&lt;Tracciato composto&gt;" class="cls-2" d="M443.8,77.77v24.58h33.52V77.77Z"/><path id="_Tracciato_composto_47" data-name="&lt;Tracciato composto&gt;" class="cls-3" d="M477.71,102.74H443.4V77.37h34.3Zm-33.52-.79h32.73V78.16H444.19Z"/></g><g id="_Gruppo_42" data-name="&lt;Gruppo&gt;"><path id="_Tracciato_62" data-name="&lt;Tracciato&gt;" class="cls-5" d="M514,206.31v8.88H477.31v-8.88c0-.22.08-1.15.28-2.55h36.09C513.88,205.16,514,206.09,514,206.31Z"/><path id="_Tracciato_composto_48" data-name="&lt;Tracciato composto&gt;" class="cls-3" d="M514.35,215.59H476.92v-9.27c0-.23.08-1.15.28-2.6l0-.34H514l0,.34c.21,1.45.28,2.37.28,2.6Zm-36.65-.79h35.86v-8.49c0-.16-.06-.91-.23-2.15h-35.4c-.17,1.25-.23,2-.23,2.15Z"/></g><path id="_Tracciato_63" data-name="&lt;Tracciato&gt;" class="cls-3" d="M477.71,206.32h-.79v-2.94H478l-.06.44C477.77,205.27,477.71,206.14,477.71,206.32Z"/><path id="_Tracciato_64" data-name="&lt;Tracciato&gt;" class="cls-3" d="M514.35,206.32h-.79c0-.17-.07-1-.27-2.49l-.06-.45h1.13Z"/><path id="_Tracciato_65" data-name="&lt;Tracciato&gt;" class="cls-3" d="M407.84,205.65l-.79,0v-2.27h1.06l-.06.45C407.95,204.57,407.88,205.21,407.84,205.65Z"/><path id="_Tracciato_66" data-name="&lt;Tracciato&gt;" class="cls-3" d="M444.19,206.32h-.79c0-.17-.07-1-.28-2.49l-.06-.45h1.13Z"/><path id="_Tracciato_67" data-name="&lt;Tracciato&gt;" class="cls-3" d="M495.64,177h-.12l0-.79h.12Z"/><g id="_Gruppo_43" data-name="&lt;Gruppo&gt;"><path id="_Tracciato_68" data-name="&lt;Tracciato&gt;" class="cls-3" d="M513.68,203.77H477.59c1-7.37,5.25-27.87,17.88-27.16C508.45,176.3,512.67,196.46,513.68,203.77Z"/><path id="_Tracciato_composto_49" data-name="&lt;Tracciato composto&gt;" class="cls-3" d="M514.14,204.16h-37l.06-.45c.92-6.64,4.95-28.26,18.3-27.5,13.67-.34,17.67,21,18.58,27.5ZM478,203.37h35.18c-.8-5.4-4.75-26.67-17.74-26.37C482.83,176.29,478.85,197.9,478,203.37Z"/></g><polygon id="_Tracciato_69" data-name="&lt;Tracciato&gt;" class="cls-3" points="460.82 175.12 460.7 175.11 460.73 174.32 460.83 174.33 460.82 175.12"/><path id="_Tracciato_70" data-name="&lt;Tracciato&gt;" class="cls-3" d="M450.23,197.94l-.78-.1c.22-1.78.49-3.61.82-5.44l.78.14C450.72,194.35,450.45,196.17,450.23,197.94Z"/><path id="_Tracciato_71" data-name="&lt;Tracciato&gt;" class="cls-3" d="M449.64,204.42h-.79c0-.06,0-.16,0-.3v-.37l.79,0v.37C449.64,204.28,449.64,204.37,449.64,204.42Z"/><g id="_Gruppo_44" data-name="&lt;Gruppo&gt;"><path id="_Tracciato_72" data-name="&lt;Tracciato&gt;" class="cls-3" d="M472.4,203.51H449.27c.07-1,.24-3.17.58-5.83h1.75v-5.37h-.94c1.53-8.4,4.5-18.09,10.08-17.59,5.68-.21,8.71,9.31,10.25,17.59h-1.56v5.37h2.4C472.16,200.33,472.33,202.46,472.4,203.51Z"/><path id="_Tracciato_composto_50" data-name="&lt;Tracciato composto&gt;" class="cls-3" d="M472.82,203.9h-24l0-.42c.09-1.29.26-3.36.58-5.85l0-.34h1.7V192.7h-1l.08-.47c1.54-8.47,4.62-18.44,10.5-17.91,6-.2,9.06,9.62,10.61,17.91l.09.47h-1.64v4.58h2.35l0,.34c.32,2.49.49,4.56.58,5.85Zm-23.13-.79H472c-.09-1.22-.24-3-.5-5H469v-6.16h1.48c-1.51-7.89-4.44-17-9.76-16.8-5.24-.46-8.11,8.76-9.62,16.8H452v6.16h-1.8C449.93,200.14,449.78,201.89,449.69,203.11Z"/></g><path id="_Tracciato_73" data-name="&lt;Tracciato&gt;" class="cls-3" d="M472,197.93c-.2-1.69-.45-3.56-.75-5.41l.78-.12c.3,1.86.56,3.74.75,5.44Z"/><path id="_Tracciato_74" data-name="&lt;Tracciato&gt;" class="cls-3" d="M473.31,204.42h-.79c0-.05,0-.14,0-.27v-.37l.79,0v.37C473.31,204.27,473.31,204.37,473.31,204.42Z"/><path id="_Tracciato_composto_51" data-name="&lt;Tracciato composto&gt;" class="cls-3" d="M490.46,159.56h-3.1v-.39c0-.1-.15-10,0-13.09,0-.64.87-.87,1.64-.83s1.47.34,1.47.85Zm-2.33-.79h1.54v-12.6a2.31,2.31,0,0,0-.76-.13,1.75,1.75,0,0,0-.77.14C488,149,488.11,156.92,488.13,158.77Zm-2.59.79h-3.1v-.39c0-.33-.14-8.15,0-10.7h0c.05-.74,1.33-.75,1.72-.74,1.21,0,1.39.5,1.39.76Zm-2.33-.79h1.54V148.62a3,3,0,0,0-1.54,0C483.1,150.92,483.19,157.15,483.21,158.77Z"/><path id="_Tracciato_composto_52" data-name="&lt;Tracciato composto&gt;" class="cls-9" d="M488.87,142.61h-.1c-9.48-.53-11.45,17.84-11.45,18.73h23.12C500.43,160.46,498.53,142.51,488.87,142.61Zm-3.73,16.56h-2.32s-.14-8.11,0-10.67c0-.5,2.32-.5,2.32,0Zm4.92,0h-2.32s-.15-9.93,0-13.07c0-.6,2.32-.61,2.32,0Zm2.19,0s-.15-8.11,0-10.67c0-.5,2.32-.5,2.32,0v10.67Z"/><g id="_Gruppo_45" data-name="&lt;Gruppo&gt;"><path id="_Tracciato_75" data-name="&lt;Tracciato&gt;" class="cls-6" d="M476.48,161.16H444.63c0-1.23,2.74-26.84,15.92-25.91h-.14C473.84,134.93,476.48,159.94,476.48,161.16Z"/><path id="_Tracciato_composto_53" data-name="&lt;Tracciato composto&gt;" class="cls-3" d="M476.87,161.56H444.24v-.39c0-1.56,1.9-17.09,8.74-23.47a9.8,9.8,0,0,1,7.42-2.85h0a10.65,10.65,0,0,1,7.91,3.29c7.25,7.08,8.56,22.88,8.56,23ZM445,160.77h31c-.24-2.46-1.88-15.81-8.29-22.07a10,10,0,0,0-7.1-3.07h-.13a9.06,9.06,0,0,0-7,2.63C447.26,144.11,445.26,157.92,445,160.77Z"/></g><path id="_Tracciato_76" data-name="&lt;Tracciato&gt;" class="cls-3" d="M471.1,161H450c0-.87,1.81-19,10.54-18.38h-.09C469.35,142.38,471.1,160.12,471.1,161Z"/><g id="_Gruppo_46" data-name="&lt;Gruppo&gt;"><polygon id="_Tracciato_77" data-name="&lt;Tracciato&gt;" class="cls-6" points="493.76 131.01 487.68 135.56 482.15 131.01 493.76 131.01"/><path id="_Tracciato_composto_54" data-name="&lt;Tracciato composto&gt;" class="cls-3" d="M487.66,136.06l-6.61-5.44h13.89Zm-4.41-4.65,4.43,3.65,4.88-3.65Z"/></g><g id="_Gruppo_47" data-name="&lt;Gruppo&gt;"><polygon id="_Tracciato_78" data-name="&lt;Tracciato&gt;" class="cls-10" points="513.97 132.03 513.97 135.91 477.86 135.91 482.63 131.01 488.07 135.56 494.06 131.01 499.55 135.47 505.01 131.5 509.8 135.23 513.97 132.03"/><path id="_Tracciato_composto_55" data-name="&lt;Tracciato composto&gt;" class="cls-3" d="M514.37,136.3H476.92l5.67-5.83,5.48,4.58,6-4.54,5.49,4.47,5.46-4,4.78,3.73,4.57-3.5Zm-4.29-.79h3.5v-2.68Zm-9.92,0h9.36L505,132Zm-11.38,0H499l-4.92-4Zm-10,0h8.6l-4.74-4Z"/></g><g id="_Gruppo_48" data-name="&lt;Gruppo&gt;"><path id="_Tracciato_79" data-name="&lt;Tracciato&gt;" class="cls-3" d="M510.75,96.06v9.39H500.19V96.06s-.36-1.71,1.67-1.85a2.84,2.84,0,0,1,3-3.44h1.28a2.84,2.84,0,0,1,3,3.44C511.12,94.35,510.75,96.06,510.75,96.06Z"/><path id="_Tracciato_composto_56" data-name="&lt;Tracciato composto&gt;" class="cls-3" d="M511.14,105.85H499.79V96.1a2,2,0,0,1,.34-1.5,2,2,0,0,1,1.3-.73,3.57,3.57,0,0,1,.71-2.39,3.38,3.38,0,0,1,2.68-1.1h1.28a3.39,3.39,0,0,1,2.7,1.1,3.57,3.57,0,0,1,.71,2.38,2,2,0,0,1,1.29.73,2,2,0,0,1,.34,1.5Zm-10.56-.79h9.77V96a1.26,1.26,0,0,0-.19-.91,1.45,1.45,0,0,0-1.11-.46l-.43,0,.07-.43a3,3,0,0,0-.51-2.16,2.65,2.65,0,0,0-2.09-.81h-1.27a2.63,2.63,0,0,0-2.07.81,3,3,0,0,0-.51,2.16l.07.43-.43,0a1.47,1.47,0,0,0-1.12.47,1.26,1.26,0,0,0-.2.91v9.07Z"/></g><polygon id="_Tracciato_80" data-name="&lt;Tracciato&gt;" class="cls-3" points="500.19 105.85 500.16 105.85 500.16 105.06 500.19 105.85"/><polygon id="_Tracciato_81" data-name="&lt;Tracciato&gt;" class="cls-3" points="510.78 105.85 510.75 105.85 510.75 105.06 510.78 105.85"/><g id="_Gruppo_49" data-name="&lt;Gruppo&gt;"><path id="_Tracciato_82" data-name="&lt;Tracciato&gt;" class="cls-3" d="M485.15,148.5v10.67h-2.32s-.14-8.11,0-10.67C482.86,148,485.15,148,485.15,148.5Z"/><path id="_Tracciato_composto_57" data-name="&lt;Tracciato composto&gt;" class="cls-3" d="M485.54,159.56h-3.1v-.39c0-.33-.14-8.15,0-10.7.05-.74,1.33-.76,1.72-.74,1.21,0,1.39.5,1.39.76Zm-2.33-.79h1.54V148.62a3,3,0,0,0-1.54,0C483.1,150.91,483.19,157.15,483.21,158.77Z"/></g><g id="_Gruppo_50" data-name="&lt;Gruppo&gt;"><path id="_Tracciato_83" data-name="&lt;Tracciato&gt;" class="cls-3" d="M490.07,146.1v13.07h-2.32s-.15-9.93,0-13.07C487.77,145.5,490.07,145.49,490.07,146.1Z"/><path id="_Tracciato_composto_58" data-name="&lt;Tracciato composto&gt;" class="cls-3" d="M490.46,159.56h-3.1v-.39c0-.1-.15-10,0-13.09,0-.64.87-.86,1.64-.83s1.47.34,1.47.85Zm-2.33-.79h1.54v-12.6a2.31,2.31,0,0,0-.76-.13,1.75,1.75,0,0,0-.77.14C488,149,488.11,156.92,488.13,158.77Z"/></g><g id="_Gruppo_51" data-name="&lt;Gruppo&gt;"><path id="_Tracciato_84" data-name="&lt;Tracciato&gt;" class="cls-3" d="M494.58,148.5v10.67h-2.32s-.15-8.11,0-10.67C492.28,148,494.58,148,494.58,148.5Z"/><path id="_Tracciato_composto_59" data-name="&lt;Tracciato composto&gt;" class="cls-3" d="M495,159.56h-3.1v-.39c0-.33-.15-8.15,0-10.7,0-.71,1.17-.76,1.67-.74.93,0,1.44.29,1.44.77Zm-2.33-.79h1.54V148.62a3,3,0,0,0-1.54,0C492.53,150.92,492.62,157.15,492.65,158.77Z"/></g><polygon id="_Tracciato_85" data-name="&lt;Tracciato&gt;" class="cls-3" points="407.45 215.57 407.41 215.57 407.41 214.78 407.45 215.57"/><rect id="_Tracciato_86" data-name="&lt;Tracciato&gt;" class="cls-3" x="407.25" y="85.1" width="0.48" height="0.79" transform="translate(182.72 435.97) rotate(-69.18)"/><path id="_Tracciato_87" data-name="&lt;Tracciato&gt;" class="cls-3" d="M407.84,215.57h-.79l0-.39V203.35h1.1l-.06.45c-.1.78-.17,1.42-.21,1.86Z"/><path id="_Tracciato_88" data-name="&lt;Tracciato&gt;" class="cls-3" d="M444.19,206.32h-.79c0-.17-.07-1-.28-2.49l-.06-.45h1.13Z"/><path id="_Tracciato_89" data-name="&lt;Tracciato&gt;" class="cls-3" d="M407.8,206.29H407c0-.1,0-.34,0-.71l.79.07C407.81,206,407.8,206.2,407.8,206.29Z"/><rect id="_Tracciato_90" data-name="&lt;Tracciato&gt;" class="cls-3" x="406.19" y="130.8" width="0.79" height="1.07" transform="translate(47.22 362.45) rotate(-50.65)"/><polygon id="_Tracciato_91" data-name="&lt;Tracciato&gt;" class="cls-3" points="410.34 105.82 410.31 105.82 410.31 105.03 410.34 105.82"/><g id="_Gruppo_52" data-name="&lt;Gruppo&gt;"><rect id="_Tracciato_92" data-name="&lt;Tracciato&gt;" class="cls-3" x="443.8" y="102.34" width="33.52" height="3.11"/><path id="_Tracciato_composto_60" data-name="&lt;Tracciato composto&gt;" class="cls-3" d="M477.71,105.85H443.4v-3.9h34.3Zm-33.52-.79h32.73v-2.32H444.19Z"/></g><g id="_Gruppo_53" data-name="&lt;Gruppo&gt;"><rect id="_Tracciato_93" data-name="&lt;Tracciato&gt;" class="cls-3" x="438.95" y="102.34" width="4.85" height="3.11"/><path id="_Tracciato_composto_61" data-name="&lt;Tracciato composto&gt;" class="cls-3" d="M444.19,105.85h-5.63v-3.9h5.63Zm-4.85-.79h4.06v-2.32h-4.06Z"/></g><g id="_Gruppo_54" data-name="&lt;Gruppo&gt;"><rect id="_Tracciato_94" data-name="&lt;Tracciato&gt;" class="cls-3" x="477.31" y="102.34" width="4.1" height="3.11"/><path id="_Tracciato_composto_62" data-name="&lt;Tracciato composto&gt;" class="cls-3" d="M481.81,105.85h-4.89v-3.9h4.89Zm-4.1-.79H481v-2.32h-3.31Z"/></g><g id="_Gruppo_55" data-name="&lt;Gruppo&gt;"><path id="_Tracciato_95" data-name="&lt;Tracciato&gt;" class="cls-3" d="M464.35,96.87a3.52,3.52,0,1,1-3.52-3.51A3.52,3.52,0,0,1,464.35,96.87Z"/><path id="_Tracciato_composto_63" data-name="&lt;Tracciato composto&gt;" class="cls-3" d="M460.83,100.78a3.91,3.91,0,1,1,3.92-3.92A3.91,3.91,0,0,1,460.83,100.78Zm0-7A3.12,3.12,0,1,0,464,96.87,3.12,3.12,0,0,0,460.83,93.75Z"/></g><path id="_Tracciato_composto_64" data-name="&lt;Tracciato composto&gt;" class="cls-11" d="M460.83,108.16a9.51,9.51,0,1,0,9.51,9.51A9.52,9.52,0,0,0,460.83,108.16Zm0,13.54a4,4,0,1,1,4-4A4,4,0,0,1,460.83,121.7Z"/><g id="_Gruppo_56" data-name="&lt;Gruppo&gt;"><path id="_Tracciato_96" data-name="&lt;Tracciato&gt;" class="cls-3" d="M464.86,117.67a4,4,0,1,1-4-4A4,4,0,0,1,464.86,117.67Z"/><path id="_Tracciato_composto_65" data-name="&lt;Tracciato composto&gt;" class="cls-3" d="M460.83,122.1a4.42,4.42,0,1,1,4.42-4.42A4.43,4.43,0,0,1,460.83,122.1Zm0-8.06a3.63,3.63,0,1,0,3.63,3.63A3.64,3.64,0,0,0,460.83,114Z"/></g><path id="_Tracciato_composto_66" data-name="&lt;Tracciato composto&gt;" class="cls-3" d="M477.71,168.94H443.4v-8h34.3Zm-33.52-.79h32.73v-6.41H444.19Z"/><rect id="_Tracciato_97" data-name="&lt;Tracciato&gt;" class="cls-3" x="443.65" y="161.34" width="0.79" height="7.21"/><rect id="_Tracciato_98" data-name="&lt;Tracciato&gt;" class="cls-3" x="448.84" y="161.17" width="0.79" height="7.21"/><rect id="_Tracciato_99" data-name="&lt;Tracciato&gt;" class="cls-3" x="446.15" y="161.17" width="0.79" height="7.21"/><rect id="_Tracciato_100" data-name="&lt;Tracciato&gt;" class="cls-3" x="451.83" y="161.17" width="0.79" height="7.21"/><rect id="_Tracciato_101" data-name="&lt;Tracciato&gt;" class="cls-3" x="454.63" y="161.34" width="0.79" height="7.21"/><rect id="_Tracciato_102" data-name="&lt;Tracciato&gt;" class="cls-3" x="457.61" y="161.34" width="0.79" height="7.21"/><rect id="_Tracciato_103" data-name="&lt;Tracciato&gt;" class="cls-3" x="460.59" y="161.17" width="0.79" height="7.21"/><rect id="_Tracciato_104" data-name="&lt;Tracciato&gt;" class="cls-3" x="463.25" y="160.99" width="0.79" height="7.21"/><rect id="_Tracciato_105" data-name="&lt;Tracciato&gt;" class="cls-3" x="466.24" y="160.99" width="0.79" height="7.21"/><rect id="_Tracciato_106" data-name="&lt;Tracciato&gt;" class="cls-3" x="468.8" y="161.34" width="0.79" height="7.21"/><rect id="_Tracciato_107" data-name="&lt;Tracciato&gt;" class="cls-3" x="471.58" y="161.17" width="0.79" height="7.21"/><rect id="_Tracciato_108" data-name="&lt;Tracciato&gt;" class="cls-3" x="474.29" y="161.34" width="0.79" height="7.21"/><g id="_Gruppo_57" data-name="&lt;Gruppo&gt;"><rect id="_Tracciato_109" data-name="&lt;Tracciato&gt;" class="cls-5" x="443.8" y="192.47" width="7.8" height="5.42"/><path id="_Tracciato_composto_67" data-name="&lt;Tracciato composto&gt;" class="cls-3" d="M452,198.28H443.4v-6.21H452Zm-7.8-.79h7v-4.63h-7Z"/></g><g id="_Gruppo_58" data-name="&lt;Gruppo&gt;"><rect id="_Tracciato_110" data-name="&lt;Tracciato&gt;" class="cls-5" x="470.22" y="192.47" width="7.01" height="5.42"/><path id="_Tracciato_composto_68" data-name="&lt;Tracciato composto&gt;" class="cls-3" d="M477.62,198.28h-7.8v-6.21h7.8Zm-7-.79h6.22v-4.63h-6.22Z"/></g><polygon id="_Tracciato_111" data-name="&lt;Tracciato&gt;" class="cls-3" points="451.94 77.32 451.16 77.22 452.67 66.01 455.6 62.35 456.22 62.85 453.42 66.33 451.94 77.32"/><polygon id="_Tracciato_112" data-name="&lt;Tracciato&gt;" class="cls-3" points="469.72 77.32 468.24 66.33 465.44 62.85 466.06 62.35 468.99 66.01 470.5 77.22 469.72 77.32"/><g id="_Gruppo_59" data-name="&lt;Gruppo&gt;"><path id="_Tracciato_113" data-name="&lt;Tracciato&gt;" class="cls-3" d="M466.59,69.93H455l1.72-13a4.23,4.23,0,0,1,8.46,0l.62,5.72Z"/><path id="_Tracciato_composto_69" data-name="&lt;Tracciato composto&gt;" class="cls-3" d="M467,70.33h-12.5l1.78-13.46a4.62,4.62,0,0,1,9.24.05Zm-11.6-.79h10.72L464.77,57a3.84,3.84,0,1,0-7.67,0Z"/></g><rect id="_Tracciato_114" data-name="&lt;Tracciato&gt;" class="cls-3" x="460.54" y="48.64" width="0.79" height="4.05"/><path id="_Tracciato_composto_70" data-name="&lt;Tracciato composto&gt;" class="cls-3" d="M460.93,48.9a1.47,1.47,0,1,1,1.47-1.47A1.48,1.48,0,0,1,460.93,48.9Zm0-2.16a.68.68,0,1,0,.68.68A.69.69,0,0,0,460.93,46.74Z"/><g id="_Gruppo_60" data-name="&lt;Gruppo&gt;"><rect id="_Tracciato_115" data-name="&lt;Tracciato&gt;" class="cls-6" x="582.09" y="144.99" width="14.24" height="45.36"/><path id="_Tracciato_composto_71" data-name="&lt;Tracciato composto&gt;" class="cls-3" d="M596.72,190.75h-15V144.6h15ZM582.48,190h13.45V145.38H582.48Z"/></g><g id="_Gruppo_61" data-name="&lt;Gruppo&gt;"><rect id="_Tracciato_116" data-name="&lt;Tracciato&gt;" class="cls-6" x="530.21" y="144.99" width="14.09" height="45.36"/><path id="_Tracciato_composto_72" data-name="&lt;Tracciato composto&gt;" class="cls-3" d="M544.69,190.75H529.81V144.6h14.88ZM530.6,190h13.3V145.38H530.6Z"/></g><g id="_Gruppo_62" data-name="&lt;Gruppo&gt;"><rect id="_Tracciato_117" data-name="&lt;Tracciato&gt;" class="cls-6" x="600.03" y="144.99" width="13.71" height="45.36"/><path id="_Tracciato_composto_73" data-name="&lt;Tracciato composto&gt;" class="cls-3" d="M614.14,190.75h-14.5V144.6h14.5ZM600.42,190h12.92V145.38H600.42Z"/></g><g id="_Gruppo_63" data-name="&lt;Gruppo&gt;"><rect id="_Tracciato_118" data-name="&lt;Tracciato&gt;" class="cls-10" x="600.03" y="115.22" width="13.71" height="20.7"/><path id="_Tracciato_composto_74" data-name="&lt;Tracciato composto&gt;" class="cls-3" d="M614.14,136.31h-14.5V114.83h14.5Zm-13.71-.79h12.92V115.62H600.42Z"/></g><path id="_Tracciato_composto_75" data-name="&lt;Tracciato composto&gt;" class="cls-3" d="M617.84,190.75h-4.49v-83.9h4.49Zm-3.7-.79H617V107.63h-2.91Zm-13.71.79h-4.49v-83.9h4.49Zm-3.7-.79h2.91V107.63h-2.91Zm-14.24.79H578v-83.9h4.49Zm-3.7-.79h2.91V107.63h-2.91Zm-13.94.79h-4.49v-83.9h4.49Zm-3.7-.79h2.91V107.63h-2.91Zm-12.75.79H543.9v-83.9h4.49Zm-3.7-.79h2.91V107.63h-2.91Zm-14.09.79h-4.49v-83.9h4.49Zm-3.7-.79h2.91V107.63H526.9Zm-11.59-53.64h-2v-5.68h2Zm-1.23-.79h.44v-4.1h-.44Zm1.76-46.17H513.3V84.92h2.54Zm-1.76-.79h1V85.71h-1Z"/><g id="_Gruppo_64" data-name="&lt;Gruppo&gt;"><polygon id="_Tracciato_119" data-name="&lt;Tracciato&gt;" class="cls-6" points="513.97 131.01 513.97 132.03 509.74 135.23 504.87 131.5 499.33 135.47 493.76 131.01 513.97 131.01"/><path id="_Tracciato_composto_76" data-name="&lt;Tracciato composto&gt;" class="cls-3" d="M499.31,136l-6.68-5.35h21.73v1.61l-4.63,3.5L504.87,132Zm-4.43-4.56,4.46,3.57,5-3.57Zm10.52,0,4.34,3.33,3.84-2.9v-.42Z"/></g><g id="_Gruppo_65" data-name="&lt;Gruppo&gt;"><rect id="_Tracciato_120" data-name="&lt;Tracciato&gt;" class="cls-5" x="600.03" y="107.24" width="13.71" height="7.98"/><path id="_Tracciato_composto_77" data-name="&lt;Tracciato composto&gt;" class="cls-3" d="M614.14,115.62h-14.5v-8.77h14.5Zm-13.71-.79h12.92v-7.19H600.42Z"/></g><g id="_Gruppo_66" data-name="&lt;Gruppo&gt;"><rect id="_Tracciato_121" data-name="&lt;Tracciato&gt;" class="cls-5" x="582.09" y="107.24" width="14.24" height="7.98"/><path id="_Tracciato_composto_78" data-name="&lt;Tracciato composto&gt;" class="cls-3" d="M596.72,115.62h-15v-8.77h15Zm-14.24-.79h13.45v-7.19H582.48Z"/></g><g id="_Gruppo_67" data-name="&lt;Gruppo&gt;"><rect id="_Tracciato_122" data-name="&lt;Tracciato&gt;" class="cls-5" x="564.45" y="107.24" width="13.94" height="7.98"/><path id="_Tracciato_composto_79" data-name="&lt;Tracciato composto&gt;" class="cls-3" d="M578.78,115.62H564.05v-8.77h14.73Zm-13.94-.79H578v-7.19H564.84Z"/></g><g id="_Gruppo_68" data-name="&lt;Gruppo&gt;"><rect id="_Tracciato_123" data-name="&lt;Tracciato&gt;" class="cls-5" x="548" y="107.24" width="12.75" height="7.98"/><path id="_Tracciato_composto_80" data-name="&lt;Tracciato composto&gt;" class="cls-3" d="M561.14,115.62H547.6v-8.77h13.54Zm-12.75-.79h12v-7.19h-12Z"/></g><g id="_Gruppo_69" data-name="&lt;Gruppo&gt;"><rect id="_Tracciato_124" data-name="&lt;Tracciato&gt;" class="cls-5" x="530.21" y="107.24" width="14.09" height="7.98"/><path id="_Tracciato_composto_81" data-name="&lt;Tracciato composto&gt;" class="cls-3" d="M544.69,115.62H529.81v-8.77h14.88Zm-14.09-.79h13.3v-7.19H530.6Z"/></g><g id="_Gruppo_70" data-name="&lt;Gruppo&gt;"><rect id="_Tracciato_125" data-name="&lt;Tracciato&gt;" class="cls-5" x="530.21" y="135.92" width="14.09" height="9.07"/><path id="_Tracciato_composto_82" data-name="&lt;Tracciato composto&gt;" class="cls-3" d="M544.69,145.38H529.81v-9.86h14.88Zm-14.09-.79h13.3v-8.28H530.6Z"/></g><g id="_Gruppo_71" data-name="&lt;Gruppo&gt;"><rect id="_Tracciato_126" data-name="&lt;Tracciato&gt;" class="cls-5" x="600.03" y="135.92" width="13.71" height="9.07"/><path id="_Tracciato_composto_83" data-name="&lt;Tracciato composto&gt;" class="cls-3" d="M614.14,145.38h-14.5v-9.86h14.5Zm-13.71-.79h12.92v-8.28H600.42Z"/></g><g id="_Gruppo_72" data-name="&lt;Gruppo&gt;"><polygon id="_Tracciato_127" data-name="&lt;Tracciato&gt;" class="cls-5" points="630.37 75.29 630.37 190.35 617.44 190.35 617.44 107.24 526.5 107.24 526.5 190.35 513.69 190.35 513.69 135.92 514.92 135.92 514.92 131.03 513.69 131.03 513.69 88.96 515.45 88.96 515.45 85.31 513.69 85.31 513.69 75.29 630.37 75.29"/><path id="_Tracciato_composto_84" data-name="&lt;Tracciato composto&gt;" class="cls-3" d="M630.77,190.75H617V107.63H526.9v83.11H513.3V135.52h1.23v-4.1H513.3V88.57h1.76V85.71H513.3V74.9H630.77ZM617.84,190H630V75.69H514.09v9.23h1.76v4.44h-1.76v41.28h1.23v5.68h-1.23V190h12V106.84h91.73Z"/></g><rect id="_Tracciato_128" data-name="&lt;Tracciato&gt;" class="cls-3" x="526.51" y="107.24" width="3.7" height="83.11"/><rect id="_Tracciato_129" data-name="&lt;Tracciato&gt;" class="cls-3" x="544.3" y="107.24" width="3.7" height="83.11"/><rect id="_Tracciato_130" data-name="&lt;Tracciato&gt;" class="cls-3" x="560.75" y="107.24" width="3.7" height="83.11"/><rect id="_Tracciato_131" data-name="&lt;Tracciato&gt;" class="cls-3" x="578.39" y="107.24" width="3.7" height="83.11"/><rect id="_Tracciato_132" data-name="&lt;Tracciato&gt;" class="cls-3" x="596.33" y="107.24" width="3.7" height="83.11"/><rect id="_Tracciato_133" data-name="&lt;Tracciato&gt;" class="cls-3" x="613.74" y="107.24" width="3.7" height="83.11"/><rect id="_Tracciato_134" data-name="&lt;Tracciato&gt;" class="cls-3" x="613.74" y="135.52" width="1.51" height="0.79"/><rect id="_Tracciato_135" data-name="&lt;Tracciato&gt;" class="cls-3" x="578.39" y="135.52" width="3.7" height="0.79"/><rect id="_Tracciato_136" data-name="&lt;Tracciato&gt;" class="cls-3" x="544.3" y="135.52" width="3.7" height="0.79"/><rect id="_Tracciato_137" data-name="&lt;Tracciato&gt;" class="cls-3" x="529.41" y="135.52" width="0.79" height="0.79"/><rect id="_Tracciato_138" data-name="&lt;Tracciato&gt;" class="cls-3" x="560.75" y="135.52" width="3.7" height="0.79"/><rect id="_Tracciato_139" data-name="&lt;Tracciato&gt;" class="cls-3" x="596.33" y="135.52" width="3.7" height="0.79"/><rect id="_Tracciato_140" data-name="&lt;Tracciato&gt;" class="cls-3" x="613.74" y="114.83" width="1.51" height="0.79"/><g id="_Gruppo_73" data-name="&lt;Gruppo&gt;"><rect id="_Tracciato_141" data-name="&lt;Tracciato&gt;" class="cls-10" x="582.09" y="115.22" width="14.24" height="20.7"/><path id="_Tracciato_composto_85" data-name="&lt;Tracciato composto&gt;" class="cls-3" d="M596.72,136.31h-15V114.83h15Zm-14.24-.79h13.45V115.62H582.48Z"/></g><g id="_Gruppo_74" data-name="&lt;Gruppo&gt;"><rect id="_Tracciato_142" data-name="&lt;Tracciato&gt;" class="cls-10" x="564.45" y="115.22" width="13.94" height="20.7"/><path id="_Tracciato_composto_86" data-name="&lt;Tracciato composto&gt;" class="cls-3" d="M578.78,136.31H564.05V114.83h14.73Zm-13.94-.79H578V115.62H564.84Z"/></g><g id="_Gruppo_75" data-name="&lt;Gruppo&gt;"><rect id="_Tracciato_143" data-name="&lt;Tracciato&gt;" class="cls-5" x="564.45" y="135.92" width="13.94" height="9.07"/><path id="_Tracciato_composto_87" data-name="&lt;Tracciato composto&gt;" class="cls-3" d="M578.78,145.38H564.05v-9.86h14.73Zm-13.94-.79H578v-8.28H564.84Z"/></g><rect id="_Tracciato_144" data-name="&lt;Tracciato&gt;" class="cls-3" x="578.39" y="114.83" width="3.7" height="0.79"/><g id="_Gruppo_76" data-name="&lt;Gruppo&gt;"><rect id="_Tracciato_145" data-name="&lt;Tracciato&gt;" class="cls-10" x="548" y="115.22" width="12.75" height="20.7"/><path id="_Tracciato_composto_88" data-name="&lt;Tracciato composto&gt;" class="cls-3" d="M561.14,136.31H547.6V114.83h13.54Zm-12.75-.79h12V115.62h-12Z"/></g><g id="_Gruppo_77" data-name="&lt;Gruppo&gt;"><rect id="_Tracciato_146" data-name="&lt;Tracciato&gt;" class="cls-10" x="530.21" y="115.22" width="14.09" height="20.7"/><path id="_Tracciato_composto_89" data-name="&lt;Tracciato composto&gt;" class="cls-3" d="M544.69,136.31H529.81V114.83h14.88Zm-14.09-.79h13.3V115.62H530.6Z"/></g><rect id="_Tracciato_147" data-name="&lt;Tracciato&gt;" class="cls-3" x="544.3" y="114.83" width="3.7" height="0.79"/><rect id="_Tracciato_148" data-name="&lt;Tracciato&gt;" class="cls-3" x="529.41" y="114.83" width="0.79" height="0.79"/><g id="_Gruppo_78" data-name="&lt;Gruppo&gt;"><rect id="_Tracciato_149" data-name="&lt;Tracciato&gt;" class="cls-5" x="548" y="135.92" width="12.75" height="9.07"/><path id="_Tracciato_composto_90" data-name="&lt;Tracciato composto&gt;" class="cls-3" d="M561.14,145.38H547.6v-9.86h13.54Zm-12.75-.79h12v-8.28h-12Z"/></g><rect id="_Tracciato_150" data-name="&lt;Tracciato&gt;" class="cls-3" x="560.75" y="114.83" width="3.7" height="0.79"/><g id="_Gruppo_79" data-name="&lt;Gruppo&gt;"><rect id="_Tracciato_151" data-name="&lt;Tracciato&gt;" class="cls-5" x="582.09" y="135.92" width="14.24" height="9.07"/><path id="_Tracciato_composto_91" data-name="&lt;Tracciato composto&gt;" class="cls-3" d="M596.72,145.38h-15v-9.86h15Zm-14.24-.79h13.45v-8.28H582.48Z"/></g><rect id="_Tracciato_152" data-name="&lt;Tracciato&gt;" class="cls-3" x="596.33" y="114.83" width="3.7" height="0.79"/><rect id="_Tracciato_153" data-name="&lt;Tracciato&gt;" class="cls-3" x="596.33" y="144.6" width="3.7" height="0.79"/><rect id="_Tracciato_154" data-name="&lt;Tracciato&gt;" class="cls-3" x="613.74" y="144.6" width="1.51" height="0.79"/><g id="_Gruppo_80" data-name="&lt;Gruppo&gt;"><rect id="_Tracciato_155" data-name="&lt;Tracciato&gt;" class="cls-6" x="564.45" y="144.99" width="13.94" height="45.36"/><path id="_Tracciato_composto_92" data-name="&lt;Tracciato composto&gt;" class="cls-3" d="M578.78,190.75H564.05V144.6h14.73ZM564.84,190H578V145.38H564.84Z"/></g><g id="_Gruppo_81" data-name="&lt;Gruppo&gt;"><rect id="_Tracciato_156" data-name="&lt;Tracciato&gt;" class="cls-6" x="548" y="144.99" width="12.75" height="45.36"/><path id="_Tracciato_composto_93" data-name="&lt;Tracciato composto&gt;" class="cls-3" d="M561.14,190.75H547.6V144.6h13.54ZM548.39,190h12V145.38h-12Z"/></g><rect id="_Tracciato_157" data-name="&lt;Tracciato&gt;" class="cls-3" x="560.75" y="144.6" width="3.7" height="0.79"/><rect id="_Tracciato_158" data-name="&lt;Tracciato&gt;" class="cls-3" x="529.41" y="144.6" width="0.79" height="0.79"/><rect id="_Tracciato_159" data-name="&lt;Tracciato&gt;" class="cls-3" x="544.3" y="144.6" width="3.7" height="0.79"/><rect id="_Tracciato_160" data-name="&lt;Tracciato&gt;" class="cls-3" x="578.39" y="144.6" width="3.7" height="0.79"/><g id="_Gruppo_82" data-name="&lt;Gruppo&gt;"><rect id="_Tracciato_161" data-name="&lt;Tracciato&gt;" class="cls-5" x="534.76" y="198.29" width="73.48" height="4.49"/><path id="_Tracciato_composto_94" data-name="&lt;Tracciato composto&gt;" class="cls-3" d="M608.64,203.18H534.37V197.9h74.27Zm-73.48-.79h72.69v-3.7H535.16Z"/></g><g id="_Gruppo_83" data-name="&lt;Gruppo&gt;"><rect id="_Tracciato_162" data-name="&lt;Tracciato&gt;" class="cls-5" x="534.76" y="193.8" width="73.48" height="4.49"/><path id="_Tracciato_composto_95" data-name="&lt;Tracciato composto&gt;" class="cls-3" d="M608.64,198.69H534.37V193.4h74.27Zm-73.48-.79h72.69v-3.7H535.16Z"/></g><g id="_Gruppo_84" data-name="&lt;Gruppo&gt;"><rect id="_Tracciato_163" data-name="&lt;Tracciato&gt;" class="cls-5" x="534.76" y="190.35" width="73.48" height="3.45"/><path id="_Tracciato_composto_96" data-name="&lt;Tracciato composto&gt;" class="cls-3" d="M608.64,194.19H534.37V190h74.27Zm-73.48-.79h72.69v-2.66H535.16Z"/></g><polygon id="_Tracciato_164" data-name="&lt;Tracciato&gt;" class="cls-3" points="535.16 203.18 534.37 203.18 534.32 202.78 534.32 189.96 535.11 189.96 535.16 190.35 535.16 203.18"/><g id="_Gruppo_85" data-name="&lt;Gruppo&gt;"><rect id="_Tracciato_165" data-name="&lt;Tracciato&gt;" class="cls-5" x="527.64" y="210.82" width="88.78" height="4.39"/><path id="_Tracciato_composto_97" data-name="&lt;Tracciato composto&gt;" class="cls-3" d="M616.81,215.6H527.24v-5.18h89.57ZM528,214.81h88v-3.6H528Z"/></g><g id="_Gruppo_86" data-name="&lt;Gruppo&gt;"><rect id="_Tracciato_166" data-name="&lt;Tracciato&gt;" class="cls-5" x="527.64" y="206.33" width="88.78" height="4.49"/><path id="_Tracciato_composto_98" data-name="&lt;Tracciato composto&gt;" class="cls-3" d="M616.81,211.21H527.24v-5.28h89.57ZM528,210.42h88v-3.7H528Z"/></g><g id="_Gruppo_87" data-name="&lt;Gruppo&gt;"><polygon id="_Tracciato_167" data-name="&lt;Tracciato&gt;" class="cls-5" points="621.67 202.78 621.67 203.28 616.42 203.28 616.42 206.33 527.64 206.33 527.64 203.28 521.91 203.28 521.91 202.78 621.67 202.78"/><path id="_Tracciato_composto_99" data-name="&lt;Tracciato composto&gt;" class="cls-3" d="M616.81,206.72H527.24v-3h-5.73v-1.29H622.06v1.29h-5.25ZM528,205.93h88v-2.75H528Z"/></g><path id="_Tracciato_composto_100" data-name="&lt;Tracciato composto&gt;" class="cls-3" d="M528,215.6h-6.52V202.89H528Zm-5.73-.79h4.94V203.68H522.3Z"/><path id="_Tracciato_composto_101" data-name="&lt;Tracciato composto&gt;" class="cls-3" d="M622.06,215.6h-6V202.89h6Zm-5.25-.79h4.46V203.68h-4.46Z"/><rect id="_Tracciato_168" data-name="&lt;Tracciato&gt;" class="cls-3" x="521.95" y="190.35" width="12.81" height="12.43"/><rect id="_Tracciato_169" data-name="&lt;Tracciato&gt;" class="cls-3" x="608.28" y="190.35" width="13.95" height="12.43"/><rect id="_Tracciato_170" data-name="&lt;Tracciato&gt;" class="cls-3" x="616.42" y="203.28" width="14.48" height="12.42"/><g id="_Gruppo_88" data-name="&lt;Gruppo&gt;"><path id="_Tracciato_171" data-name="&lt;Tracciato&gt;" class="cls-2" d="M514,135.91v67.86h-.28c-1-7.3-5.23-27.46-18.21-27.16-12.64-.71-16.86,19.79-17.88,27.16h-.28V161.34h23.12c0-.89-1.9-18.84-11.56-18.73h-.1c-9.48-.53-11.45,17.84-11.45,18.73V135.91Z"/><path id="_Tracciato_composto_102" data-name="&lt;Tracciato composto&gt;" class="cls-3" d="M514.35,204.16h-1l0-.34c-.62-4.5-4.38-26.82-17.53-26.82h-.28c-13-.75-16.86,22.21-17.5,26.82l0,.34h-1V135.51h37.44Zm-18.55-28c11.7,0,16.21,16,17.76,24.38V136.3H477.71v20c.83-3.86,2.45-9,5.52-11.9a7.31,7.31,0,0,1,5.56-2.15h.08a8,8,0,0,1,5.77,2.47c5.23,5.18,6.18,16.55,6.18,16.66v.39H477.71v38.84c1.57-8.58,6.13-25,17.79-24.36Zm-18.07-15.26H500c-.19-2.2-1.62-11.45-5.92-15.7A7.15,7.15,0,0,0,489,143h-.19a6.53,6.53,0,0,0-5,1.94C479.38,149.1,477.92,158.69,477.73,160.95Z"/></g><path id="_Tracciato_composto_103" data-name="&lt;Tracciato composto&gt;" class="cls-4" d="M407.15,88.95V131H443.8V109.09c-10.89.39-12.34,9.64-12.34,9.64h-7.25l.15-29.78ZM412,94.21a2.84,2.84,0,0,1,3-3.44h1.28a2.84,2.84,0,0,1,3,3.44c2,.14,1.67,1.85,1.67,1.85v9.39H410.37V96.06S410,94.35,412,94.21Z"/><polygon id="_Tracciato_172" data-name="&lt;Tracciato&gt;" class="cls-3" points="424.76 88.95 423.97 88.95 423.97 88.81 407.55 88.81 407.55 88.95 406.76 88.95 406.76 88.03 424.76 88.03 424.76 88.95"/><rect id="_Tracciato_173" data-name="&lt;Tracciato&gt;" class="cls-3" x="405.21" y="85.3" width="21.61" height="3.65"/><g id="_Gruppo_89" data-name="&lt;Gruppo&gt;"><path id="_Tracciato_174" data-name="&lt;Tracciato&gt;" class="cls-6" d="M407.34,85.3h17c0-.67-8.34-20.49-8.34-20.49Z"/><path id="_Tracciato_composto_104" data-name="&lt;Tracciato composto&gt;" class="cls-3" d="M424.76,85.7h-18L416,63.8l.36.86c2.52,6,8.37,20,8.37,20.64Zm-16.82-.79h15.91c-.77-2.16-4.85-12-7.83-19.08Z"/></g><g id="_Gruppo_90" data-name="&lt;Gruppo&gt;"><path id="_Tracciato_175" data-name="&lt;Tracciato&gt;" class="cls-5" d="M407.15,206.31v8.88H443.8v-8.88c0-.22-.08-1.15-.28-2.55H407.43C407.23,205.16,407.15,206.09,407.15,206.31Z"/><path id="_Tracciato_composto_105" data-name="&lt;Tracciato composto&gt;" class="cls-3" d="M444.19,215.59H406.76v-9.27c0-.23.08-1.15.28-2.6l0-.34h36.78l0,.34c.21,1.46.28,2.37.28,2.6Zm-36.65-.79H443.4v-8.49c0-.16-.06-.9-.23-2.15h-35.4c-.17,1.25-.23,2-.23,2.15Z"/></g><path id="_Tracciato_176" data-name="&lt;Tracciato&gt;" class="cls-3" d="M425.48,177v-.79h.16V177Z"/><g id="_Gruppo_91" data-name="&lt;Gruppo&gt;"><path id="_Tracciato_177" data-name="&lt;Tracciato&gt;" class="cls-3" d="M407.43,203.77h36.09c-1-7.37-5.25-27.87-17.88-27.16C412.66,176.3,408.44,196.46,407.43,203.77Z"/><path id="_Tracciato_composto_106" data-name="&lt;Tracciato composto&gt;" class="cls-3" d="M444,204.16H407l.06-.45c.9-6.53,4.9-27.83,18.61-27.5,13.31-.71,17.34,20.86,18.26,27.5Zm-36.09-.79h35.18c-.81-5.48-4.79-27.11-17.41-26.37C412.67,176.69,408.68,198,407.88,203.37Z"/></g><path id="_Tracciato_composto_107" data-name="&lt;Tracciato composto&gt;" class="cls-3" d="M438.68,159.56h-3.1V148.5c0-.27.18-.72,1.39-.76.39,0,1.67,0,1.72.74.14,2.55,0,10.37,0,10.7Zm-2.31-.79h1.54c0-1.62.11-7.85,0-10.14a3,3,0,0,0-1.54,0Zm-2.61.79h-3.1V146.1c0-.51.55-.83,1.47-.85s1.62.2,1.64.83c.15,3.11,0,13,0,13.09Zm-2.32-.79H433c0-1.85.12-9.79,0-12.59a1.75,1.75,0,0,0-.77-.14h0a1.74,1.74,0,0,0-.75.13Z"/><path id="_Tracciato_composto_108" data-name="&lt;Tracciato composto&gt;" class="cls-9" d="M420.68,161.34H443.8c0-.89-2-19.26-11.45-18.73h-.1C422.59,142.5,420.68,160.45,420.68,161.34ZM436,148.5c0-.5,2.29-.5,2.32,0,.14,2.56,0,10.67,0,10.67H436ZM431,146.1c0-.61,2.3-.6,2.32,0,.15,3.14,0,13.07,0,13.07H431Zm-4.51,13.07V148.5c0-.5,2.3-.5,2.32,0,.15,2.56,0,10.67,0,10.67Z"/><polygon id="_Tracciato_178" data-name="&lt;Tracciato&gt;" class="cls-6" points="427.36 131.41 433.44 135.56 438.96 131.41 427.36 131.41"/><g id="_Gruppo_92" data-name="&lt;Gruppo&gt;"><polygon id="_Tracciato_179" data-name="&lt;Tracciato&gt;" class="cls-10" points="407.14 132.03 407.14 135.91 442.91 135.91 438.13 131.2 432.8 135.56 426.86 131.01 421.43 135.47 416.02 131.5 411.27 135.23 407.14 132.03"/><path id="_Tracciato_composto_109" data-name="&lt;Tracciato composto&gt;" class="cls-3" d="M443.87,136.3H406.74v-5.08l4.53,3.51L416,131l5.41,4,5.44-4.47,5.93,4.55,5.36-4.38Zm-10.39-.79h8.47l-3.84-3.78Zm-11.47,0h10.08l-5.22-4Zm-10.45,0h9.26L416,132Zm-4,0H411l-3.46-2.68Z"/></g><g id="_Gruppo_93" data-name="&lt;Gruppo&gt;"><path id="_Tracciato_180" data-name="&lt;Tracciato&gt;" class="cls-3" d="M410.37,96.06v9.39h10.56V96.06s.36-1.71-1.67-1.85a2.84,2.84,0,0,0-3-3.44H415a2.84,2.84,0,0,0-3,3.44C410,94.35,410.37,96.06,410.37,96.06Z"/><path id="_Tracciato_composto_110" data-name="&lt;Tracciato composto&gt;" class="cls-3" d="M421.32,105.85H410V96.1a2,2,0,0,1,.34-1.5,2,2,0,0,1,1.29-.73,3.57,3.57,0,0,1,.71-2.38,3.39,3.39,0,0,1,2.69-1.1h1.28a3.38,3.38,0,0,1,2.68,1.1,3.57,3.57,0,0,1,.71,2.39,2,2,0,0,1,1.29.73,2,2,0,0,1,.34,1.5Zm-10.56-.79h9.77V96a1.26,1.26,0,0,0-.2-.91,1.46,1.46,0,0,0-1.12-.47l-.43,0,.07-.43a3,3,0,0,0-.51-2.17,2.63,2.63,0,0,0-2.08-.81H415a2.64,2.64,0,0,0-2.09.82,3,3,0,0,0-.51,2.16l.07.43-.44,0a1.45,1.45,0,0,0-1.11.47,1.25,1.25,0,0,0-.19.9v9.08Z"/></g><polygon id="_Tracciato_181" data-name="&lt;Tracciato&gt;" class="cls-3" points="420.95 105.85 420.93 105.06 420.95 105.06 420.95 105.85"/><polygon id="_Tracciato_182" data-name="&lt;Tracciato&gt;" class="cls-3" points="410.37 105.85 410.33 105.06 410.37 105.06 410.37 105.85"/><g id="_Gruppo_94" data-name="&lt;Gruppo&gt;"><path id="_Tracciato_183" data-name="&lt;Tracciato&gt;" class="cls-3" d="M436,148.5v10.67h2.32s.14-8.11,0-10.67C438.25,148,436,148,436,148.5Z"/><path id="_Tracciato_composto_111" data-name="&lt;Tracciato composto&gt;" class="cls-3" d="M438.68,159.56h-3.1V148.5c0-.27.18-.72,1.39-.76.39,0,1.67,0,1.72.74.14,2.55,0,10.37,0,10.7Zm-2.31-.79h1.54c0-1.62.11-7.85,0-10.14a3,3,0,0,0-1.54,0Z"/></g><g id="_Gruppo_95" data-name="&lt;Gruppo&gt;"><path id="_Tracciato_184" data-name="&lt;Tracciato&gt;" class="cls-3" d="M431,146.1v13.07h2.32s.15-9.93,0-13.07C433.34,145.5,431,145.49,431,146.1Z"/><path id="_Tracciato_composto_112" data-name="&lt;Tracciato composto&gt;" class="cls-3" d="M433.76,159.56h-3.1V146.1c0-.51.55-.83,1.47-.85s1.62.2,1.64.83c.15,3.11,0,13,0,13.09Zm-2.32-.79H433c0-1.85.13-9.79,0-12.59a1.75,1.75,0,0,0-.77-.14,1.35,1.35,0,0,0-.76.13Z"/></g><g id="_Gruppo_96" data-name="&lt;Gruppo&gt;"><path id="_Tracciato_185" data-name="&lt;Tracciato&gt;" class="cls-3" d="M426.53,148.5v10.67h2.32s.15-8.11,0-10.67C428.83,148,426.53,148,426.53,148.5Z"/><path id="_Tracciato_composto_113" data-name="&lt;Tracciato composto&gt;" class="cls-3" d="M429.24,159.56h-3.1V148.5c0-.47.51-.74,1.44-.77.49,0,1.63,0,1.67.75.15,2.54,0,10.36,0,10.69Zm-2.31-.79h1.54c0-1.62.12-7.86,0-10.14a3,3,0,0,0-1.54,0Z"/></g><g id="_Gruppo_97" data-name="&lt;Gruppo&gt;"><polygon id="_Tracciato_186" data-name="&lt;Tracciato&gt;" class="cls-6" points="407.14 131.01 407.14 132.03 411.38 135.23 416.24 131.5 421.79 135.47 427.36 131.01 407.14 131.01"/><path id="_Tracciato_composto_114" data-name="&lt;Tracciato composto&gt;" class="cls-3" d="M421.8,136l-5.55-4-4.87,3.74-4.63-3.5v-1.61h21.73Zm-5-4.56,5,3.57,4.46-3.57Zm-9.25.42,3.84,2.9,4.34-3.33h-8.17Z"/></g><g id="_Gruppo_98" data-name="&lt;Gruppo&gt;"><path id="_Tracciato_187" data-name="&lt;Tracciato&gt;" class="cls-2" d="M407.15,135.91v67.86h.28c1-7.3,5.23-27.46,18.21-27.16,12.64-.71,16.86,19.79,17.88,27.16h.28V161.34H420.68c0-.89,1.9-18.84,11.56-18.73h.1c9.48-.53,11.45,17.84,11.45,18.73V135.91Z"/><path id="_Tracciato_composto_115" data-name="&lt;Tracciato composto&gt;" class="cls-3" d="M444.19,204.16h-1l0-.34c-.64-4.61-4.48-27.59-17.47-26.82-13.38-.31-17.21,22.28-17.84,26.82l0,.34h-1V135.51h37.44ZM407.55,136.3v64.29c1.56-8.39,6.06-24.38,17.79-24.38h.31c11.65-.63,16.18,15.78,17.76,24.36V161.74H420.29v-.39c0-.11.95-11.48,6.18-16.66a7.91,7.91,0,0,1,5.69-2.47h.19a7.27,7.27,0,0,1,5.54,2.15c3.07,2.9,4.69,8,5.52,11.9v-20Zm13.55,24.65h22.28c-.19-2.26-1.65-11.85-6-16a6.54,6.54,0,0,0-5-1.94h-.13a7,7,0,0,0-5.22,2.24C422.73,149.5,421.29,158.74,421.1,160.95Z"/></g><rect id="_Tracciato_188" data-name="&lt;Tracciato&gt;" class="cls-3" x="513.68" y="203.28" width="13.95" height="12.42"/><polygon id="_Tracciato_189" data-name="&lt;Tracciato&gt;" class="cls-3" points="613.74 194.19 608.28 194.19 608.24 193.4 613.74 193.4 613.74 194.19"/><polygon id="_Tracciato_190" data-name="&lt;Tracciato&gt;" class="cls-3" points="534.76 194.19 525.53 194.19 525.53 193.4 534.72 193.4 534.76 194.19"/><polygon id="_Tracciato_191" data-name="&lt;Tracciato&gt;" class="cls-3" points="609.23 198.69 608.28 198.69 608.24 197.9 609.23 197.9 609.23 198.69"/><polygon id="_Tracciato_192" data-name="&lt;Tracciato&gt;" class="cls-3" points="534.76 198.69 534.35 198.69 534.35 197.9 534.72 197.9 534.76 198.69"/><rect id="_Tracciato_193" data-name="&lt;Tracciato&gt;" class="cls-3" x="616.42" y="205.93" width="5.25" height="0.79"/><polygon id="_Tracciato_194" data-name="&lt;Tracciato&gt;" class="cls-3" points="527.64 206.72 521.91 206.72 521.9 205.93 527.64 205.93 527.64 206.72"/><rect id="_Tracciato_195" data-name="&lt;Tracciato&gt;" class="cls-3" x="616.42" y="210.42" width="5.05" height="0.79"/><polygon id="_Tracciato_196" data-name="&lt;Tracciato&gt;" class="cls-3" points="527.64 211.21 521.91 211.21 521.9 210.42 527.64 210.42 527.64 211.21"/><rect id="_Tracciato_197" data-name="&lt;Tracciato&gt;" class="cls-3" x="566.81" y="138.04" width="9.28" height="0.79"/><rect id="_Tracciato_198" data-name="&lt;Tracciato&gt;" class="cls-3" x="566.82" y="141.07" width="9.28" height="0.79"/><rect id="_Tracciato_199" data-name="&lt;Tracciato&gt;" class="cls-3" x="526.5" y="87.47" width="90.54" height="1.58"/><rect id="_Tracciato_200" data-name="&lt;Tracciato&gt;" class="cls-3" x="526.5" y="93.11" width="90.54" height="1.58"/><rect id="_Tracciato_201" data-name="&lt;Tracciato&gt;" class="cls-3" x="526.5" y="98.57" width="90.54" height="1.58"/><g id="_Gruppo_99" data-name="&lt;Gruppo&gt;"><polygon id="_Tracciato_202" data-name="&lt;Tracciato&gt;" class="cls-5" points="630.37 190.35 630.37 203.28 621.67 203.28 621.67 202.78 622.23 202.78 622.23 190.35 630.37 190.35"/><path id="_Tracciato_composto_116" data-name="&lt;Tracciato composto&gt;" class="cls-3" d="M630.77,203.68h-9.49v-1.29h.56V190h8.93Zm-8.14-.79H630V190.75h-7.35Z"/></g><rect id="_Tracciato_203" data-name="&lt;Tracciato&gt;" class="cls-3" x="629.98" y="203.28" width="0.79" height="3.04"/><g id="_Gruppo_100" data-name="&lt;Gruppo&gt;"><path id="_Tracciato_204" data-name="&lt;Tracciato&gt;" class="cls-5" d="M200.25,170.37v44.8H185.72V164.59A32.75,32.75,0,0,0,200.25,170.37Z"/><path id="_Tracciato_composto_117" data-name="&lt;Tracciato composto&gt;" class="cls-3" d="M200.64,215.57H185.33V163.82l.62.44A32.54,32.54,0,0,0,200.3,170l.34,0Zm-14.53-.79h13.74V170.71a33.33,33.33,0,0,1-13.74-5.37Z"/></g><rect id="_Tracciato_205" data-name="&lt;Tracciato&gt;" class="cls-3" x="383.98" y="100.77" width="0.79" height="17.31"/><rect id="_Tracciato_206" data-name="&lt;Tracciato&gt;" class="cls-3" x="333.23" y="114.62" width="0.79" height="3.9"/><rect id="_Tracciato_207" data-name="&lt;Tracciato&gt;" class="cls-3" x="307.8" y="180.55" width="0.79" height="0.36"/><rect id="_Tracciato_208" data-name="&lt;Tracciato&gt;" class="cls-3" x="307.8" y="121.68" width="0.79" height="19.83"/><rect id="_Tracciato_209" data-name="&lt;Tracciato&gt;" class="cls-3" x="229.45" y="158.59" width="0.79" height="0.57"/><polygon id="_Tracciato_210" data-name="&lt;Tracciato&gt;" class="cls-3" points="232.44 120.31 232.44 120.29 233.24 120.29 232.44 120.31"/><g id="_Gruppo_101" data-name="&lt;Gruppo&gt;"><path id="_Tracciato_211" data-name="&lt;Tracciato&gt;" class="cls-5" d="M254.84,106.27v11.61c-7.27,1.43-20.94,2.35-22,2.42V105.88Z"/><path id="_Tracciato_composto_118" data-name="&lt;Tracciato composto&gt;" class="cls-3" d="M232.45,120.72V105.48l22.79.39V118.2l-.32.06c-6.58,1.29-18.45,2.18-21.93,2.42Zm.79-14.43v13.58c3.74-.26,14.8-1.11,21.21-2.32V106.65Z"/></g><g id="_Gruppo_102" data-name="&lt;Gruppo&gt;"><polygon id="_Tracciato_212" data-name="&lt;Tracciato&gt;" class="cls-5" points="358.82 118.3 358.82 141.51 333.63 141.51 333.63 118.52 358.82 118.3"/><path id="_Tracciato_composto_119" data-name="&lt;Tracciato composto&gt;" class="cls-3" d="M359.22,141.9h-26V118.13l26-.23ZM334,141.12h24.4V118.69l-24.4.22Z"/></g><rect id="_Tracciato_213" data-name="&lt;Tracciato&gt;" class="cls-3" x="384.37" y="117.58" width="22.42" height="0.79" transform="translate(-1.02 3.48) rotate(-0.5)"/><g id="_Gruppo_103" data-name="&lt;Gruppo&gt;"><polygon id="_Tracciato_214" data-name="&lt;Tracciato&gt;" class="cls-5" points="358.82 141.51 358.82 164.77 333.63 164.87 333.63 141.51 358.82 141.51"/><path id="_Tracciato_composto_120" data-name="&lt;Tracciato composto&gt;" class="cls-3" d="M333.23,165.27V141.12h26v24ZM334,141.9v22.57l24.4-.1V141.9Z"/></g><g id="_Gruppo_104" data-name="&lt;Gruppo&gt;"><polygon id="_Tracciato_215" data-name="&lt;Tracciato&gt;" class="cls-5" points="333.63 141.51 333.63 164.87 308.19 164.98 308.19 141.51 333.63 141.51"/><path id="_Tracciato_composto_121" data-name="&lt;Tracciato composto&gt;" class="cls-3" d="M307.8,165.38V141.12H334v24.15Zm.79-23.47v22.68l24.65-.1V141.9Z"/></g><rect id="_Tracciato_216" data-name="&lt;Tracciato&gt;" class="cls-3" x="384.37" y="141.12" width="22.42" height="0.79"/><g id="_Gruppo_105" data-name="&lt;Gruppo&gt;"><polygon id="_Tracciato_217" data-name="&lt;Tracciato&gt;" class="cls-5" points="384.37 118.07 384.37 141.51 358.82 141.51 358.82 118.3 384.37 118.07"/><path id="_Tracciato_composto_122" data-name="&lt;Tracciato composto&gt;" class="cls-3" d="M384.77,141.9H358.43v-24l26.34-.23Zm-25.55-.79H384V118.47l-24.76.22Z"/></g><g id="_Gruppo_106" data-name="&lt;Gruppo&gt;"><polygon id="_Tracciato_218" data-name="&lt;Tracciato&gt;" class="cls-5" points="384.37 141.51 384.37 164.66 358.82 164.77 358.82 141.51 384.37 141.51"/><path id="_Tracciato_composto_123" data-name="&lt;Tracciato composto&gt;" class="cls-3" d="M358.43,165.16v-24h26.34v23.94Zm.79-23.26v22.47l24.76-.1V141.9Z"/></g><g id="_Gruppo_107" data-name="&lt;Gruppo&gt;"><polygon id="_Tracciato_219" data-name="&lt;Tracciato&gt;" class="cls-5" points="384.37 164.66 384.37 180.55 358.82 180.55 358.82 164.77 384.37 164.66"/><path id="_Tracciato_composto_124" data-name="&lt;Tracciato composto&gt;" class="cls-3" d="M384.77,180.95H358.43V164.37l26.34-.11Zm-25.55-.79H384v-15.1l-24.76.1Z"/></g><g id="_Gruppo_108" data-name="&lt;Gruppo&gt;"><polygon id="_Tracciato_220" data-name="&lt;Tracciato&gt;" class="cls-2" points="407.41 180.55 407.41 189.55 384.37 197.24 384.37 180.55 407.41 180.55"/><path id="_Tracciato_composto_125" data-name="&lt;Tracciato composto&gt;" class="cls-3" d="M384,197.79V180.16H407.8v9.67Zm.79-16.85V196.7L407,189.26v-8.32Z"/></g><g id="_Gruppo_109" data-name="&lt;Gruppo&gt;"><rect id="_Tracciato_221" data-name="&lt;Tracciato&gt;" class="cls-6" x="328.04" y="187.77" width="19.13" height="18.94"/><path id="_Tracciato_composto_126" data-name="&lt;Tracciato composto&gt;" class="cls-3" d="M347.57,207.11H327.64V187.38h19.92Zm-19.13-.79h18.35V188.17H328.43Z"/></g><g id="_Gruppo_110" data-name="&lt;Gruppo&gt;"><rect id="_Tracciato_222" data-name="&lt;Tracciato&gt;" class="cls-6" x="319" y="187.77" width="7.58" height="18.94"/><path id="_Tracciato_composto_127" data-name="&lt;Tracciato composto&gt;" class="cls-3" d="M327,207.11H318.6V187.38H327Zm-7.58-.79h6.79V188.17h-6.79Z"/></g><g id="_Gruppo_111" data-name="&lt;Gruppo&gt;"><rect id="_Tracciato_223" data-name="&lt;Tracciato&gt;" class="cls-6" x="348.62" y="187.77" width="17.6" height="18.94"/><path id="_Tracciato_composto_128" data-name="&lt;Tracciato composto&gt;" class="cls-3" d="M366.62,207.11H348.22V187.38h18.39Zm-17.6-.79h16.81V188.17H349Z"/></g><g id="_Gruppo_112" data-name="&lt;Gruppo&gt;"><rect id="_Tracciato_224" data-name="&lt;Tracciato&gt;" class="cls-6" x="367.68" y="187.77" width="9.11" height="18.94"/><path id="_Tracciato_composto_129" data-name="&lt;Tracciato composto&gt;" class="cls-3" d="M377.19,207.11h-9.9V187.38h9.9Zm-9.11-.79h8.32V188.17h-8.32Z"/></g><g id="_Gruppo_113" data-name="&lt;Gruppo&gt;"><polygon id="_Tracciato_225" data-name="&lt;Tracciato&gt;" class="cls-5" points="384.37 180.55 384.37 206.72 376.79 206.72 376.79 187.77 319 187.77 319 206.72 311.78 206.72 311.78 180.55 384.37 180.55"/><path id="_Tracciato_composto_130" data-name="&lt;Tracciato composto&gt;" class="cls-3" d="M384.77,207.11H376.4V188.17h-57v18.94h-8v-27h73.38Zm-7.58-.79H384V180.95H312.17v25.37h6.43V187.38h58.58Z"/></g><g id="_Gruppo_114" data-name="&lt;Gruppo&gt;"><polygon id="_Tracciato_226" data-name="&lt;Tracciato&gt;" class="cls-5" points="333.63 164.87 333.63 180.55 308.19 180.55 308.19 164.98 333.63 164.87"/><path id="_Tracciato_composto_131" data-name="&lt;Tracciato composto&gt;" class="cls-3" d="M334,180.95H307.8V164.59l26.22-.11Zm-25.43-.79h24.65V165.27l-24.65.1Z"/></g><rect id="_Tracciato_227" data-name="&lt;Tracciato&gt;" class="cls-3" x="384.37" y="164.22" width="22.42" height="0.79" transform="translate(-0.64 1.55) rotate(-0.22)"/><g id="_Gruppo_115" data-name="&lt;Gruppo&gt;"><path id="_Tracciato_228" data-name="&lt;Tracciato&gt;" class="cls-5" d="M262.62,124.43v29.24l-29,.07A33,33,0,0,0,235,124.43Z"/><path id="_Tracciato_composto_132" data-name="&lt;Tracciato composto&gt;" class="cls-3" d="M232.95,154.14l.33-.59a32.56,32.56,0,0,0,1.34-29l-.24-.55H263v30Zm2.63-29.32a33.36,33.36,0,0,1-1.29,28.52l27.94-.07V124.82Z"/></g><polygon id="_Tracciato_229" data-name="&lt;Tracciato&gt;" class="cls-3" points="234.97 124.82 234.97 124.82 234.97 124.03 234.97 124.82"/><g id="_Gruppo_116" data-name="&lt;Gruppo&gt;"><polygon id="_Tracciato_230" data-name="&lt;Tracciato&gt;" class="cls-5" points="308.19 141.51 308.19 164.98 279.01 165.1 279.01 141.51 308.19 141.51"/><path id="_Tracciato_composto_133" data-name="&lt;Tracciato composto&gt;" class="cls-3" d="M278.61,165.49V141.12h30v24.26Zm.79-23.59V164.7l28.4-.11V141.9Z"/></g><g id="_Gruppo_117" data-name="&lt;Gruppo&gt;"><polygon id="_Tracciato_231" data-name="&lt;Tracciato&gt;" class="cls-5" points="308.19 164.98 308.19 180.55 279.01 180.55 279.01 165.1 308.19 164.98"/><path id="_Tracciato_composto_134" data-name="&lt;Tracciato composto&gt;" class="cls-3" d="M308.59,180.95h-30V164.7l30-.12Zm-29.19-.79h28.4V165.38l-28.4.11Z"/></g><g id="_Gruppo_118" data-name="&lt;Gruppo&gt;"><polygon id="_Tracciato_232" data-name="&lt;Tracciato&gt;" class="cls-5" points="279.01 153.63 279.01 180.55 262.62 180.55 262.62 153.67 279.01 153.63"/><path id="_Tracciato_composto_135" data-name="&lt;Tracciato composto&gt;" class="cls-3" d="M279.4,180.95H262.23V153.27l17.18,0ZM263,180.16h15.6V154l-15.6,0Z"/></g><g id="_Gruppo_119" data-name="&lt;Gruppo&gt;"><polygon id="_Tracciato_233" data-name="&lt;Tracciato&gt;" class="cls-5" points="279.01 124.43 279.01 153.63 262.62 153.67 262.62 124.43 279.01 124.43"/><path id="_Tracciato_composto_136" data-name="&lt;Tracciato composto&gt;" class="cls-3" d="M262.23,154.06V124H279.4v30Zm.79-29.24v28.45l15.6,0V124.82Z"/></g><rect id="_Tracciato_234" data-name="&lt;Tracciato&gt;" class="cls-3" x="211.34" y="75.93" width="0.79" height="0.42"/><g id="_Gruppo_120" data-name="&lt;Gruppo&gt;"><polygon id="_Tracciato_235" data-name="&lt;Tracciato&gt;" class="cls-5" points="272.4 106.57 254.84 106.27 254.84 98.39 272.4 106.57"/><path id="_Tracciato_composto_137" data-name="&lt;Tracciato composto&gt;" class="cls-3" d="M274.25,107l-19.8-.35V97.77Zm-19-1.12,15.31.27L255.23,99Z"/></g><g id="_Gruppo_121" data-name="&lt;Gruppo&gt;"><polygon id="_Tracciato_236" data-name="&lt;Tracciato&gt;" class="cls-5" points="232.84 88.15 232.84 105.89 211.75 105.52 211.74 105.52 211.74 87.68 232.84 88.15"/><path id="_Tracciato_composto_138" data-name="&lt;Tracciato composto&gt;" class="cls-3" d="M233.23,106.29l-21.88-.38V87.28l21.89.48Zm-21.1-1.16,20.31.36v-17l-20.31-.45Z"/></g><g id="_Gruppo_122" data-name="&lt;Gruppo&gt;"><path id="_Tracciato_237" data-name="&lt;Tracciato&gt;" class="cls-5" d="M232.84,105.88v14.41h-.06a33,33,0,0,0-21-14.78Z"/><path id="_Tracciato_composto_139" data-name="&lt;Tracciato composto&gt;" class="cls-3" d="M233.23,120.69h-.61l-.18-.19a32.69,32.69,0,0,0-20.77-14.6l.09-.78,21.48.38ZM215,106a33.56,33.56,0,0,1,17.47,13.1V106.27Z"/></g><rect id="_Tracciato_238" data-name="&lt;Tracciato&gt;" class="cls-3" x="443.8" y="160.86" width="32.68" height="0.79" transform="translate(-0.94 2.7) rotate(-0.34)"/><g id="_Gruppo_123" data-name="&lt;Gruppo&gt;"><polygon id="_Tracciato_239" data-name="&lt;Tracciato&gt;" class="cls-5" points="254.84 117.87 254.84 106.27 272.4 106.57 276.39 108.43 270.15 112.07 260.23 116.28 254.84 117.87"/><path id="_Tracciato_composto_140" data-name="&lt;Tracciato composto&gt;" class="cls-3" d="M254.44,118.4V105.86l18.12.35,4.68,2.18-6.89,4-10,4.24Zm.79-11.73v10.68l4.88-1.44,9.88-4.2,5.54-3.24L272.31,107Z"/></g><path id="_Tracciato_composto_141" data-name="&lt;Tracciato composto&gt;" class="cls-4" d="M626.85,145.87l0,0a8.44,8.44,0,0,1-.21-.86c-3.16-9.85-9-19.64-19.85-23.68a33,33,0,0,0,23.47,49.94A85.74,85.74,0,0,0,626.85,145.87ZM608.3,128.6c6.68-1.5,12.5,5.11,12.5,5.11C613.5,135.76,608.3,128.6,608.3,128.6Zm11.24,21.3c6.73,1.27,9.45,9.64,9.45,9.64C621.48,158.53,619.53,149.9,619.53,149.9Z"/><g id="_Gruppo_124" data-name="&lt;Gruppo&gt;"><path id="_Tracciato_240" data-name="&lt;Tracciato&gt;" class="cls-2" d="M634.79,105.73v19.63s-.68-8.77-6.91-11.59c0,0-.15,8.85,6.91,11.59v46h-4.2l-.38-.05a85.74,85.74,0,0,0-3.36-25.44c.56-.5,6.59-6,4.12-12.8,0,0-5.63,5.74-4.38,12-3.16-9.85-9-19.64-19.85-23.68A32.92,32.92,0,0,1,634.79,105.73Z"/><path id="_Tracciato_composto_142" data-name="&lt;Tracciato composto&gt;" class="cls-3" d="M635.18,171.76l-5-.06-.34-.06v-.35A85.4,85.4,0,0,0,626.47,146l-.07-.24.19-.17c.64-.57,6-5.55,4.22-11.73C629.53,135.35,626,140,627,145l-.76.2c-3.9-12.15-10.5-20-19.62-23.43l-.45-.17.25-.41a33.16,33.16,0,0,1,28.38-15.82h.39Zm-4.57-.79h3.78V125.63c-7-2.92-6.92-11.77-6.91-11.86v-.6l.55.25c3.68,1.66,5.49,5.25,6.36,8.07V106.13a32.36,32.36,0,0,0-27.06,15c8.44,3.31,14.73,10.4,18.72,21.11.43-5.14,4.44-9.28,4.64-9.48l.44-.45.21.59c2.37,6.54-2.82,11.91-4,13.06A86.64,86.64,0,0,1,630.62,171Zm-2.32-56.54c.13,2,.94,7.91,6,10.31C634,122.75,632.79,116.88,628.29,114.43Z"/></g><path id="_Tracciato_241" data-name="&lt;Tracciato&gt;" class="cls-3" d="M626.59,146.67l-.16-.66a8.89,8.89,0,0,1-.22-.9l.77-.19.34,1.1-.25.16-.21-.31.2.32Z"/><path id="_Tracciato_composto_143" data-name="&lt;Tracciato composto&gt;" class="cls-4" d="M662.74,121.23a32.91,32.91,0,0,0-28-15.5v19.63s.67-8.77,6.91-11.59c0,0,.15,8.85-6.91,11.59v46h4.1a0,0,0,0,0,0,0S637.13,130.39,662.74,121.23ZM641.83,145.9s-6.74-5.72-4.17-12.83C637.66,133.07,643.83,139.35,641.83,145.9Z"/><path id="_Tracciato_242" data-name="&lt;Tracciato&gt;" class="cls-3" d="M634.79,172a34.86,34.86,0,0,1-4.24-.27l0-.79h8.3l.05.79c-.87.11-1.76.19-2.72.23C635.74,172,635.27,172,634.79,172Z"/><path id="_Tracciato_composto_144" data-name="&lt;Tracciato composto&gt;" class="cls-4" d="M662.74,121.23c-25.61,9.15-23.83,50.13-23.83,50.13.25,0,.5-.06.75-.1-.05-.53-.07-1.07-.07-1.61a19.62,19.62,0,0,1,2.95-10.38c.19-.32.39-.61.6-.91a9.51,9.51,0,0,1-3.49,1.17s2.72-8.37,9.44-9.64a16.25,16.25,0,0,1-1.62,4,19.83,19.83,0,0,1,17.93-3,33,33,0,0,0-2.66-29.61Zm-14.9,12.47s5.81-6.61,12.5-5.11C660.34,128.6,655.14,135.76,647.84,133.7Z"/><path id="_Tracciato_243" data-name="&lt;Tracciato&gt;" class="cls-3" d="M641.83,159.56l1-1.42a20,20,0,0,1,4.42-4.59l1.55-1.17-1,1.68a12.22,12.22,0,0,1-4.48,4.65Z"/><path id="_Tracciato_composto_145" data-name="&lt;Tracciato composto&gt;" class="cls-3" d="M658.82,161.84l.35-1.53c.39-1.69,1.45-4.72,4.16-5.95l.56-.25v.81l0,.09a32.73,32.73,0,0,1-4,5.65Zm3.59-5.95a7.34,7.34,0,0,0-1.85,2.66A31.79,31.79,0,0,0,662.41,155.89Z"/><rect id="_Tracciato_244" data-name="&lt;Tracciato&gt;" class="cls-3" x="634.39" y="171.36" width="0.79" height="0.26"/><polygon id="_Tracciato_245" data-name="&lt;Tracciato&gt;" class="cls-3" points="629.82 171.36 629.82 171.31 630.61 171.31 629.82 171.36"/><path id="_Tracciato_246" data-name="&lt;Tracciato&gt;" class="cls-3" d="M638.89,171.36v43.76h-8.68V171.36h.38a35,35,0,0,0,4.2.26c.48,0,.94,0,1.42,0C637.11,171.55,638,171.47,638.89,171.36Z"/><path id="_Tracciato_247" data-name="&lt;Tracciato&gt;" class="cls-3" d="M634.79,172a34.86,34.86,0,0,1-4.24-.27l0-.79h8.3l.05.79c-.87.11-1.76.19-2.72.23C635.74,172,635.27,172,634.79,172Z"/><g id="_Gruppo_125" data-name="&lt;Gruppo&gt;"><path id="_Tracciato_248" data-name="&lt;Tracciato&gt;" class="cls-3" d="M629,159.54c-7.51-1-9.45-9.64-9.45-9.64C626.27,151.17,629,159.54,629,159.54Z"/><path id="_Tracciato_composto_146" data-name="&lt;Tracciato composto&gt;" class="cls-3" d="M629.55,160l-.62-.08c-7.69-1-9.76-9.86-9.78-9.95l-.13-.59.59.11c6.89,1.3,9.64,9.56,9.75,9.91Zm-9.46-9.59c.59,1.88,2.78,7.46,8.28,8.6C627.62,157.18,625,151.76,620.09,150.43Z"/></g><g id="_Gruppo_126" data-name="&lt;Gruppo&gt;"><path id="_Tracciato_249" data-name="&lt;Tracciato&gt;" class="cls-3" d="M620.79,133.7c-7.29,2.05-12.5-5.11-12.5-5.11C615,127.1,620.79,133.7,620.79,133.7Z"/><path id="_Tracciato_composto_147" data-name="&lt;Tracciato composto&gt;" class="cls-3" d="M618.18,134.47c-6,0-10.16-5.57-10.2-5.63l-.35-.49.59-.13c6.82-1.53,12.63,5,12.88,5.23l.41.47-.6.17A10,10,0,0,1,618.18,134.47Zm-9.16-5.6c1.29,1.49,5.51,5.75,11,4.62C618.61,132.08,614.1,128.13,609,128.87Z"/></g><g id="_Gruppo_127" data-name="&lt;Gruppo&gt;"><path id="_Tracciato_250" data-name="&lt;Tracciato&gt;" class="cls-3" d="M626.85,145.87l-.25-.82c-1.26-6.24,4.38-12,4.38-12C633.44,139.86,627.41,145.38,626.85,145.87Z"/><path id="_Tracciato_composto_148" data-name="&lt;Tracciato composto&gt;" class="cls-3" d="M626.65,146.57l-.43-1.41c-1.29-6.41,4.24-12.13,4.47-12.37l.44-.45.21.59c2.53,7-3.53,12.61-4.23,13.23Zm4.16-12.73C629.53,135.35,626,140,627,145l.06.18C628.48,143.72,632.35,139.24,630.81,133.84Z"/></g><path id="_Tracciato_251" data-name="&lt;Tracciato&gt;" class="cls-3" d="M626.59,146.67l-.16-.66a8.89,8.89,0,0,1-.22-.9l.77-.19.34,1.1-.25.16-.21-.31.2.32Z"/><g id="_Gruppo_128" data-name="&lt;Gruppo&gt;"><path id="_Tracciato_252" data-name="&lt;Tracciato&gt;" class="cls-3" d="M649.09,149.9a16.25,16.25,0,0,1-1.62,4,19.7,19.7,0,0,0-4.33,4.5,9.51,9.51,0,0,1-3.49,1.17S642.37,151.17,649.09,149.9Z"/><path id="_Tracciato_composto_149" data-name="&lt;Tracciato composto&gt;" class="cls-3" d="M639.08,160l.19-.6c.11-.35,2.87-8.61,9.74-9.91l.59-.11-.13.59a16.52,16.52,0,0,1-1.66,4.07l-.11.12a19.22,19.22,0,0,0-4.25,4.41l-.13.12a9.92,9.92,0,0,1-3.63,1.22Zm9.45-9.58c-4.95,1.33-7.52,6.75-8.27,8.61a9,9,0,0,0,2.6-1,20,20,0,0,1,4.3-4.47A16.75,16.75,0,0,0,648.53,150.43Z"/></g><path id="_Tracciato_253" data-name="&lt;Tracciato&gt;" class="cls-3" d="M641.83,159.56l1-1.42a20,20,0,0,1,4.42-4.59l1.55-1.17-1,1.68a12.22,12.22,0,0,1-4.48,4.65Z"/><g id="_Gruppo_129" data-name="&lt;Gruppo&gt;"><path id="_Tracciato_254" data-name="&lt;Tracciato&gt;" class="cls-3" d="M660.34,128.6s-5.2,7.16-12.5,5.11C647.84,133.7,653.66,127.1,660.34,128.6Z"/><path id="_Tracciato_composto_150" data-name="&lt;Tracciato composto&gt;" class="cls-3" d="M650.46,134.47a10,10,0,0,1-2.72-.38l-.6-.17.41-.47c.24-.28,6.05-6.76,12.88-5.23l.59.13-.35.49C660.61,128.9,656.49,134.47,650.46,134.47Zm-1.85-1c5.49,1.14,9.72-3.12,11-4.62C654.55,128.13,650,132.08,648.61,133.48Z"/></g><g id="_Gruppo_130" data-name="&lt;Gruppo&gt;"><path id="_Tracciato_255" data-name="&lt;Tracciato&gt;" class="cls-3" d="M641.7,113.78s.15,8.85-6.91,11.59C634.79,125.36,635.46,116.59,641.7,113.78Z"/><path id="_Tracciato_composto_151" data-name="&lt;Tracciato composto&gt;" class="cls-3" d="M634.35,126l0-.62c0-.37.76-9,7.15-11.92l.55-.25v.6c0,.09.07,9.16-7.17,12Zm6.94-11.53c-4.5,2.45-5.73,8.33-6,10.31C640.34,122.34,641.16,116.39,641.28,114.43Z"/></g><g id="_Gruppo_131" data-name="&lt;Gruppo&gt;"><path id="_Tracciato_256" data-name="&lt;Tracciato&gt;" class="cls-3" d="M634.79,125.36c-7.06-2.74-6.91-11.59-6.91-11.59C634.11,116.59,634.79,125.36,634.79,125.36Z"/><path id="_Tracciato_composto_152" data-name="&lt;Tracciato composto&gt;" class="cls-3" d="M635.23,126l-.58-.23c-7.23-2.81-7.17-11.87-7.17-12v-.6l.55.25c6.38,2.88,7.12,11.55,7.14,11.92Zm-6.94-11.53c.13,2,.94,7.91,6,10.31C634,122.75,632.79,116.88,628.29,114.43Z"/></g><g id="_Gruppo_132" data-name="&lt;Gruppo&gt;"><path id="_Tracciato_257" data-name="&lt;Tracciato&gt;" class="cls-3" d="M641.83,145.9s-6.74-5.72-4.17-12.83C637.66,133.07,643.83,139.35,641.83,145.9Z"/><path id="_Tracciato_composto_153" data-name="&lt;Tracciato composto&gt;" class="cls-3" d="M642,146.59l-.46-.39c-.07-.06-6.92-6-4.28-13.27l.21-.59.44.45c.26.26,6.3,6.52,4.26,13.23Zm-4.2-12.75c-1.54,5.4,2.4,9.92,3.79,11.32C642.74,140.16,639.13,135.37,637.83,133.84Z"/></g><path id="_Tracciato_258" data-name="&lt;Tracciato&gt;" class="cls-6" d="M663.5,154.82v-.1c-2.57,1.16-3.56,4-3.94,5.68l-.2.22V149.9a19.77,19.77,0,0,1,5.51.78l.54.16A29.84,29.84,0,0,1,663.5,154.82Z"/><path id="_Tracciato_259" data-name="&lt;Tracciato&gt;" class="cls-3" d="M641.83,159.56l1-1.42a20,20,0,0,1,4.42-4.59l1.55-1.17-1,1.68a12.22,12.22,0,0,1-4.48,4.65Z"/><path id="_Tracciato_composto_154" data-name="&lt;Tracciato composto&gt;" class="cls-9" d="M642.54,159.28a19.62,19.62,0,0,0-2.95,10.38c0,.54,0,1.08.07,1.61a32.71,32.71,0,0,0,11.9-4.23A17.82,17.82,0,0,0,642.54,159.28Zm.93,4.33c4-.9,7.5,3.07,7.5,3.07C646.59,167.9,643.47,163.61,643.47,163.61Z"/><path id="_Tracciato_composto_155" data-name="&lt;Tracciato composto&gt;" class="cls-9" d="M676.11,159.19c-15.36,5.51-14.28,30.08-14.28,30.08a19.76,19.76,0,0,0,14.28-30.08Zm-13.84,23s1.63-5,5.67-5.78C667.94,176.39,666.78,181.57,662.28,182.18Zm4.92-15.5s3.49-4,7.5-3.07C674.69,163.61,671.57,167.9,667.19,166.68Z"/><path id="_Tracciato_composto_156" data-name="&lt;Tracciato composto&gt;" class="cls-9" d="M676.11,159.19a19.78,19.78,0,0,0-10.71-8.35,29.84,29.84,0,0,1-1.9,4c0,.74-.25,5.35-4.14,6.86v27.59h2.47S660.75,164.7,676.11,159.19ZM663.59,174s-4-3.43-2.51-7.7C661.08,166.3,664.78,170.07,663.59,174Z"/><path id="_Tracciato_composto_157" data-name="&lt;Tracciato composto&gt;" class="cls-9" d="M654.59,174l0,0a2.71,2.71,0,0,1-.12-.49s0,0,0,0a29.77,29.77,0,0,0-2.88-6.45,32.71,32.71,0,0,1-11.9,4.23,19.73,19.73,0,0,0,16.95,18A51.29,51.29,0,0,0,654.59,174Zm-4.38,2.42c4,.76,5.67,5.78,5.67,5.78C651.38,181.57,650.21,176.39,650.21,176.39Z"/><path id="_Tracciato_260" data-name="&lt;Tracciato&gt;" class="cls-3" d="M654.4,174.72l-.2-.6a3,3,0,0,1-.13-.56l.77-.18c.05.17.1.32.14.49l.06.22Z"/><path id="_Tracciato_261" data-name="&lt;Tracciato&gt;" class="cls-3" d="M659.36,189.82a18.89,18.89,0,0,1-2.48-.16l.05-.79h4.87l.05.79a16.22,16.22,0,0,1-1.64.14Z"/><path id="_Tracciato_262" data-name="&lt;Tracciato&gt;" class="cls-3" d="M659.71,162.24l-.49-.19a6,6,0,0,1-.72-.34l-.45-.25.35-.37c.21-.22.38-.4.54-.59l.11-.12.22-.24,1-1.17-.32,1.51a11.47,11.47,0,0,0-.19,1.23Z"/><path id="_Tracciato_composto_158" data-name="&lt;Tracciato composto&gt;" class="cls-3" d="M658.82,161.84l.35-1.53c.39-1.69,1.45-4.72,4.16-5.95l.56-.25v.81l0,.09a32.73,32.73,0,0,1-4,5.65Zm3.59-5.95a7.34,7.34,0,0,0-1.85,2.66A31.79,31.79,0,0,0,662.41,155.89Z"/><g id="_Gruppo_133" data-name="&lt;Gruppo&gt;"><path id="_Tracciato_263" data-name="&lt;Tracciato&gt;" class="cls-6" d="M659.36,149.9v10.72a.75.75,0,0,1-.13.14c-.31-1.59-1.26-4.79-4-6,0,0-.07,4.73,3.48,6.64a33,33,0,0,1-7.11,5.68,17.82,17.82,0,0,0-9-7.76c.19-.32.39-.61.6-.91a11.94,11.94,0,0,0,4.33-4.5A19.66,19.66,0,0,1,659.36,149.9Z"/><path id="_Tracciato_composto_159" data-name="&lt;Tracciato composto&gt;" class="cls-3" d="M651.43,167.57l-.2-.33a17.42,17.42,0,0,0-8.83-7.6l-.45-.17.25-.41c.2-.33.4-.63.62-.93l.13-.11a11.44,11.44,0,0,0,4.19-4.36l.1-.12a20,20,0,0,1,12.12-4h.39v11.25l-.08.1a1.12,1.12,0,0,1-.19.21l-.21.17.05,0-.36.37a33.42,33.42,0,0,1-7.2,5.74Zm-8.3-8.49a18.17,18.17,0,0,1,8.57,7.42,32.61,32.61,0,0,0,6.35-5.05c-3.27-2.13-3.25-6.54-3.24-6.73v-.6l.55.25a7.22,7.22,0,0,1,3.6,4.07V150.3a19.18,19.18,0,0,0-11.19,3.83,12.23,12.23,0,0,1-4.36,4.54Zm12.51-3.68c.13,1.32.71,4.26,3.23,5.61h0l0-.19C658.55,159.31,657.75,156.71,655.64,155.4Z"/></g><rect id="_Tracciato_264" data-name="&lt;Tracciato&gt;" class="cls-3" x="658.96" y="189.27" width="0.79" height="0.16"/><rect id="_Tracciato_265" data-name="&lt;Tracciato&gt;" class="cls-3" x="658.96" y="160.62" width="0.79" height="1.06"/><polygon id="_Tracciato_266" data-name="&lt;Tracciato&gt;" class="cls-3" points="676.12 159.59 676.11 159.59 676.11 158.8 676.12 159.59"/><path id="_Tracciato_267" data-name="&lt;Tracciato&gt;" class="cls-3" d="M642.38,159.64l-.08,0-.14-.05.32-.72.09,0,.13,0Z"/><g id="_Gruppo_134" data-name="&lt;Gruppo&gt;"><path id="_Tracciato_268" data-name="&lt;Tracciato&gt;" class="cls-6" d="M659.36,161.68v27.59h-2.43a1.63,1.63,0,0,1-.32,0,51.29,51.29,0,0,0-2-15.25c.32-.27,4-3.58,2.48-7.67,0,0-3.39,3.46-2.63,7.19a29.77,29.77,0,0,0-2.88-6.45,33,33,0,0,0,7.11-5.68A5.72,5.72,0,0,0,659.36,161.68Z"/><path id="_Tracciato_composto_160" data-name="&lt;Tracciato composto&gt;" class="cls-3" d="M659.75,189.66h-2.83a2,2,0,0,1-.38,0l-.33-.06v-.34a50.82,50.82,0,0,0-2-15.13l-.07-.25.19-.17.21-.19-.47.12a29.42,29.42,0,0,0-2.84-6.36l-.21-.34.35-.2a32.64,32.64,0,0,0,7-5.61l.21-.22.27.15a5.26,5.26,0,0,0,.63.29l.25.1Zm-2.74-.79h2V161.94l-.2-.09a33.44,33.44,0,0,1-6.65,5.33,28.44,28.44,0,0,1,1.93,4,11.06,11.06,0,0,1,2.75-5.16l.44-.45.21.59c1.41,3.91-1.59,7.15-2.41,7.93A52,52,0,0,1,657,188.87Zm-.11-21.77c-.85,1.05-2.53,3.53-2.11,6.12C655.69,172.26,657.53,169.91,656.9,167.1Z"/></g><polygon id="_Tracciato_269" data-name="&lt;Tracciato&gt;" class="cls-3" points="656.21 189.27 656.21 189.23 657 189.23 656.21 189.27"/><path id="_Tracciato_270" data-name="&lt;Tracciato&gt;" class="cls-3" d="M661.82,189.27v26.37h-5.21V189.27h.32a18.74,18.74,0,0,0,2.43.16l.85,0c.54,0,1.07-.06,1.6-.14Z"/><path id="_Tracciato_271" data-name="&lt;Tracciato&gt;" class="cls-3" d="M659.36,189.82a18.89,18.89,0,0,1-2.48-.16l.05-.79h4.87l.05.79a16.22,16.22,0,0,1-1.64.14Z"/><g id="_Gruppo_135" data-name="&lt;Gruppo&gt;"><path id="_Tracciato_272" data-name="&lt;Tracciato&gt;" class="cls-3" d="M655.88,182.18c-4.5-.6-5.67-5.78-5.67-5.78C654.25,177.15,655.88,182.18,655.88,182.18Z"/><path id="_Tracciato_composto_161" data-name="&lt;Tracciato composto&gt;" class="cls-3" d="M656.45,182.65l-.62-.08c-4.72-.63-5.95-5.86-6-6.09l-.13-.59.59.11c4.22.79,5.9,5.83,6,6Zm-5.65-5.7c.44,1.25,1.69,4,4.45,4.7C654.71,180.41,653.29,177.78,650.79,177Z"/></g><g id="_Gruppo_136" data-name="&lt;Gruppo&gt;"><path id="_Tracciato_273" data-name="&lt;Tracciato&gt;" class="cls-3" d="M651,166.68c-4.38,1.23-7.5-3.07-7.5-3.07C647.48,162.71,651,166.68,651,166.68Z"/><path id="_Tracciato_composto_162" data-name="&lt;Tracciato composto&gt;" class="cls-3" d="M649.36,167.3c-3.66,0-6.1-3.29-6.21-3.45l-.35-.49.59-.13c4.18-.93,7.73,3,7.88,3.19l.41.47-.6.17A6.29,6.29,0,0,1,649.36,167.3Zm-5.14-3.4c.9,1,3.12,3,5.95,2.55C649.19,165.52,646.85,163.66,644.22,163.89Z"/></g><g id="_Gruppo_137" data-name="&lt;Gruppo&gt;"><path id="_Tracciato_274" data-name="&lt;Tracciato&gt;" class="cls-3" d="M654.59,174c0-.16-.08-.31-.14-.47s0,0,0,0c-.76-3.73,2.63-7.19,2.63-7.19C658.55,170.39,654.91,173.7,654.59,174Z"/><path id="_Tracciato_composto_163" data-name="&lt;Tracciato composto&gt;" class="cls-3" d="M654.37,174.68l-.16-.61c0-.12-.06-.24-.1-.35l0,0v-.13c-.78-3.88,2.6-7.37,2.74-7.52l.44-.45.21.59c1.59,4.4-2.42,8-2.6,8.11Zm2.53-7.58c-.85,1.05-2.53,3.53-2.11,6.12C655.69,172.26,657.53,169.91,656.9,167.1Z"/></g><path id="_Tracciato_275" data-name="&lt;Tracciato&gt;" class="cls-3" d="M654.4,174.72l-.2-.6a3,3,0,0,1-.13-.56l.77-.18c.05.17.1.32.14.49l.06.22Z"/><g id="_Gruppo_138" data-name="&lt;Gruppo&gt;"><path id="_Tracciato_276" data-name="&lt;Tracciato&gt;" class="cls-3" d="M667.94,176.39s-1.16,5.18-5.67,5.78C662.28,182.18,663.9,177.15,667.94,176.39Z"/><path id="_Tracciato_composto_164" data-name="&lt;Tracciato composto&gt;" class="cls-3" d="M661.71,182.65l.19-.6c.07-.21,1.75-5.25,6-6l.59-.11-.13.59c-.05.22-1.28,5.46-6,6.09Zm5.65-5.7c-2.51.83-3.92,3.46-4.45,4.7C665.67,180.91,666.92,178.2,667.36,177Z"/></g><g id="_Gruppo_139" data-name="&lt;Gruppo&gt;"><path id="_Tracciato_277" data-name="&lt;Tracciato&gt;" class="cls-3" d="M674.69,163.61s-3.12,4.29-7.5,3.07C667.19,166.68,670.68,162.71,674.69,163.61Z"/><path id="_Tracciato_composto_165" data-name="&lt;Tracciato composto&gt;" class="cls-3" d="M668.79,167.3a6.29,6.29,0,0,1-1.71-.24l-.6-.17.41-.47c.15-.17,3.69-4.12,7.88-3.19l.59.13-.35.49C674.89,164,672.45,167.3,668.79,167.3Zm-.81-.85c2.84.41,5.05-1.57,6-2.55C671.3,163.67,669,165.52,668,166.44Z"/></g><g id="_Gruppo_140" data-name="&lt;Gruppo&gt;"><path id="_Tracciato_278" data-name="&lt;Tracciato&gt;" class="cls-3" d="M663.5,154.82c0,.74-.25,5.35-4.14,6.86a11.56,11.56,0,0,1,.2-1.28A32.25,32.25,0,0,0,663.5,154.82Z"/><path id="_Tracciato_composto_166" data-name="&lt;Tracciato composto&gt;" class="cls-3" d="M658.91,162.27l.05-.63a11.83,11.83,0,0,1,.21-1.33l0-.1.07-.08a31.92,31.92,0,0,0,3.89-5.51l.76-1.37,0,1.57c0,.57-.2,5.59-4.4,7.22Zm1-1.69c0,.16-.06.31-.08.44a6.44,6.44,0,0,0,3-4.37A33.1,33.1,0,0,1,659.92,160.58Z"/></g><path id="_Tracciato_composto_167" data-name="&lt;Tracciato composto&gt;" class="cls-3" d="M658.82,161.84l.35-1.53c.39-1.69,1.45-4.72,4.16-5.95l.56-.25v.81l0,.09a32.73,32.73,0,0,1-4,5.65Zm3.59-5.95a7.34,7.34,0,0,0-1.85,2.66A31.79,31.79,0,0,0,662.41,155.89Z"/><g id="_Gruppo_141" data-name="&lt;Gruppo&gt;"><path id="_Tracciato_279" data-name="&lt;Tracciato&gt;" class="cls-3" d="M659.23,160.76c-.17.2-.36.4-.55.6-3.55-1.91-3.48-6.64-3.48-6.64C658,156,658.92,159.17,659.23,160.76Z"/><path id="_Tracciato_composto_168" data-name="&lt;Tracciato composto&gt;" class="cls-3" d="M658.8,161.81l-.3-.1c-3.72-2-3.69-6.79-3.69-7v-.6l.55.25c2.89,1.3,3.9,4.52,4.25,6.32l0,.19-.12.14c-.16.19-.34.39-.53.58Zm-3.16-6.41c.13,1.28.67,4.05,3,5.46l.2-.22C658.48,159.11,657.67,156.65,655.64,155.4Z"/></g><path id="_Tracciato_280" data-name="&lt;Tracciato&gt;" class="cls-3" d="M659.79,162.27l-.57-.22a6,6,0,0,1-.72-.34l-.45-.25.35-.37c.21-.22.38-.4.54-.59l.53-.64.15.82a8.23,8.23,0,0,1,.13,1Z"/><g id="_Gruppo_142" data-name="&lt;Gruppo&gt;"><path id="_Tracciato_281" data-name="&lt;Tracciato&gt;" class="cls-3" d="M663.59,174s-4-3.43-2.51-7.7C661.08,166.3,664.78,170.07,663.59,174Z"/><path id="_Tracciato_composto_169" data-name="&lt;Tracciato composto&gt;" class="cls-3" d="M663.79,174.68l-.46-.39c-.17-.15-4.24-3.65-2.62-8.13l.21-.59.44.45c.16.16,3.85,4,2.6,8.09Zm-2.53-7.58c-.63,2.8,1.2,5.15,2.11,6.12C663.78,170.62,662.1,168.15,661.26,167.1Z"/></g><polyline id="_Tracciato_282" data-name="&lt;Tracciato&gt;" class="cls-6" points="652.25 167.18 651.72 166.3 654.33 162.93 657.8 161.36 658.68 162.09 658.68 162.99 652.38 167.4"/><polyline id="_Tracciato_283" data-name="&lt;Tracciato&gt;" class="cls-6" points="649.69 167.4 651.17 167.27 651.57 168.07 642.73 172.11 640.22 171.74 640.11 170.63 642.73 168.08"/><path id="_Tracciato_284" data-name="&lt;Tracciato&gt;" class="cls-6" d="M663.19,154.26l.74-.21.07.94a7.19,7.19,0,0,0,.78-.35c.07-.07.63-1.67.63-1.67l1.17-1.19-2.52-.94-.78,1.72Z"/><path id="_Tracciato_285" data-name="&lt;Tracciato&gt;" class="cls-3" d="M659.88,149.91v.46a16.9,16.9,0,0,1,6.9,1.53c3.46,1.63-1-1.24-1-1.24l-5.93-1Z"/><g id="_Gruppo_143" data-name="&lt;Gruppo&gt;"><rect id="_Tracciato_286" data-name="&lt;Tracciato&gt;" class="cls-3" x="627.73" y="214.72" width="33.48" height="0.79"/></g><g id="_Gruppo_144" data-name="&lt;Gruppo&gt;"><rect id="_Tracciato_287" data-name="&lt;Tracciato&gt;" class="cls-5" x="443.8" y="203.77" width="33.52" height="11.43"/><path id="_Tracciato_composto_170" data-name="&lt;Tracciato composto&gt;" class="cls-3" d="M477.71,215.59H443.4V203.37h34.3Zm-33.52-.79h32.73V204.16H444.19Z"/></g><rect id="_Rettangolo_" data-name="&lt;Rettangolo&gt;" class="cls-5" x="514.44" y="190.91" width="7.47" height="12.37"/><polygon id="_Tracciato_288" data-name="&lt;Tracciato&gt;" class="cls-6" points="439.23 131.56 443.24 135.56 443.24 131.56 439.23 131.56"/><polygon id="_Tracciato_289" data-name="&lt;Tracciato&gt;" class="cls-6" points="481.72 131.41 477.77 135.45 477.77 131.41 481.72 131.41"/><rect id="_Rettangolo_2" data-name="&lt;Rettangolo&gt;" class="cls-2" x="477.86" y="128.19" width="35.21" height="2.31"/></g><rect class="cls-12" x="-1.35" y="215.47" width="852.68" height="2.53"/></svg>