<svg xmlns="http://www.w3.org/2000/svg" viewBox="0 0 478.86 497.11"><defs><style>.cls-1{fill:#fff;}</style></defs><title>Risorsa 33</title><g id="Livello_2" data-name="Livello 2"><g id="Livello_1-2" data-name="Livello 1"><path class="cls-1" d="M334,14.36A15.27,15.27,0,0,0,318.77,0l-.92,0L145.34,10.2A15.26,15.26,0,0,0,131,26.34l2.27,38.37.83,14.11,16.45,279a15.27,15.27,0,0,0,16.14,14.34l26.61-1.57a28.9,28.9,0,0,1,.37-5.72l43.88-265.1,5.23-31.56,5.11-30.91A28.94,28.94,0,0,1,276.54,13a29.31,29.31,0,0,1,4.77.39l53.14,8.79Z"/><path class="cls-1" d="M273.52,439.93l-74.44-12.32a29,29,0,0,1-20.38-14.1L149,415.26c-.57,0-1.15,0-1.73,0a29.07,29.07,0,0,1-29-27.34L102,112.11,101.17,98,21,121.18a29.08,29.08,0,0,0-19.84,36l92.2,319a29,29,0,0,0,36,19.84l166-48a29.14,29.14,0,0,0,7.27-3.23Z"/><path class="cls-1" d="M466.09,75.16,365.77,58.56l-13.95-2.31L295.6,46.94A15.24,15.24,0,0,0,278,59.5l-9.83,59.4L263,150.46,223.82,387.08a15.32,15.32,0,0,0,7.93,16,15.07,15.07,0,0,0,4.63,1.57l97.41,16.12,14.75,2.44,58.34,9.66a15.24,15.24,0,0,0,17.55-12.57L478.66,92.71a15.28,15.28,0,0,0-12.57-17.55"/></g></g></svg>