<svg xmlns="http://www.w3.org/2000/svg" viewBox="0 0 442.18 503.24"><defs><style>.cls-1{fill:#a9c476;}</style></defs><title>Risorsa 17</title><g id="Livello_2" data-name="Livello 2"><g id="Livello_1-2" data-name="Livello 1"><path class="cls-1" d="M239.08,59.6V42.2h26.37V0H165.24V42.19h26.37V60.85h0C86.13,76.27,0,168.92,0,280.91,0,403.7,99,503.24,221.8,503.24S442.18,403.7,442.18,280.91C442.18,165.28,349.84,70.26,239.08,59.6Zm-17.8,411.89C116,471.48,30.71,386.17,30.71,280.91S116,90.35,221.28,90.35s190.57,85.32,190.57,190.56S326.52,471.48,221.28,471.48Z"/><path class="cls-1" d="M189.41,249a8.92,8.92,0,0,1,2.55-1.78A8.86,8.86,0,0,0,189.41,249Z"/><path class="cls-1" d="M299.05,197.16,192,247.25a8.85,8.85,0,0,0-2.55,1.78h0a9.07,9.07,0,0,0-1.79,2.54l-50.08,107.1a4.5,4.5,0,0,0,6,6l107.09-50.08a9,9,0,0,0,2.55-1.79h0q.27-.27.51-.56a8.84,8.84,0,0,0,.93-1.34c.12-.21.24-.43.34-.65-.1.22-.21.42-.33.63.12-.21.23-.42.33-.63L305,203.14a4.5,4.5,0,0,0-6-6ZM239.27,298.89h0a25.43,25.43,0,0,1-36-36h0a25.43,25.43,0,0,1,36,36Z"/><path class="cls-1" d="M229.61,126.16h14.48v48.32H230.72l-19-24.68v24.68H197.15V126.16h13.37L229.61,151Z"/><path class="cls-1" d="M342.27,265.92h40.88v12.13H358.27V284h22.61v12.13H358.27v6h25.5v12.13h-41.5Z"/><path class="cls-1" d="M230.83,404.49a24.65,24.65,0,0,0-7.86-1.72q-3,0-3,2.14a2.79,2.79,0,0,0,1.9,2.55,38.46,38.46,0,0,0,6,2,72.33,72.33,0,0,1,8.58,2.9,15.4,15.4,0,0,1,6,4.58,12.65,12.65,0,0,1,2.55,8.24A14,14,0,0,1,242.3,434a16.09,16.09,0,0,1-7.34,5.27A29.2,29.2,0,0,1,224.69,441a41.9,41.9,0,0,1-12.92-2.1,36.93,36.93,0,0,1-11.27-5.76L206.42,421a32.51,32.51,0,0,0,9.17,5.41,25.58,25.58,0,0,0,9.24,2.24,5.24,5.24,0,0,0,2.83-.65,2.24,2.24,0,0,0,1-2,2.86,2.86,0,0,0-2-2.58,35.08,35.08,0,0,0-6.17-2,64.47,64.47,0,0,1-8.51-2.72,15.19,15.19,0,0,1-5.89-4.38,12,12,0,0,1-2.48-7.93,14.28,14.28,0,0,1,2.55-8.44,16.06,16.06,0,0,1,7.24-5.55,28.47,28.47,0,0,1,10.89-1.93,41.38,41.38,0,0,1,11.27,1.58,36.91,36.91,0,0,1,9.75,4.21l-5.79,12.2A53.13,53.13,0,0,0,230.83,404.49Z"/><path class="cls-1" d="M117.78,266.84h16.34l-16.34,48.32H101.38l-7.24-28.88L86.7,315.16H70.29l-16.2-48.32H71.19L79,298.55l7.72-31.71h15.58l7.86,31.71Z"/></g></g></svg>