<svg xmlns="http://www.w3.org/2000/svg" viewBox="0 0 460.49 547"><defs><style>.cls-1{fill:#e0d4a0;}</style></defs><title>Risorsa 20</title><g id="Livello_2" data-name="Livello 2"><g id="Livello_1-2" data-name="Livello 1"><path class="cls-1" d="M306,228.49,355.57,187c33.21-29.52,53-64.89,55.18-112.75H48.06c2.16,47.86,22,83.23,55.18,112.75l49.56,42.8a50.51,50.51,0,0,1,17.4,38.12,51.19,51.19,0,0,1-17.4,38.44L104.34,350.2C69.11,381.52,50,426.27,50,473.4v4.2h41v-4.2c0-33,17.28-64.44,41.93-86.35L184.13,343A71.73,71.73,0,0,1,270,341.29l2.76,1.73,51.29,44c24.64,21.91,40.53,53.39,40.53,86.35v4.2h47.86v-4.2c0-47.13-20.89-92-56.13-123.36l-49.91-44a51.83,51.83,0,0,1-.36-77.5m-32.9-37-31.47,23.76a20.33,20.33,0,0,1-24.51,0l-31.46-23.76-49.55-44.05,15.81,2.8a444.83,444.83,0,0,0,154.91,0l15.81-2.8Z"/><rect class="cls-1" width="460.49" height="62" rx="15.81" ry="15.81"/><rect class="cls-1" y="485" width="460.49" height="62" rx="15.81" ry="15.81"/></g></g></svg>