<svg xmlns="http://www.w3.org/2000/svg" viewBox="0 0 335.7 547.39"><defs><style>.cls-1{fill:#ce6b6b;}</style></defs><title>Risorsa 14</title><g id="Livello_2" data-name="Livello 2"><g id="Livello_1-2" data-name="Livello 1"><path class="cls-1" d="M81.39,249.62C54.8,225,41.94,174.51,43.4,125.9H292.29c1.49,48.63-11.37,99.13-38,123.7-44.16,40.87-128.78,40.87-173,0"/><path class="cls-1" d="M270,529l-85-15.86V340.48c37.35-3.81,72.33-19.14,99.66-45.53,64.48-62.33,68.83-221.84,7.89-289.3L287.38,0H48.26L43.17,5.65c-60.92,67.45-56.55,227,7.93,289.3,27.3,26.39,62.28,41.73,99.63,45.53V513.18L62.42,528.77c-9.46,0-17.38.17-17.38,9.62s10.71,9,20.16,9H270.48c9.46,0,17.65.46,17.65-9S279.4,529,270,529M63.9,9.18H271.79c57.93,76.31,38.91,213-11,261.16-50.08,48.39-135.83,48.46-185.93,0-49.88-48.19-71-191-11-261.17"/></g></g></svg>