<svg xmlns="http://www.w3.org/2000/svg" viewBox="0 0 516.05 450.92"><defs><style>.cls-1{fill:#40484c;}</style></defs><title>Risorsa 11</title><g id="Livello_2" data-name="Livello 2"><g id="Livello_1-2" data-name="Livello 1"><path class="cls-1" d="M408.75,39.75a214.22,214.22,0,0,1,64.16,152.94c0,.07,0,.13,0,.2,0,118.68-96.21,214.89-214.89,214.89S43.14,311.57,43.14,192.89c0-.07,0-.13,0-.2H0c0,.07,0,.13,0,.2,0,142.5,115.52,258,258,258s258-115.52,258-258c0-.07,0-.13,0-.2A257.22,257.22,0,0,0,439.26,9.25Z"/><path class="cls-1" d="M450.54,192.32h0c0,.31,0,.61,0,.92a127.89,127.89,0,1,1-96.73-124.1A150.54,150.54,0,0,0,117,192.32H65.51C65.62,86.09,151.76,0,258,0S450.43,86.09,450.54,192.32Z"/></g></g></svg>