<svg xmlns="http://www.w3.org/2000/svg" viewBox="0 0 435.42 358.57"><defs><style>.cls-1{fill:#c4a7d8;}</style></defs><title>Risorsa 29</title><g id="Livello_2" data-name="Livello 2"><g id="Livello_1-2" data-name="Livello 1"><path class="cls-1" d="M75.06,272.63c49.3,1,92,8.33,123.56,21.32a4.36,4.36,0,0,0,1.67.33,4.39,4.39,0,0,0,4.39-4.39l0-235.69a4.39,4.39,0,0,0-2.77-4.08L76.77.31a4.39,4.39,0,0,0-6,4.08V268.24a4.39,4.39,0,0,0,4.3,4.39"/><path class="cls-1" d="M433.65,42.17a4.41,4.41,0,0,0-3.88-.69L385.5,54.72a4.39,4.39,0,0,0-3.14,4.21V286.61a3.36,3.36,0,0,1-3.58,3.59h-7.17c-35.71,0-102.08,3.71-145.31,28.53l-8.58,4.92-8.58-4.92C165.89,293.91,99.52,290.2,63.81,290.2H54.65c-1.71,0-1.6-2.05-1.6-2.05V58.93a4.39,4.39,0,0,0-3.13-4.21L5.65,41.49A4.39,4.39,0,0,0,0,45.69V321.16a4.39,4.39,0,0,0,4.82,4.37c13.16-1.29,33.73-2.83,57-2.83,51.11,0,92.19,7.46,118.81,21.59,3.91,2.05,26.59,14.27,37.08,14.27s33.17-12.22,37.08-14.27c26.62-14.13,67.7-21.59,118.81-21.59,23.27,0,43.84,1.54,57,2.83a4.39,4.39,0,0,0,4.82-4.37V45.69a4.41,4.41,0,0,0-1.77-3.52"/><path class="cls-1" d="M232.68,293.54a4.38,4.38,0,0,0,4.12.41c31.53-13,74.26-20.36,123.56-21.32a4.39,4.39,0,0,0,4.3-4.39V4.39a4.39,4.39,0,0,0-6-4.08L233.48,50.12a4.39,4.39,0,0,0-2.77,4.08l0,235.69a4.39,4.39,0,0,0,1.95,3.65"/></g></g></svg>